<svg xmlns="http://www.w3.org/2000/svg" viewBox="0 0 390 333.95"><defs><style>.cls-1{fill:#fbd1cc;}</style></defs><g id="Calque_2" data-name="Calque 2"><g id="Calque_162" data-name="Calque 162"><path id="Soustraction_2" data-name="Soustraction 2" class="cls-1" d="M390,334H0V115.08l27.47-38.6H44.24v-17a7.31,7.31,0,1,1,3.32,0v17H59.08V62.14H65.9V50.7h8.36V39.26h8.56V29.65h3.31v9.61h8.28V50.7h5.5V45.45h5.61V31.06L154.74,3l26.85,20.52V0l38.22,30.46V52.78l7.57,5.8V41.7h57.43V64l8.74,7.09v-7a7.11,7.11,0,1,1,3.3,0v9.71l8,6.54v20.48h4v-8h28.67v8h5.07V75.41l-4,2.82-1.8-2.53,30.34-21.46L390,70.38V334Z"/></g></g></svg>