<svg xmlns="http://www.w3.org/2000/svg" width="79.81" height="48.08" viewBox="0 0 79.81 48.08"><g id="Calque_2" data-name="Calque 2"><g id="Calque_190" data-name="Calque 190"><path d="M1.11,48.08A1.11,1.11,0,0,1,0,47V1.11a1.11,1.11,0,0,1,2.22,0V47A1.1,1.1,0,0,1,1.11,48.08Z" style="fill:#fbe3e0"/><path d="M25,32.48H1.11A1.11,1.11,0,0,1,0,31.37V24a1.11,1.11,0,0,1,1.11-1.11H25A1.11,1.11,0,0,1,26.09,24v7.33A1.1,1.1,0,0,1,25,32.48ZM2.22,30.26H23.87V25.15H2.22Z" style="fill:#fbe3e0"/><path d="M25,48.08A1.11,1.11,0,0,1,23.87,47V27.7a1.12,1.12,0,0,1,2.23,0V47A1.11,1.11,0,0,1,25,48.08Z" style="fill:#fbe3e0"/><path d="M78.7,48.08A1.11,1.11,0,0,1,77.58,47V1.11a1.12,1.12,0,0,1,2.23,0V47A1.11,1.11,0,0,1,78.7,48.08Z" style="fill:#fbe3e0"/><path d="M78.7,32.48H54.82a1.11,1.11,0,0,1-1.11-1.11V24a1.11,1.11,0,0,1,1.11-1.11H78.7A1.11,1.11,0,0,1,79.81,24v7.33A1.11,1.11,0,0,1,78.7,32.48ZM55.93,30.26H77.58V25.15H55.93Z" style="fill:#fbe3e0"/><path d="M54.82,48.08A1.11,1.11,0,0,1,53.71,47V27.7a1.11,1.11,0,1,1,2.22,0V47A1.1,1.1,0,0,1,54.82,48.08Z" style="fill:#fbe3e0"/><path d="M60.72,19.13H18.63A1.11,1.11,0,0,1,17.51,18v-5.5a1.12,1.12,0,0,1,1.12-1.11H60.72a1.11,1.11,0,0,1,1.11,1.11V18A1.11,1.11,0,0,1,60.72,19.13Zm-41-2.22H59.61V13.63H19.74Z" style="fill:#fbe3e0"/><path d="M39.67,46.93h0a1.11,1.11,0,0,1-1.1-1.12c.06-10.56.11-26.63,0-27.62L39.67,18l.79-.78c.45.45.48.48.32,28.58A1.11,1.11,0,0,1,39.67,46.93Z" style="fill:#fbe3e0"/><path d="M48.31,46.93H31a1.11,1.11,0,1,1,0-2.22H48.31a1.11,1.11,0,0,1,0,2.22Z" style="fill:#fbe3e0"/><path d="M3,18.58a3,3,0,0,1-3-3V6.87a3,3,0,1,1,6.05,0v8.68A3,3,0,0,1,3,18.58ZM3,6.07a.8.8,0,0,0-.8.8v8.68a.8.8,0,0,0,1.6,0V6.87A.8.8,0,0,0,3,6.07Z" style="fill:#fbe3e0"/><path d="M76.79,18.58a3,3,0,0,1-3-3V6.87a3,3,0,1,1,6,0v8.68A3,3,0,0,1,76.79,18.58Zm0-12.51a.8.8,0,0,0-.8.8v8.68a.8.8,0,0,0,.8.8.79.79,0,0,0,.79-.8V6.87A.79.79,0,0,0,76.79,6.07Z" style="fill:#fbe3e0"/></g></g></svg>