<svg xmlns="http://www.w3.org/2000/svg" width="81.64" height="47.28" viewBox="0 0 81.64 47.28"><g id="Calque_2" data-name="Calque 2"><g id="Calque_189" data-name="Calque 189"><path d="M64.62,20.64a2.23,2.23,0,0,0-2.22,2.22v22.2a2.23,2.23,0,0,0,2.22,2.22h14.8a2.23,2.23,0,0,0,2.22-2.22V22.86a2.23,2.23,0,0,0-2.22-2.22Zm0,1.48h14.8a.72.72,0,0,1,.74.74v.37H63.88v-.37A.73.73,0,0,1,64.62,22.12Zm-.74,2.59H80.16V41.36H63.88Zm0,18.13H80.16v2.22a.71.71,0,0,1-.74.74H64.62a.72.72,0,0,1-.74-.74Zm8.14.74a.74.74,0,0,0,0,1.48.74.74,0,0,0,0-1.48Z" style="fill:#fbe3e0"/><path d="M56.92,0H2.61A2.6,2.6,0,0,0,0,2.61V34.26a2.61,2.61,0,0,0,2.61,2.61H25.4V40h-3a2.55,2.55,0,0,0-2.55,2.55V45.8a1.48,1.48,0,0,0,1.48,1.48h16a1.48,1.48,0,0,0,1.48-1.48V42.53A2.55,2.55,0,0,0,36.24,40H34.13V36.87h22.8a2.62,2.62,0,0,0,2.61-2.61V2.61A2.62,2.62,0,0,0,56.92,0ZM36.24,41.72a.8.8,0,0,1,.8.8v3H21.55v-3a.8.8,0,0,1,.8-.8ZM27.14,40V36.86h5.24V40Zm30.64-5.71a.85.85,0,0,1-.86.86H2.61a.85.85,0,0,1-.86-.86V2.61a.85.85,0,0,1,.86-.86H56.92a.85.85,0,0,1,.86.86Z" style="fill:#fbe3e0"/><path d="M53.32,4.68H6.21A1.72,1.72,0,0,0,4.5,6.4V30.46a1.72,1.72,0,0,0,1.71,1.72H53.32A1.72,1.72,0,0,0,55,30.46V6.4A1.72,1.72,0,0,0,53.32,4.68Zm0,25.75h-47v-24h47Z" style="fill:#fbe3e0"/><path d="M14.91,15.6l2.68-2.91a.87.87,0,1,0-1.28-1.19l-2.68,2.91a.87.87,0,0,0,0,1.23.84.84,0,0,0,.59.24A.77.77,0,0,0,14.91,15.6Z" style="fill:#fbe3e0"/><path d="M19.91,12.08l-5.5,6a.87.87,0,0,0,.64,1.46.86.86,0,0,0,.64-.28l5.5-6A.88.88,0,0,0,21.14,12,.86.86,0,0,0,19.91,12.08Z" style="fill:#fbe3e0"/></g></g></svg>