<svg xmlns="http://www.w3.org/2000/svg" width="1233.58" height="868.64" viewBox="0 0 1233.58 868.64"><g id="Calque_2" data-name="Calque 2"><g id="Calque_192" data-name="Calque 192"><g style="opacity:0.5"><path d="M1070.45,536.27c-18.67-51.74-48.08-67.49-76-100.67-34.16-40.54-57.2-70-48.33-122.14C960.57,228.27,966.77,15.8,739.85,43.57c-81.34,10-145.62,71.9-192.37,133.74-39.79,52.62-111.36,57.26-169,69.53-70.78,15.07-142.88,37.84-208.37,71.2C35.27,386.74-5,485.51.49,611.88c1.66,38.18,7.09,98.31,72,168.68,87.59,95,214.86,107.7,368,64.08,35.07-10,68.21-25.64,102.7-37.43a487.32,487.32,0,0,1,110.84-23.92c88-8.45,179.18,6.84,263.57-19.27a278.41,278.41,0,0,0,117.89-72.66C1075.82,649.39,1090.16,590.88,1070.45,536.27Z" style="fill:#fbe3e0"/><path d="M364.61,680.52H268.48c-51.73,0-94.06,42.32-94.06,94.06h0c0,51.73,42.33,94.06,94.06,94.06h812.79c83.78,0,152.31-68.54,152.31-152.31h0c0-83.77-68.53-152.31-152.31-152.32h0a64.58,64.58,0,0,1-64.4-64.4h0a64.59,64.59,0,0,1,64.4-64.4h77.51a67.15,67.15,0,0,0,67-66.95h0a67.15,67.15,0,0,0-67-67h-98a26.14,26.14,0,0,1-26.06-26.07h0a26.14,26.14,0,0,1,26.06-26.06h17.28a18,18,0,0,0,18-18h0a18,18,0,0,0-18-18H964.68c-23.88,0-26.54,28.2-86.85,28.2H704.06a23.55,23.55,0,0,0-23.48,23.48h0a23.55,23.55,0,0,0,23.48,23.47H726.6a34.12,34.12,0,0,1,34,34h0a34.12,34.12,0,0,1-34,34H692.68c-91.62,0-104.56,23.94-120.61,71.56s-99.38,51.47-99.38,51.47H358.74a51.41,51.41,0,0,0-51.26,51.25h0a51.41,51.41,0,0,0,51.26,51.26h5.87a49.44,49.44,0,0,1,49.3,49.3h0a49.45,49.45,0,0,1-49.3,49.31Zm763.92-431.35a18,18,0,1,1,18-18A18,18,0,0,1,1128.53,249.17Z" style="fill:#fbe3e0;fill-rule:evenodd"/></g><path d="M942.23,165.12s.52-23.23,2.07-26.84S950,129,953.07,128s11.36-3.61,13.94-5.16,12.91-11.88,12.91-11.88,8.26-2.06,8.77.52-11.87,13.94-11.87,13.94l5.16,2.06,27.36.52,16-16s5.68-3.62,5.16,0-16,23.74-17.55,23.74-46.46,16.52-46.46,16.52l-5.17,20.14Z" style="fill:#eda785"/><path d="M991.28,141.89s10.84-3.1,12.39-5.68,12.9-25.3,13.93-26.84-5.67-.52-8.26,0-9.8,22.71-9.8,22.71l-11.36,3.61Z" style="fill:#eda785"/><path d="M995.18,137.94s11.25-.68,13.32-2.87,18.07-21.91,19.41-23.2-5.43-1.73-8.07-1.78-14.48,20.06-14.48,20.06l-11.87,1.08Z" style="fill:#eda785"/><path d="M951.53,151.18s-.52-10.32,6.19-15.49S985.6,130,985.6,130s10.32-20.14,12.9-20.14,8.78-2.58,8.26,0-6.71,12.91-9.29,18.07-3.61,11.87-6.19,13.94-17.56,5.68-17.56,5.68" style="fill:#eda785"/><polygon points="933.97 182.16 939.65 163.06 965.46 167.18 959.27 190.93 933.97 182.16" style="fill:#fff"/><path d="M830.21,161.51s22.71,6.19,26.84,13.93,38.72,63.5,40.79,67.12,3.61,6.71,3.61,6.71,25.3-61.44,26.33-65.05,9.81-4.65,12.39-4.65,26.33,1.55,27.36,7.75-29.94,123.9-33,126.48-11.36,3.61-16.52,2.06-72.79-35.62-72.79-35.62Z" style="fill:#fff"/><path d="M704,363.56,685.59,580,674.24,768s-6.38,7.81-5.67,11.35,4.25,13.48,4.25,13.48-10.64,30.51-7.8,32.64a73.89,73.89,0,0,0,8.51,5h29.09s5.68-5.68,5-9.94l-5-29.79s6.39-11.36,7.1-14.19-3.55-17.74-3.55-17.74l68.11-261.1s29.09,163.19,36.19,200.79,21,131,21,131h14.9l2.13-6.39s.71-1.41,7.81,2.84a23.51,23.51,0,0,0,13.48,3.55h36.89s2.84-3.55.71-4.26-31.22-20.35-36.18-24.61S857.68,785,857.68,785s5-12.78,5-14.9-6.38-14.19-6.38-14.19l-4.65-190.1,2.13-197.24Z" style="fill:#222a42"/><path d="M727.82,153.59,683,175.09,704.7,314.6,702.49,370s37.2,20.38,79.28,19.05,74-16.39,74-16.39l2.21-120.91s-4.43-58.9-9.74-68.64-8-14.18-15.5-19.93-30.56-12.4-30.56-12.4-41.63-3.55-43-3.55S727.82,153.59,727.82,153.59Z" style="fill:#2e3552"/><polygon points="776.69 204.53 803.03 252.16 809.23 195.91 790.63 168.89 776.89 199.9 776.69 204.53" style="fill:#fff"/><polygon points="792.52 178.37 808.36 199.71 812.49 153.59 802.85 141.89 792.52 178.37" style="fill:#fff"/><polygon points="734.71 106.1 738.15 143.95 792.52 178.37 815.93 114.36 734.71 106.1" style="fill:#eda785"/><path d="M736.75,128.56a59,59,0,0,0,25.46,4.76c18.95-.83,40.82-9.25,51.93-14.07l1.79-4.89L734.7,106.1Z" style="fill:#db8f72"/><polygon points="792.52 178.37 776.69 204.53 727.82 153.59 735.39 141.2 792.52 178.37" style="fill:#fff"/><path d="M805.8,269.36a4.39,4.39,0,0,1-3.09,3.94,2.25,2.25,0,0,1-3.08-2.2,4.38,4.38,0,0,1,3.08-3.93A2.25,2.25,0,0,1,805.8,269.36ZM802.71,300a4.38,4.38,0,0,0-3.08,3.94,2.24,2.24,0,0,0,3.08,2.19,4.37,4.37,0,0,0,3.09-3.93A2.25,2.25,0,0,0,802.71,300Zm0,32.86a4.38,4.38,0,0,0-3.08,3.93,2.24,2.24,0,0,0,3.08,2.19,4.37,4.37,0,0,0,3.09-3.93A2.25,2.25,0,0,0,802.71,332.88Zm0,32.85a4.38,4.38,0,0,0-3.08,3.93,2.24,2.24,0,0,0,3.08,2.19,4.37,4.37,0,0,0,3.09-3.93A2.25,2.25,0,0,0,802.71,365.73Z" style="fill:#fff"/><path d="M854.47,330.32s20.14-17,22.72-17,15.48,9.81,15.48,9.81,12.91-1.55,13.43,1.55S904,336.51,904,336.51l-3.1,3.1s-8.77,13.42-8.77,15.49-11.36,1.54-16.52,2.58S856,355.1,856,355.1Z" style="fill:#eda785"/><polygon points="834.86 328.77 858.6 329.28 859.12 354.06 839.5 354.58 834.86 328.77" style="fill:#fff"/><path d="M725.43,223.92a40.52,40.52,0,0,0-15.63-31.78c-8.27-6.45-18.57-14.2-22.07-15.66-6.2-2.58-9.3-1.55-18.07,4.64s-11.87,19.1-11.36,40.27,15.49,132.67,17,137.32,6.19,5.68,10.32,6.19,146.43-4.35,149.2-4.64c9.8-1,11.4-14.4,10.84-20.65-1-11.36-10.84-15-25.82-16.52S731.61,312.76,729,312.25a34.75,34.75,0,0,1-5.17-1.55s1.55-60.4,1.55-76.92C725.41,230.09,725.44,226.84,725.43,223.92Z" style="fill:#fff"/><polygon points="1090.39 109.88 894.74 109.88 884.41 101.62 1102.78 101.62 1090.39 109.88" style="fill:#8c8c8c"/><polygon points="753 313.89 753.71 436.64 856.59 436.64 858.6 329.28 753 313.89" style="fill:#f2f2f2"/><path d="M784.08,23.5s10.33,2.07,16.53,14,23.26,61.5,23.78,68.22-6.72,8.78-15,14-35.14,9.3-50.13,4.14-18.09-13.44-18.09-13.44-5.68,6.72-16.53-.52-12.92-17-8.79-20.67,10.85-.52,10.85-.52-11.37-27.9-10.33-37.72,1.55-19.64,18.09-26.36S784.08,23.5,784.08,23.5Z" style="fill:#eda785"/><path d="M806.05,87.23s1.71,7.66-13.64,12.43c0,0-13.72,2.92-15.86-3.85A138.74,138.74,0,0,0,806.05,87.23Z" style="fill:#fff"/><path d="M722.58,80.35s3.1,10.85,5.17,11.36,10.85,2.07,10.33-3.1-8.66-15.74-7.62-21.94,9.74-11.08,9.45-17.84c-.2-4.44-6.76-6.51-5.21-9.1S757.53,22.39,770.12,24c9.23,1.18,20.61,7.31,23.1,2.78,1.88-3.44-2.62-17.53-16.67-24.38-21.08-10.28-51.22,14.52-60.14,30.26-9.11,16-2.53,23.79-1.58,30.09S722.58,80.35,722.58,80.35Z" style="fill:#232428"/><polygon points="792.52 178.37 787.52 186.64 794.36 187.76 798.1 185.89 792.52 178.37" style="fill:#c1c0bf"/><path d="M792.72,187.75l-16.93-3.62a4.09,4.09,0,0,0-4.86,4.79l2.6,13.21a4.09,4.09,0,0,0,6.49,2.46l13.2-10.09a4.08,4.08,0,0,1,4.17-.48L811,200.18a4.08,4.08,0,0,0,5.72-4.36l-2.07-13a4.08,4.08,0,0,0-6-2.9l-13,7.36A4.1,4.1,0,0,1,792.72,187.75Z" style="fill:#111110"/><path d="M672.82,792.81l29.8-2.12,5.57,33.42-5.57,6.31H673.53l-8.51-5S662.43,819.85,672.82,792.81Z" style="fill:#1c1a17"/><path d="M907.35,825.17,900,820.86h.34l-29.15-20.3s-20.52-10.22-33.51-5.42A93.81,93.81,0,0,0,827,800.25l3.12,20.61,1.28,8.57h14.9s7.19-5,9.94-3.55a86.84,86.84,0,0,0,9.34,3.55h41l2.15-.1A3.38,3.38,0,0,0,907.35,825.17Z" style="fill:#1c1a17"/><path d="M554.57,37.08c7.81,3.09,20.47,4,33.23,20.93,12,15.81-2.86,20-3.43,29.74s14.87,12.58,20.59,29.74-12,23.45-15.45,29.74,0,9.15,4.58,15.44-1.72,25.74-26.31,30.32-70.92-4.58-81.22-13.73,3.43-15.44,5.15-19.45-17.16-6.29-22.31-18.3,17.74-20,17.74-30.31-18.31-16.59-10.87-36S510.81,40,523.73,37.08C523.73,37.08,542,32.09,554.57,37.08Z" style="fill:#2b2825"/><path d="M629.88,307.79c.06,7.76-2.19,15.11-9.28,19.75-19.46,12.74-42.74,23.22-64.32,31.81-4.6,1.83-11.91-1.14-13.73-5.73s3.31-8.38,7.55-10.57A307.82,307.82,0,0,0,600,310.76a8,8,0,0,0,3.1-3.74c.71-2.46-1-4.93-1.32-7.47-.87-6.36,6.3-10.53,12.3-12.85,6.82-2.63,9.76-5.67,12.18,1.88C628.11,294.35,629.82,301.22,629.88,307.79Z" style="fill:#eda785"/><path d="M471.72,313.84c-4.77,6.13-11.09,10.5-19.54,9.74-23.16-2.07-33.05-7.29-55.31-13.94-4.73-1.42-23.51-9.28-22.08-14,1.37-4.58,7.79-4.52,12.48-3.61a307.42,307.42,0,0,0,59.15,5.62,8,8,0,0,0,4.75-1c2.09-1.48,2.3-4.47,3.6-6.67,3.27-5.54,11.48-4.36,17.62-2.45,7,2.16,11.18,1.6,8.4,9C478.66,302.2,475.75,308.65,471.72,313.84Z" style="fill:#eda785"/><path d="M507.84,778.14c0-8.28-.7-16.47-3.38-24.52-1.58-4.15-3.84-6.37-7-3.84.45-.36-4.07-4.22-5.56-3.58-2.61,1.11-4.15,8.12-5.15,11.16a150.62,150.62,0,0,0-6.23,27.13c-1.29,4.94-1.09,10.74-1.72,15.36-.38,2.81-.48,6.08,1.46,8.4a4.71,4.71,0,0,0,2,1.45c1.1,3.68,4.36,5.42,7.84,3.8a4.6,4.6,0,0,0,4.18,1.35,7.81,7.81,0,0,0,4.1-2.72,4.32,4.32,0,0,0,3.37.79,6.52,6.52,0,0,0,4.32-4.07c1.92-4.69,1.45-9.81,1.55-14.76C507.64,788.74,507.87,783.42,507.84,778.14Z" style="fill:#eda785"/><path d="M581,792.42a30.92,30.92,0,0,0,0-3.34,156.4,156.4,0,0,0-4.6-29.31c-.81-3.15-1.89-10.33-4.43-11.77-1.44-.82-6.19,2.43-5.76,2.85-3-2.93-5.43-1-7.26,2.92-3.21,6.88-4.71,19.93-5,24-.09,1.42-.14,2.87-.17,4.34a98.83,98.83,0,0,0,.27,11.4c.23,3.94-.06,7.86.1,11.8.1,2.47.26,5.67,2.33,7.37a4,4,0,0,0,5,.18,5,5,0,0,0,4.23,2.68,4.82,4.82,0,0,0,3.47-1,7.54,7.54,0,0,0,4-1.76,8.68,8.68,0,0,0,3.94-4c2.63-.59,4-3.8,4.35-7A33.27,33.27,0,0,0,581,792.42Z" style="fill:#eda785"/><path d="M586.89,557.21c.16-2.48.42-5,.75-7.4-3.84-.51-7.66-1.13-11.48-1.77-5.66-1-11.3-2.09-17-3-1.42-.24-2.85-.48-4.27-.7l-1.12-.17-1.15-.14-3.92-.43-2.82-.26c.59,26,1.33,52,2.38,78,.9,22.14,2,44.17,2.1,66.36a143.42,143.42,0,0,0,2.41,23.23c1.28,12.8,2.86,25.55,4,38.4a8.69,8.69,0,0,0,.2,2.33c.24,3,.47,6,.64,9,.24,4,4.19,6.43,7.63,6.27,3.94-.18,6.58-3.35,7.32-7.21.26-1.39.51-2.77.77-4.16a8,8,0,0,0,2.43-4.9c4.47-32.13,11.28-64,14.17-96.29a320.6,320.6,0,0,0,.69-50.05C589.58,588.7,585.86,572.94,586.89,557.21Z" style="fill:#eda785"/><path d="M517,540.86c-11.64-1.08-23.87-2.28-35.66-4.94a127,127,0,0,1,2.45,21.35c.34,15.75-4.05,31.5-5.77,47.11a322.55,322.55,0,0,0-1.5,50.11c1.49,32.36,6.91,64.31,10,96.51a7.75,7.75,0,0,0,2.22,4.93c.19,1.39.38,2.78.58,4.17.57,3.87,3.07,7.06,7,7.28,3.43.19,7.48-2.26,7.89-6.21q.47-4.51,1-9a9,9,0,0,0,.29-2.33c1.67-12.85,3.8-25.61,5.64-38.41a146.89,146.89,0,0,0,3.41-23.23c1.05-22.21,3.13-44.26,5-66.41,2.24-26.7,4.15-53.44,5.9-80.19C522.58,541.35,519.77,541.12,517,540.86Z" style="fill:#eda785"/><path d="M528.45,153a36.36,36.36,0,0,1,.47,4.18c-.09,1.11-.17,2.22-.26,3.34h0s10.61,20.19,32.46,1.34c-.14-1.16-1.41-10.89-1.55-12,0-.76,0-1.51,0-2.27a7,7,0,0,0-1-4c-.05-.23-.09-.47-.14-.7l-12.26,2.8-9.27,2.12-8.4,1.93A7.72,7.72,0,0,0,528.45,153Z" style="fill:#db8f72"/><path d="M505.83,74.77a18.15,18.15,0,0,1,5.68-4c4.59-2.18,12-.35,16.86-1.41,8.3-1.81,19.94-5.66,27,.84,6.53,6,5.47,15.71,6.82,24.14.28,1.76.67,3.49,1.1,5.2l.24-.24A9.37,9.37,0,0,1,570,96.46c1.89,0,4.26,1.22,4.69,3.26,1.42,6.69-1.81,12.86-6.65,17.37l-.13.11a34.3,34.3,0,0,1,.37,8.74c-1,10.45-7.48,18-14.28,25.49-6.27,6.87-13.86,8.31-22.77,6s-13.57-8.9-17.34-17c-4.1-8.77-7.9-17.39-8.53-27.14C504.59,101.34,496.92,84.45,505.83,74.77Z" style="fill:#eda785"/><path d="M607.31,476.3c1.17-11.79,3.69-112.73-11-102.78-.22-.48-.43-.95-.66-1.43-1.76-3.61-3.64-7.14-5.36-10.76-.2-.4-.38-.79-.56-1.2-1-2.17-4-12.76-5.93-13.59a19.25,19.25,0,0,0-6.3-1.56,5.49,5.49,0,0,0-1.71-.09c-5.29-.12-10.86.95-16.11,1.63-15,2-30.31.39-45.37,2.07A51.47,51.47,0,0,0,504,350.4c-2.79-4.27-10.75-4.76-12.54,1.64-.16.58-.35,1.15-.56,1.72-4.61,12.87-13.54,22.82-17.37,35.76-5.45,18.45-4.87,41.3-5.08,60.4-.29,27.05,3.64,53.05,8.59,79.6,2.18,11.66,3.76,23.87,2.16,35.72-1.69,12.57-8.92,20.94-12.38,32.64C459,624.66,578.52,631,591.7,612c3.34-4.81,3.88-11.16,3.81-16.85-.24-19.1-2.22-40.22.65-60s9.16-38.85,11.15-58.78Z" style="fill:#222a42"/><path d="M589.86,272.11c.57,1.48,1.16,3,1.75,4.44a166.54,166.54,0,0,1,8.44,27.75c.3,1.44,9.5.73,15.25-.24a35.11,35.11,0,0,0,5.59-1.27,10.84,10.84,0,0,0,6.77-13.23c-1.8-6.42-4.08-12.84-5.32-19.27-2.79-14.52-3.16-28.93-4.24-43.63-1-13.71-2.73-29.27-10.82-40.9-9-13-25.08-12.81-38.6-17.6a3.81,3.81,0,0,0-.45-.13c-.22-2.36-47.46.25-47.92,2.53a60.69,60.69,0,0,0-24.38,3.3c-10.42,3.65-15.58,12.47-19.58,22.24-3.94,9.6-6.2,19.72-9.06,29.66-4,13.83-4.12,28.64-9,42.2-2.25,6.3-4,12.57-.66,18.83,2.94,5.48,7.79,9.82,11.79,14.51,3.15,3.71,8.33,1.82,10.76-1.39a66.12,66.12,0,0,0,9-17.49c1-2.8,1.91-5.67,2.79-8.54Z" style="fill:#fff"/><path d="M552.32,817.38c-4.4-9.31-2.63-22.66.92-31.27,2.32,6.08,2.73,14,10.22,16.19a12.86,12.86,0,0,0,15.29-7.22,19.85,19.85,0,0,0,1.7-8.43c0-2.52-.15-5-.38-7.51,3.84,6.17,4.32,14,4.09,21.06-.21,6.55-.38,14.53-3.39,20.49-4.61,9.08-16,9.16-23.39,3.22A18.07,18.07,0,0,1,552.32,817.38Z" style="fill:#1c1a17"/><path d="M508.69,817.38c4.4-9.31,2.62-22.66-.93-31.27-2.32,6.08-2.73,14-10.21,16.19a12.87,12.87,0,0,1-15.3-7.22,20.15,20.15,0,0,1-1.7-8.43c0-2.52.16-5,.39-7.51-3.85,6.17-4.32,14-4.09,21.06.21,6.55.38,14.53,3.39,20.49,4.6,9.08,16,9.16,23.39,3.22A18.17,18.17,0,0,0,508.69,817.38Z" style="fill:#1c1a17"/><polygon points="568.68 168.16 560.42 156.4 543.98 167.57 547.75 184.2 568.68 168.16" style="fill:#c1c0bf"/><polygon points="545.04 168.14 538.69 184.97 523.73 169.46 528.66 160.53 545.04 168.14" style="fill:#c1c0bf"/><path d="M575,280.14s7.66-3.86,14.82-8c-.82,2.07-1.65,4.15-2.42,6.23A46.94,46.94,0,0,1,575,280.14Z" style="fill:#262262"/><polygon points="543.98 167.57 560.42 156.4 568.68 168.16 548.22 182.53 543.98 167.57" style="fill:#fff"/><polygon points="543.98 167.57 538.3 182.53 523.73 169.46 528.66 160.53 543.98 167.57" style="fill:#fff"/><path d="M490,316.45c2.61-9.33,6.84-18.72,6.75-28.55a22.44,22.44,0,0,0-2.05-9,50,50,0,0,0-2.63-5c-4.69-6.43-8.62-12.24-8.14-20.49a52,52,0,0,1,6.69-22.32c3.68-6.53,8.92-12.22,11-19.58,3.52-12.72,3.4-27.08,1.94-40.19,2.18-.3,3.27-.27,4.16-.44a35.59,35.59,0,0,1,4.15-.67c1.1,7.94,18.38,41.9,30.38,51.76,6-4.47,36.91-43.67,37.92-51.1,0,0,7.91-.2,9.38,3a6.07,6.07,0,0,1,0,3.95c-2.14,9-6.48,17.62-7,26.89-.93,14.94,8.19,25.12,13.28,39.2,1.39,3.85,2.22,11.42,1.08,15.35-1,3.45-4.82,9.72-6,13.12A3.55,3.55,0,0,1,589.1,274c-.57,1.43-1.13,2.86-1.66,4.3A52.1,52.1,0,0,0,584.12,292c-1,12.34,4.8,25.92,8.84,38.41.85,2.62,1.62,5.19,2.23,7.69,2,8.38,7.93,22.52,5.81,31-2.49,9.94-12.12,14.48-21.08,17.33-25.32,8.06-52.77.87-77.57-5.59-8-2.09-17.1-4.25-21.71-11.85-.3-.51-.58-1-.83-1.55a7.18,7.18,0,0,1-.49-3C479.16,349.06,485.87,331.1,490,316.45Z" style="fill:#2e3552"/><path d="M482.39,294.7c-1.05-3.51-4.43-5.71-7.57-7.61-5.42-3.27-11.11-6.64-17.43-7.12a3.58,3.58,0,0,0-2.22.35,3.74,3.74,0,0,0-1.26,1.75c-2.91,6.59-8.48,8.44-7.49,15.57.27,1.91,27.24,9.85,29,10.54C476.21,308.48,485.27,304.24,482.39,294.7Z" style="fill:#fff"/><path d="M618.07,300.55c4.65-1.9,9.42-4.68,11.29-9.35,3.36,3.69,4.6,8.95,4.3,13.93s-2,9.77-3.9,14.38c-6-6.28-15.44-7.76-24.14-8.22-4.91-.26-11.74-3.37-4.93-7.06C605,301.9,613.06,302.59,618.07,300.55Z" style="fill:#fff"/><path d="M538.13,232.71A3.82,3.82,0,1,0,542,228.9,3.82,3.82,0,0,0,538.13,232.71Z" style="fill:#fff"/><path d="M538.13,253.21A3.82,3.82,0,1,0,542,249.4,3.82,3.82,0,0,0,538.13,253.21Z" style="fill:#fff"/><path d="M538.13,273.72a3.82,3.82,0,1,0,3.82-3.81A3.81,3.81,0,0,0,538.13,273.72Z" style="fill:#fff"/><path d="M538.13,294.23a3.82,3.82,0,1,0,3.82-3.82A3.82,3.82,0,0,0,538.13,294.23Z" style="fill:#fff"/><path d="M538.13,314.73a3.82,3.82,0,1,0,3.82-3.81A3.81,3.81,0,0,0,538.13,314.73Z" style="fill:#fff"/><path d="M335.14,210.15s7.26-19.27,0-19.27S335.14,210.15,335.14,210.15Z" style="fill:#bcbec0"/><path d="M416.93,273.32s-9.35-70.88-81.33-70.88-82.25,69.62-82.25,69.62Z" style="fill:#d1d3d4"/><path d="M320.39,210.15s-40.49,14.68-40.49,27.67S320.39,210.15,320.39,210.15Z" style="fill:#f1f2f2"/><path d="M335.8,273.89a9.82,9.82,0,0,1,2.11,1.59l3.72,3.4a9.32,9.32,0,0,1-3.81-4.78c2.27.47,4.2,1.9,6.05,3.29l7.8,5.88c-3.23-.12-6.52,1-9.66.22a15.53,15.53,0,0,1-5.46-3q-3.36-2.55-6.55-5.28c-.59-.5-1.22-1.29-.81-1.93S335.09,273.53,335.8,273.89Z" style="fill:#db8f72"/><path d="M365,296.81c-2.91-.78-5.93-1.34-8.56-2.81-1.4-.78-19.27-6.74-20.54-7.72-9.41-7.3-3.78-7.63-15.36-10.39-.63-1.5.69-3.23,2.26-3.66a8.58,8.58,0,0,1,4.78.52c3.17,1,9.84,7.38,13,8.35,8.74,2.68,14-.09,22.71,2.59-.42-3-9.61-6.63-5.4-9,2.08-.27,4.15-.13,6.23-.39.25,1.64-1.14,2.07-.64,3.66.33,1,4.29,1,5.35,1a14.75,14.75,0,0,1,11.36,4.75c2,2.16,3.33,4.95,5.81,6.48,1.33.82,2.88,1.21,4.17,2.09,2.84,1.95,3.69,6,2.72,9.29s-.28,3.57-3,5.35C382.48,303.31,373,299,365,296.81Z" style="fill:#eda785"/><rect x="229.37" y="272.23" width="212.48" height="3.35" transform="translate(671.21 547.81) rotate(180)" style="fill:#131d1e"/><path d="M525.45,138.21S526,144,537.93,144c0,0,10.39-1,10.38-6.3A103.07,103.07,0,0,1,525.45,138.21Z" style="fill:#fff"/></g></g></svg>