<svg xmlns="http://www.w3.org/2000/svg" xmlns:xlink="http://www.w3.org/1999/xlink" width="665.2" height="413.92" viewBox="0 0 665.2 413.92"><defs><clipPath id="clip-path" transform="translate(0 4.52)"><path d="M91.62,406.34S43.13,354,67.38,275,190.13,165.77,203.55,138.93s16.36-89,59.52-121.38c50.64-38,107-6.86,157.63,23.37C500,88.31,568.94-7,607.94,13c87.17,44.74-7.61,122.23,42.81,211.57,38.33,67.92-8.77,165.8-22.18,182.26" style="fill:none"/></clipPath><linearGradient id="_ÂÁ_Ï_ÌÌ_È_ËÂÌÚ_202" x1="498.97" y1="33.29" x2="442.86" y2="167.63" gradientUnits="userSpaceOnUse"><stop offset="0.16" stop-color="#deced4"/><stop offset="0.38" stop-color="#e2d4d9"/><stop offset="0.67" stop-color="#ede4e7"/><stop offset="0.99" stop-color="#fefefe"/><stop offset="1" stop-color="#fff"/></linearGradient><linearGradient id="_ÂÁ_Ï_ÌÌ_È_ËÂÌÚ_202-2" x1="544.36" y1="55.65" x2="488.25" y2="189.98" xlink:href="#_ÂÁ_Ï_ÌÌ_È_ËÂÌÚ_202"/><linearGradient id="_ÂÁ_Ï_ÌÌ_È_ËÂÌÚ_202-3" x1="511.3" y1="78.85" x2="455.19" y2="213.19" xlink:href="#_ÂÁ_Ï_ÌÌ_È_ËÂÌÚ_202"/><linearGradient id="_ÂÁ_Ï_ÌÌ_È_ËÂÌÚ_202-4" x1="646.03" y1="209.88" x2="589.92" y2="344.21" xlink:href="#_ÂÁ_Ï_ÌÌ_È_ËÂÌÚ_202"/><linearGradient id="_ÂÁ_Ï_ÌÌ_È_ËÂÌÚ_202-5" x1="674.25" y1="243.22" x2="626.73" y2="356.99" xlink:href="#_ÂÁ_Ï_ÌÌ_È_ËÂÌÚ_202"/><linearGradient id="_ÂÁ_Ï_ÌÌ_È_ËÂÌÚ_202-6" x1="658.36" y1="255.44" x2="602.25" y2="389.77" xlink:href="#_ÂÁ_Ï_ÌÌ_È_ËÂÌÚ_202"/><linearGradient id="_ÂÁ_Ï_ÌÌ_È_ËÂÌÚ_202-7" x1="126.66" y1="-56.57" x2="70.55" y2="77.76" xlink:href="#_ÂÁ_Ï_ÌÌ_È_ËÂÌÚ_202"/><linearGradient id="_ÂÁ_Ï_ÌÌ_È_ËÂÌÚ_202-8" x1="172.05" y1="-34.22" x2="115.94" y2="100.12" xlink:href="#_ÂÁ_Ï_ÌÌ_È_ËÂÌÚ_202"/><linearGradient id="_ÂÁ_Ï_ÌÌ_È_ËÂÌÚ_202-9" x1="138.99" y1="-11.01" x2="82.88" y2="123.32" xlink:href="#_ÂÁ_Ï_ÌÌ_È_ËÂÌÚ_202"/><linearGradient id="_ÂÁ_Ï_ÌÌ_È_ËÂÌÚ_202-10" x1="639.57" y1="-60.98" x2="583.46" y2="73.36" xlink:href="#_ÂÁ_Ï_ÌÌ_È_ËÂÌÚ_202"/><linearGradient id="_ÂÁ_Ï_ÌÌ_È_ËÂÌÚ_202-11" x1="618.84" y1="-38.62" x2="562.73" y2="95.72" xlink:href="#_ÂÁ_Ï_ÌÌ_È_ËÂÌÚ_202"/><linearGradient id="_ÂÁ_Ï_ÌÌ_È_ËÂÌÚ_202-12" x1="662.5" y1="-15.41" x2="606.39" y2="118.92" xlink:href="#_ÂÁ_Ï_ÌÌ_È_ËÂÌÚ_202"/><linearGradient id="_ÂÁ_Ï_ÌÌ_È_ËÂÌÚ_202-13" x1="215.84" y1="213.78" x2="159.72" y2="348.12" xlink:href="#_ÂÁ_Ï_ÌÌ_È_ËÂÌÚ_202"/><linearGradient id="_ÂÁ_Ï_ÌÌ_È_ËÂÌÚ_202-14" x1="195.1" y1="236.14" x2="138.99" y2="370.47" xlink:href="#_ÂÁ_Ï_ÌÌ_È_ËÂÌÚ_202"/><linearGradient id="_ÂÁ_Ï_ÌÌ_È_ËÂÌÚ_202-15" x1="238.76" y1="259.34" x2="182.65" y2="393.68" xlink:href="#_ÂÁ_Ï_ÌÌ_È_ËÂÌÚ_202"/><linearGradient id="_ÂÁ_Ï_ÌÌ_È_ËÂÌÚ_65" x1="670.82" y1="142.16" x2="417.5" y2="337.74" gradientUnits="userSpaceOnUse"><stop offset="0.18" stop-color="#c4aa9b"/><stop offset="0.98" stop-color="#fff"/></linearGradient><linearGradient id="_ÂÁ_Ï_ÌÌ_È_ËÂÌÚ_181" x1="557.9" y1="362.95" x2="557.9" y2="405.98" gradientUnits="userSpaceOnUse"><stop offset="0.16" stop-color="#c1cad6"/><stop offset="0.34" stop-color="#c7cfda"/><stop offset="0.59" stop-color="#d7dce4"/><stop offset="0.86" stop-color="#f1f3f6"/><stop offset="0.98" stop-color="#fff"/></linearGradient><linearGradient id="_ÂÁ_Ï_ÌÌ_È_ËÂÌÚ_181-2" x1="557.9" y1="334.75" x2="557.9" y2="377.78" xlink:href="#_ÂÁ_Ï_ÌÌ_È_ËÂÌÚ_181"/><linearGradient id="_ÂÁ_Ï_ÌÌ_È_ËÂÌÚ_169" x1="91.17" y1="256.65" x2="91.17" y2="556" gradientUnits="userSpaceOnUse"><stop offset="0.16" stop-color="#b9919f"/><stop offset="0.29" stop-color="#bd97a4"/><stop offset="0.46" stop-color="#c7a7b2"/><stop offset="0.65" stop-color="#d7c1c9"/><stop offset="0.85" stop-color="#efe5e9"/><stop offset="0.98" stop-color="#fff"/></linearGradient><linearGradient id="_ÂÁ_Ï_ÌÌ_È_ËÂÌÚ_169-2" x1="376.11" y1="-21.79" x2="314" y2="426.9" xlink:href="#_ÂÁ_Ï_ÌÌ_È_ËÂÌÚ_169"/><linearGradient id="_ÂÁ_Ï_ÌÌ_È_ËÂÌÚ_187" x1="102.17" y1="361.17" x2="102.17" y2="389.94" gradientUnits="userSpaceOnUse"><stop offset="0.16" stop-color="#a5acb9"/><stop offset="0.31" stop-color="#abb1bd"/><stop offset="0.5" stop-color="#bbc0ca"/><stop offset="0.71" stop-color="#d5d8de"/><stop offset="0.94" stop-color="#f9fafb"/><stop offset="0.98" stop-color="#fff"/></linearGradient></defs><g style="isolation:isolate"><g id="Calque_2" data-name="Calque 2"><g id="Calque_20" data-name="Calque 20"><g style="clip-path:url(#clip-path)"><rect x="56.3" width="608.9" height="409.96" style="fill:#ebccd6"/><polygon points="495.12 124.33 432.9 124.33 432.9 102.97 436.8 100.33 499.02 121.68 495.12 124.33" style="mix-blend-mode:multiply;fill:url(#_ÂÁ_Ï_ÌÌ_È_ËÂÌÚ_202)"/><rect x="436.8" y="100.33" width="62.22" height="21.35" style="fill:#f0d9e0"/><rect x="436.8" y="101.97" width="61.08" height="19.71" style="fill:#e8becf"/><polygon points="437.49 120.98 437.49 101.97 436.8 100.33 436.8 121.68 499.02 121.68 497.88 120.98 437.49 120.98" style="fill:#c59aae"/><polygon points="540.51 146.68 478.29 146.68 478.29 125.33 482.19 122.68 544.41 144.04 540.51 146.68" style="mix-blend-mode:multiply;fill:url(#_ÂÁ_Ï_ÌÌ_È_ËÂÌÚ_202-2)"/><rect x="482.19" y="122.68" width="62.22" height="21.36" style="fill:#f0d9e0"/><rect x="482.19" y="124.33" width="61.08" height="19.71" style="fill:#ebccd6"/><polygon points="482.88 143.33 482.88 124.33 482.19 122.68 482.19 144.04 544.41 144.04 543.27 143.33 482.88 143.33" style="fill:#c59aae"/><polygon points="507.45 169.89 445.23 169.89 445.23 148.53 449.13 145.89 511.35 167.24 507.45 169.89" style="mix-blend-mode:multiply;fill:url(#_ÂÁ_Ï_ÌÌ_È_ËÂÌÚ_202-3)"/><rect x="449.13" y="145.89" width="62.22" height="21.35" style="fill:#f0d9e0"/><rect x="449.13" y="147.53" width="61.08" height="19.71" style="fill:#ebccd6"/><polygon points="449.81 166.54 449.81 147.53 449.13 145.89 449.13 167.24 511.35 167.24 510.21 166.54 449.81 166.54" style="fill:#c59aae"/><polygon points="642.18 300.91 579.96 300.91 579.96 279.56 583.86 276.91 646.09 298.27 642.18 300.91" style="mix-blend-mode:multiply;fill:url(#_ÂÁ_Ï_ÌÌ_È_ËÂÌÚ_202-4)"/><rect x="583.86" y="276.91" width="62.22" height="21.36" style="fill:#f0d9e0"/><rect x="583.86" y="278.55" width="61.08" height="19.71" style="fill:#e8becf"/><polygon points="584.55 297.56 584.55 278.55 583.86 276.91 583.86 298.27 646.09 298.27 644.94 297.56 584.55 297.56" style="fill:#c59aae"/><polygon points="665.2 323.26 625.35 323.26 625.35 301.91 629.26 299.27 665.2 320.62 665.2 323.26" style="mix-blend-mode:multiply;fill:url(#_ÂÁ_Ï_ÌÌ_È_ËÂÌÚ_202-5)"/><rect x="629.26" y="299.27" width="35.94" height="21.36" style="fill:#f0d9e0"/><rect x="629.26" y="300.91" width="34.8" height="19.71" style="fill:#e8becf"/><polygon points="629.94 319.92 629.94 300.91 629.26 299.27 629.26 320.62 665.2 320.62 664.05 319.92 629.94 319.92" style="fill:#c59aae"/><polygon points="654.51 346.47 592.29 346.47 592.29 325.12 596.19 322.47 658.41 343.83 654.51 346.47" style="mix-blend-mode:multiply;fill:url(#_ÂÁ_Ï_ÌÌ_È_ËÂÌÚ_202-6)"/><rect x="596.19" y="322.47" width="62.22" height="21.36" style="fill:#f0d9e0"/><rect x="596.19" y="324.12" width="61.08" height="19.71" style="fill:#ebccd6"/><polygon points="596.88 343.12 596.88 324.12 596.19 322.47 596.19 343.83 658.41 343.83 657.27 343.12 596.88 343.12" style="fill:#c59aae"/><polygon points="122.81 34.46 60.59 34.46 60.59 13.1 64.49 10.46 126.71 31.81 122.81 34.46" style="mix-blend-mode:multiply;fill:url(#_ÂÁ_Ï_ÌÌ_È_ËÂÌÚ_202-7)"/><rect x="64.49" y="10.46" width="62.22" height="21.36" style="fill:#f0d9e0"/><rect x="64.49" y="12.1" width="61.08" height="19.71" style="fill:#e8becf"/><polygon points="65.17 31.11 65.17 12.1 64.49 10.46 64.49 31.81 126.71 31.81 125.57 31.11 65.17 31.11" style="fill:#c59aae"/><polygon points="168.2 56.81 105.98 56.81 105.98 35.46 109.88 32.81 172.1 54.17 168.2 56.81" style="mix-blend-mode:multiply;fill:url(#_ÂÁ_Ï_ÌÌ_È_ËÂÌÚ_202-8)"/><rect x="109.88" y="32.81" width="62.22" height="21.36" style="fill:#f0d9e0"/><rect x="109.88" y="34.46" width="61.08" height="19.71" style="fill:#ebccd6"/><polygon points="110.57 53.46 110.57 34.46 109.88 32.81 109.88 54.17 172.1 54.17 170.96 53.46 110.57 53.46" style="fill:#c59aae"/><polygon points="135.14 80.02 72.92 80.02 72.92 58.66 76.82 56.02 139.04 77.38 135.14 80.02" style="mix-blend-mode:multiply;fill:url(#_ÂÁ_Ï_ÌÌ_È_ËÂÌÚ_202-9)"/><rect x="76.82" y="56.02" width="62.22" height="21.36" style="fill:#f0d9e0"/><rect x="76.82" y="57.66" width="61.08" height="19.71" style="fill:#ebccd6"/><polygon points="77.5 76.67 77.5 57.66 76.82 56.02 76.82 77.38 139.04 77.38 137.9 76.67 77.5 76.67" style="fill:#c59aae"/><polygon points="635.72 30.06 573.5 30.06 573.5 8.7 577.4 6.06 639.62 27.41 635.72 30.06" style="mix-blend-mode:multiply;fill:url(#_ÂÁ_Ï_ÌÌ_È_ËÂÌÚ_202-10)"/><rect x="577.4" y="6.06" width="62.22" height="21.35" style="fill:#f0d9e0"/><rect x="577.4" y="7.7" width="61.08" height="19.71" style="fill:#e8becf"/><polygon points="578.09 26.71 578.09 7.7 577.4 6.06 577.4 27.42 639.62 27.42 638.48 26.71 578.09 26.71" style="fill:#c59aae"/><polygon points="614.99 52.41 552.76 52.41 552.76 31.06 556.67 28.42 618.89 49.77 614.99 52.41" style="mix-blend-mode:multiply;fill:url(#_ÂÁ_Ï_ÌÌ_È_ËÂÌÚ_202-11)"/><rect x="556.67" y="28.42" width="62.22" height="21.35" style="fill:#f0d9e0"/><rect x="556.67" y="30.06" width="61.08" height="19.71" style="fill:#ebccd6"/><polygon points="557.35 49.07 557.35 30.06 556.67 28.42 556.67 49.77 618.89 49.77 617.74 49.07 557.35 49.07" style="fill:#c59aae"/><polygon points="658.65 75.62 596.42 75.62 596.42 54.27 600.33 51.62 662.55 72.98 658.65 75.62" style="mix-blend-mode:multiply;fill:url(#_ÂÁ_Ï_ÌÌ_È_ËÂÌÚ_202-12)"/><rect x="600.33" y="51.62" width="62.22" height="21.36" style="fill:#f0d9e0"/><rect x="600.33" y="53.26" width="61.08" height="19.71" style="fill:#e8becf"/><polygon points="601.01 72.27 601.01 53.27 600.33 51.62 600.33 72.98 662.55 72.98 661.4 72.27 601.01 72.27" style="fill:#c59aae"/><polygon points="211.98 304.81 149.76 304.81 149.76 283.46 153.66 280.82 215.89 302.17 211.98 304.81" style="mix-blend-mode:multiply;fill:url(#_ÂÁ_Ï_ÌÌ_È_ËÂÌÚ_202-13)"/><rect x="153.66" y="280.82" width="62.22" height="21.35" style="fill:#f0d9e0"/><rect x="153.66" y="282.46" width="61.08" height="19.71" style="fill:#e8becf"/><polygon points="154.35 301.47 154.35 282.46 153.66 280.82 153.66 302.17 215.89 302.17 214.74 301.47 154.35 301.47" style="fill:#c59aae"/><polygon points="191.25 327.17 129.03 327.17 129.03 305.82 132.93 303.17 195.15 324.53 191.25 327.17" style="mix-blend-mode:multiply;fill:url(#_ÂÁ_Ï_ÌÌ_È_ËÂÌÚ_202-14)"/><rect x="132.93" y="303.17" width="62.22" height="21.36" style="fill:#f0d9e0"/><rect x="132.93" y="304.81" width="61.08" height="19.71" style="fill:#ebccd6"/><polygon points="133.62 323.82 133.62 304.81 132.93 303.17 132.93 324.53 195.15 324.53 194.01 323.82 133.62 323.82" style="fill:#c59aae"/><polygon points="234.91 350.38 172.69 350.38 172.69 329.02 176.59 326.38 238.81 347.73 234.91 350.38" style="mix-blend-mode:multiply;fill:url(#_ÂÁ_Ï_ÌÌ_È_ËÂÌÚ_202-15)"/><rect x="176.59" y="326.38" width="62.22" height="21.35" style="fill:#f0d9e0"/><rect x="176.59" y="328.02" width="61.08" height="19.71" style="fill:#e8becf"/><polygon points="177.28 347.03 177.28 328.02 176.59 326.38 176.59 347.73 238.81 347.73 237.67 347.03 177.28 347.03" style="fill:#c59aae"/><rect x="56.3" y="353.56" width="608.9" height="56.4" style="fill:#f18875"/><rect x="56.3" y="353.56" width="608.9" height="5.66" style="fill:#ffbda4"/><rect x="500.01" y="94.85" width="115.79" height="315.11" style="fill:#796164"/><rect x="507.05" y="105.11" width="101.7" height="248.46" style="fill:#e0a053"/><rect x="530.25" y="105.11" width="55.3" height="248.46" style="fill:#e7b67a"/><rect x="530.25" y="311.69" width="55.3" height="3.48" style="fill:#f3dbbd"/><rect x="530.25" y="118.78" width="55.3" height="192.91" style="fill:#528688"/><rect x="530.25" y="128.82" width="49.72" height="182.87" style="fill:#709f9c"/><rect x="500.01" y="92.83" width="115.79" height="2.02" style="fill:#ac9d9f"/><polygon points="507.05 105.11 507.05 114.19 597.35 114.15 597.35 353.56 608.75 353.56 608.75 105.11 507.05 105.11" style="mix-blend-mode:multiply;fill:url(#_ÂÁ_Ï_ÌÌ_È_ËÂÌÚ_65)"/><polygon points="579.97 148.6 579.97 277.79 561.5 311.69 530.25 311.69 530.25 231.96 579.97 148.6" style="fill:#2a5355;mix-blend-mode:screen"/><rect x="500.01" y="381.76" width="115.79" height="28.2" style="fill:#d5cdcd"/><rect x="500.01" y="381.76" width="115.79" height="12.4" style="mix-blend-mode:multiply;fill:url(#_ÂÁ_Ï_ÌÌ_È_ËÂÌÚ_181)"/><rect x="500.01" y="381.76" width="115.79" height="7.33" style="fill:#e9e5e5"/><rect x="500.01" y="353.56" width="115.79" height="28.2" style="fill:#c4b9b9"/><rect x="500.01" y="353.56" width="115.79" height="12.4" style="mix-blend-mode:multiply;fill:url(#_ÂÁ_Ï_ÌÌ_È_ËÂÌÚ_181-2)"/><rect x="500.01" y="353.56" width="115.79" height="7.33" style="fill:#d4caca"/><rect x="496.78" y="359.22" width="3.22" height="50.74" style="fill:#ffbda4"/><rect x="615.8" y="359.22" width="3.21" height="50.74" style="fill:#ef685b"/><path d="M90.25,364.15h25.81v17.67h-3.51l-4.71,23.89H56.3V248.4l21-21c18.28,0,48.73,27.17,48.73,46l-35.8,31.89Z" transform="translate(0 4.52)" style="mix-blend-mode:multiply;fill:url(#_ÂÁ_Ï_ÌÌ_È_ËÂÌÚ_169)"/><path d="M558.77,41.56c-42.35,0-70.11,26.59-70.11,26.59,0,3.36-15.56,36.05-37.28,80.07l-39.89-5.12-15.93,28.13c-5.46,10.85.3,80-5.12,90.76H175.78V171.28c1.8-2.53,2.85,2.13,2.85-1.93,0,12.62,9.92,9.46,22.16,9.46S223,182,223,169.35c0,12.62,9.93,9.46,22.17,9.46s22.16,3.16,22.16-9.46c0,12.62,9.92,9.46,22.16,9.46s22.17,3.16,22.17-9.46c0,12.62,9.92,9.46,22.16,9.46s22.16,3.16,22.16-9.46c0,12.62,9.92,9.46,22.16,9.46s22.17-2.33,22.17-15V146.48H175.78V135.27l-9.37,8.47v2.74H134.3L131.45,37.35,90,129.1v34.75c0,12.63,9.93,15,22.17,15s22.16,3.16,22.16-9.46c0,12.62,9.92,9.46,22.16,9.46a35.12,35.12,0,0,0,9.95-1.32v90.35H387.48c-37,73.2-70,137.6-70,137.6H464.93c13.23-19.5,164-326.15,164-337.29C628.89,68.15,601.13,41.56,558.77,41.56Z" transform="translate(0 4.52)" style="mix-blend-mode:multiply;fill:url(#_ÂÁ_Ï_ÌÌ_È_ËÂÌÚ_169-2)"/><rect x="411.49" y="147.62" width="60.48" height="105.53" style="fill:#eae8e2"/><rect x="411.49" y="147.62" width="1.77" height="105.53" style="fill:#a0b9a7"/><rect x="470.21" y="147.62" width="1.77" height="105.53" style="fill:#fcfcfb"/><rect x="411.49" y="251.11" width="60.48" height="2.04" style="fill:#a0b9a7"/><rect x="411.49" y="147.62" width="60.48" height="2.04" style="fill:#fcfcfb"/><rect x="418.54" y="154.18" width="46.4" height="92.42" style="fill:#353e44"/><rect x="418.54" y="159.84" width="41.64" height="86.75" style="fill:#464f54"/><rect x="418.54" y="244.55" width="46.4" height="2.04" style="fill:#fcfcfb"/><rect x="175.78" y="126.46" width="221.63" height="140.05" style="fill:#a86f36"/><rect x="177.62" y="126.46" width="217.94" height="137.59" style="fill:#c48e53"/><rect x="182.6" y="139.79" width="207.97" height="119.53" style="fill:#528688"/><rect x="182.61" y="147.62" width="201.08" height="111.71" style="fill:#709f9c"/><polygon points="326.7 157.63 267.01 259.32 192.35 259.32 252.04 157.63 326.7 157.63" style="fill:#2a5355;mix-blend-mode:screen"/><polygon points="390.57 157.63 390.57 173.89 339.73 259.32 302.53 259.32 362.22 157.63 390.57 157.63" style="fill:#2a5355;mix-blend-mode:screen"/><path d="M390.57,146.47V175.1c-4,2.59-9.36,3.71-15.32,3.71-12.23,0-22.17,3.18-22.17-9.47,0,6.34-2.49,2.77-6.5,5.53s-9.56,3.94-15.67,3.94c-12.23,0-22.14,3.18-22.14-9.47,0,6.34-2.48,2.77-6.5,5.53s-9.55,3.94-15.67,3.94c-12.23,0-22.17,3.18-22.17-9.47,0,12.65-9.94,9.47-22.17,9.47s-22.17,3.18-22.17-9.47c0,12.65-9.91,9.47-22.14,9.47-5.95,0-11.37-1.12-15.35-3.74v-28.6Z" transform="translate(0 4.52)" style="fill:#528688"/><rect x="182.61" y="256.86" width="207.96" height="2.46" style="fill:#d6b087"/><path d="M153.62,166.6h0c-12.25,0-22.17-10.23-22.17-22.86v-8.47h44.33v8.47C175.78,156.37,165.86,166.6,153.62,166.6Z" transform="translate(0 4.52)" style="fill:#ffa647"/><path d="M197.94,166.6h0c-12.24,0-22.16-10.23-22.16-22.86v-8.47H220.1v8.47C220.1,156.37,210.18,166.6,197.94,166.6Z" transform="translate(0 4.52)" style="fill:#ffdea9"/><path d="M242.27,166.6h0c-12.24,0-22.17-10.23-22.17-22.86v-8.47h44.33v8.47C264.43,156.37,254.51,166.6,242.27,166.6Z" transform="translate(0 4.52)" style="fill:#ffa647"/><path d="M286.59,166.6h0c-12.24,0-22.16-10.23-22.16-22.86v-8.47h44.33v8.47C308.76,156.37,298.83,166.6,286.59,166.6Z" transform="translate(0 4.52)" style="fill:#ffdea9"/><path d="M330.92,166.6h0c-12.24,0-22.16-10.23-22.16-22.86v-8.47h44.32v8.47C353.08,156.37,343.16,166.6,330.92,166.6Z" transform="translate(0 4.52)" style="fill:#ffa647"/><path d="M375.25,166.6h0c-12.24,0-22.17-10.23-22.17-22.86v-8.47h44.33v8.47C397.41,156.37,387.49,166.6,375.25,166.6Z" transform="translate(0 4.52)" style="fill:#ffdea9"/><path d="M419.57,166.6h0c-12.24,0-22.16-10.23-22.16-22.86v-8.47h44.33v8.47C441.74,156.37,431.81,166.6,419.57,166.6Z" transform="translate(0 4.52)" style="fill:#ffa647"/><rect x="131.45" y="41.87" width="44.33" height="97.92" style="fill:#ffdea9"/><rect x="175.78" y="41.87" width="44.33" height="97.92" style="fill:#fff"/><rect x="220.1" y="41.87" width="44.33" height="97.92" style="fill:#ffdea9"/><rect x="264.43" y="41.87" width="44.33" height="97.92" style="fill:#fff"/><rect x="308.76" y="41.87" width="44.33" height="97.92" style="fill:#ffdea9"/><rect x="353.08" y="41.87" width="44.33" height="97.92" style="fill:#fff"/><rect x="397.41" y="41.87" width="44.33" height="97.92" style="fill:#ffdea9"/><rect x="77.41" y="365.77" width="49.5" height="10.31" style="fill:#eaeaed"/><rect x="77.41" y="365.77" width="49.5" height="1.4" style="fill:#f4f4f7"/><rect x="77.41" y="374.68" width="49.5" height="1.4" style="fill:#babacd"/><path d="M123.41,371.56H80.93l4.53,25c.94,5.2,4.53,8.87,8.67,8.87h16.08c4.13,0,7.72-3.67,8.66-8.87Z" transform="translate(0 4.52)" style="fill:#e0e0e3"/><path d="M118.87,395.17c-.94,5.2-4.53,8.87-8.66,8.87H94.13c-4.14,0-7.73-3.67-8.67-8.87l-4.28-23.61h-.25l4.53,25c.94,5.2,4.53,8.87,8.67,8.87h16.08c4.13,0,7.72-3.67,8.66-8.87l4.54-25h-.26Z" transform="translate(0 4.52)" style="fill:#ccccda"/><polygon points="82.67 385.69 121.66 385.69 123.41 376.08 80.92 376.08 82.67 385.69" style="mix-blend-mode:multiply;fill:url(#_ÂÁ_Ï_ÌÌ_È_ËÂÌÚ_187)"/><rect x="99.89" y="248.12" width="4.56" height="117.64" style="fill:#b97933"/><path d="M135.21,249.89c0,18.82-14.79,34.08-33,34.08s-33-15.26-33-34.08,14.8-34.08,33.05-34.08S135.21,231.06,135.21,249.89Z" transform="translate(0 4.52)" style="fill:#a7bb2a"/><path d="M135.21,245.42c0,16.36-13.6,29.62-30.38,29.62s-30.37-13.26-30.37-29.62,13.6-29.61,30.37-29.61S135.21,229.07,135.21,245.42Z" transform="translate(0 4.52)" style="fill:#bfd438"/><path d="M126.3,242.34c-3.09,6.36-12.49,8-21,3.59s-12.92-13.11-9.83-19.48,12.48-8,21-3.59S129.38,236,126.3,242.34Z" transform="translate(0 4.52)" style="fill:#c6e54b"/><path d="M628.89,68.15c-37.7-42-101.84-35.74-140.23,0L492.35,72c36.37-33.86,97.13-39.77,132.84,0Z" transform="translate(0 4.52)" style="fill:#796164"/><polygon points="300.31 293.08 209.17 293.08 211.24 281.97 298.24 281.97 300.31 293.08" style="fill:#e7b67a"/><rect x="403.21" y="274.12" width="61.72" height="110.19" style="fill:#eae8e2"/><rect x="403.21" y="274.12" width="61.72" height="1.95" style="fill:#fcfcfb"/><rect x="407.35" y="279.95" width="53.44" height="98.53" style="fill:#2e2c38"/><rect x="407.35" y="285.61" width="48.65" height="92.87" style="fill:#3b3944"/><rect x="407.35" y="376.53" width="53.44" height="1.95" style="fill:#fcfcfb"/><rect x="403.21" y="383.33" width="61.72" height="1.95" style="fill:#a59c82"/><rect x="397.31" y="267.84" width="5.9" height="137.6" transform="translate(800.52 677.81) rotate(180)" style="fill:#ccc7b8"/><rect x="397.31" y="267.84" width="1.35" height="137.6" transform="translate(795.97 677.81) rotate(180)" style="fill:#afa78f"/><rect x="464.93" y="267.84" width="5.9" height="137.6" transform="translate(935.77 677.81) rotate(180)" style="fill:#ccc7b8"/><rect x="464.93" y="267.84" width="1.35" height="137.6" transform="translate(931.22 677.81) rotate(180)" style="fill:#afa78f"/><rect x="397.31" y="267.85" width="5.9" height="1.75" transform="translate(800.52 541.97) rotate(180)" style="fill:#eae8e2"/><rect x="464.94" y="267.85" width="5.9" height="1.75" transform="translate(935.78 541.97) rotate(180)" style="fill:#eae8e2"/><rect x="420.46" y="291.66" width="24.59" height="4" style="fill:#fcfcfb"/><rect x="411.49" y="306.95" width="35.74" height="2.66" style="fill:#fcfcfb"/><rect x="411.49" y="313.3" width="25.52" height="1.9" style="fill:#c9c9b7"/><rect x="411.49" y="325.93" width="35.74" height="2.66" style="fill:#fcfcfb"/><rect x="411.49" y="332.28" width="25.52" height="1.9" style="fill:#c9c9b7"/><rect x="411.49" y="344.91" width="35.74" height="2.66" style="fill:#fcfcfb"/><rect x="411.49" y="351.26" width="25.52" height="1.9" style="fill:#c9c9b7"/><path d="M403.31,406.9h-14.2V355.35h0v-3.72h.16a9.1,9.1,0,0,0,1-.39l.19-.08a12,12,0,0,0,2-1.15l0,0c12.54-9,11.48-42.42,11.48-42.42h0c-2.39-.77-8.34.4-12.31,1.33C387.78,297.3,374.13,274,366,264.41a7.3,7.3,0,0,0-2.85-3.47,6.28,6.28,0,0,0-4.16-.88l-8.59-12.38c1.91-4.53,2.2-12.38.6-15.59s-3.58-5.92-8.47-6.22c-2.21-.13-5.56-1.84-9.66.41-4.33,2.37-.88,6.95-.88,6.95a3.42,3.42,0,0,1-1.41-1.41s.1,3,2.08,3.87a3.82,3.82,0,0,0,2.17.22,5.89,5.89,0,0,0-.68,2.11c-.73,5.8,1.58,19.9,6.21,19.4a10.89,10.89,0,0,0,4.06-1.25v0h0l1.16,5v0l.66,2.79a9.56,9.56,0,0,1,.14,1l-.92.47h0c-3.53,1.54-15.38,16-15.38,16l1.12,1c-3.08,3.61-9.45,11-9.45,9.91,0-1.37-4.48-12-4.48-12l1.83-3.67.18,0h.15a.44.44,0,0,0,.16-.06h0l.75-.57a.41.41,0,0,0,.14-.39L319.27,264a.81.81,0,0,0-.66-.68l-5.1-.8a.4.4,0,0,0-.41.13l-.62.47a.41.41,0,0,0-.21.43l.71,6.73-.3.12h0a24.29,24.29,0,0,0-2.44,1.2s-1.4,4.49,0,5.89c1.19,1.18,3,2.39,3.56,3.73,0,.07.05.14.08.22a2.26,2.26,0,0,1,.08.51c0,1.19-.54,12.72,1,19.28-1.79-.11-3.66-.21-4.82-.21-.86,0-1.1.69-1.05,1.56a4.06,4.06,0,0,0,4.15,3.75h-41c.17-5.31.38-9.8,1-11.63,1.25-3.46,1.9-3.43,2.09-8,0,0,16.25,17.69,19.56,17.69,3.09,0,3.61-2.51,3.69-5.9h0V287c0-7.13-5.68-21.59-5.68-21.59h0c-.05-4.59-.39-8.18-1-8.84a10.42,10.42,0,0,0-4.22-2.78l-1.89-3.91-.17.12c-.05-.06-.19-.08-.39-.06a10.19,10.19,0,0,0-3.88,2c-2.16,1.59-3.09,2.91-3.14,3.38l-.22.16,5.3,5.84a.42.42,0,0,0-.46.37c-.11.41.88.85,2,1.31l2.54,2.8.19-.17c0,.38.1.86.18,1.41s.22,5.11.49,10.29A74.78,74.78,0,0,0,279.52,267a16.56,16.56,0,0,0-12.92-4.61c-.14-.93-.25-1.88-.33-2.8h0c-.13-1.45-.18-2.79-.21-3.8,1.85.83,3.84.89,4.91-.59,2-2.76,2.82-16.85,2.07-18.8.12-.12,10.45-10.3-4.28-9,0,0-3.71-2.9-11.56,0s-6.62,9.77-5.93,14.18c.73,4.64-6.33,6.22-8.84,8.85-8.79,9.22-12.21,23.72-10.05,36.08a15.18,15.18,0,0,0,14,12.3l-.1,4.21q-1.58-.24-3.06-.42h-.08c-11.84-1.39-19.51.28-19.51.28s1.7,40.48,16.32,51.44h0V406.9h-45.8l-.32-.21L185.68,401a38.12,38.12,0,0,1-3.76-4.35,34.19,34.19,0,0,0,1.38-4.16,25.8,25.8,0,0,0-1.78-4l-1.3-53,.39-36h1l.42-22.61a17,17,0,0,0,4.89.59c1.44-.29,4.61-.15,4.61-.73s2.45-4.32,2.45-4.32l.87-.86a12.43,12.43,0,0,0,.57-3.31c-.14-.87-3.74-.43-3.74-.43s-3.6-2.74-4.32-2.74-4.32,3.06-5.76,4.27l.21-11.79c5.5,2.76,15.87,7.92,16.92,8.24a6.13,6.13,0,0,0,4.61-.58c.87-.72,9.51-33.55,9.22-35.28-.09-.53-.78-.94-1.72-1.25l1.14-4.36-.75-.12,1-4.06s12.53-4.61,13-4.61S230,210,230.13,209c.08-.62-.47-.48-.92-.28a9.29,9.29,0,0,0-2.06-.24c-.31,0-1.06,1-1.84,2.11.51-1,.94-1.83,1.13-2.17h20.39l3.46-2.3H228.61V186.26a11.29,11.29,0,0,0-.69-3.9l-2.35-6.43a10.34,10.34,0,0,1-.61-3.06l-.05-1.3h0s0-.06,0-.09l-.05-1.2-.32-7.41h0l0-.87h-4.05l-.41,9.48s0,.06,0,.09h0l-.05,1.3a10.34,10.34,0,0,1-.61,3.06L217,182.36a11.29,11.29,0,0,0-.69,3.9v19.81h-3.19v-.54h-4.38V194a5.13,5.13,0,0,0,4.48-5.07l-1-9.33H204l-1,9.33a5.13,5.13,0,0,0,4.48,5.07v11.5H203v.54H189.37l2.88,2.3H221.2c-.56,0-2.44,3.43-3.24,4.92l-1.37,0-1.44-.58s3.46-3.17,3.31-3.89-2.45-.14-2.45-.14a46,46,0,0,1-3.6,3.31,31.75,31.75,0,0,1-3.88,1.44c-.87.29-2,1.87-2.45,2.88-.37.85-.52,5.55-.57,7l-.73-.12L203.35,228c-.85.19-1.72.52-1.88,1.1s-2.41,6.1-4.38,10.92c-2.25.06-4.69.12-7.15.16-3.1-5.05-7.45-12.12-8.2-13.53-1.15-2.16-7.49-3.89-7.49-3.89h0a30.56,30.56,0,0,0-4.95-2.09v-.13L167.2,218l2.88-7.86c1.54-.87,2.66-1.54,2.55-3-.15-1.88-4.9-15.72-6.63-19a8,8,0,0,0-2.28-2.73.81.81,0,0,0,.21-.24c.53-1-.73-4.89-4.65-6.8s-8.75.42-12.39,3.47a5.52,5.52,0,0,0-1.1-4.35.33.33,0,0,0-.44,0l-.35.27a.33.33,0,0,1-.47-.06.35.35,0,0,1-.07-.26.32.32,0,0,0-.28-.37.37.37,0,0,0-.23.05c-.93.61-3,1.34-7.24.27-6-1.52-10.67-1-12.51,2.8a.34.34,0,0,1-.45.15.32.32,0,0,1-.14-.12c-.29-.43-.65-.4-1.78.37-1.54,1.61-2.71,3.31-1.25,7.53a.34.34,0,0,1-.15.45l-.09,0c-.78.11-1.22.77-.36,2.94a10.35,10.35,0,0,0,2.23,2.24c0,.12,0,.24.07.38a5,5,0,0,0,1.58,2.91h0L119,211.35c-.48-.06-.93-.11-1.32-.13a4.64,4.64,0,0,0-3.27,1.05,35.58,35.58,0,0,0-5.12,5h0l-.1.14c-.46.57-.89,1.14-1.28,1.7s-.69.93-1.09,1.47a2.31,2.31,0,0,1,.3-1.83c1-1.75,5.9-3.51,4.31-8.3s-5.91-5.58-5.75-8.29,4.29-3.89,1-8.3c-3.56-4.71-7.09-5-9.27-5.84-3.52-1.39-8.6,0-8.6,0-3.61.82-11.17,5.2-13.24,10.63s3,7.18,3,10.05-6.38,5.1-5,8.45,6.7,4,6.23,5.11-4.31,2.87-1.44,5.43l.06,0a13,13,0,0,0-2.91,4.65A79.66,79.66,0,0,0,73,240.69c-1.11,3.86-1.15,8-2.49,11.78a8.94,8.94,0,0,0-.7,3.38.73.73,0,0,0-.19.07,1,1,0,0,0-.35.48c-.81,1.84-2.36,2.36-2.09,4.35a86.19,86.19,0,0,1-15.62-1.42l-.07-.07c-.35-.24-.79-.35-1.16-.58a9.07,9.07,0,0,1-1.62-1.81,4.11,4.11,0,0,0-3.17-1.32c-.29,0-1.4,0-1.49-.29s0-.45.14-.67H65.92v-.93h-7c-.42-2.43-4-19.14-22.13-19.45.35-1.5.51-3.24-.64-3.24s-1,1.74-.64,3.24c-19.37.5-22.18,19.4-22.18,19.4l6.16,0H6.64v.93H32.07s0,.06,0,.09c3.23.77,1.66.86,4.28,2.9.36.27,5.34,1.93,5.73,2.15a10.47,10.47,0,0,0,2.39.79,34.57,34.57,0,0,1,5.31,2c.54.28,1.09.55,1.61.77h0a18.69,18.69,0,0,0,1.95.75c6.21,1.86,9,3.32,15.43,3.89a6.09,6.09,0,0,0,5.45-2.71,14.43,14.43,0,0,0,1-1.59h0a2.92,2.92,0,0,0,2-3.34,20.52,20.52,0,0,0,1.81-3.85c.28-.78.54-1.58.78-2.38a13.32,13.32,0,0,1,.73,1.4,6.21,6.21,0,0,1,.58,2.51c0,.08,0,.16,0,.24a164.71,164.71,0,0,0-5.43,16.81,7.82,7.82,0,0,0,.9.78c-.09.55-.17,1.09-.22,1.62l-.16.2a4.82,4.82,0,0,0-1.72,2.48,17.59,17.59,0,0,0-.87,5.46s0,.08,0,.12a.53.53,0,0,1,0,.12l0,.17a11.52,11.52,0,0,0,.59,2c-1.07,4.82-1,10.43-1,15.21a112.84,112.84,0,0,0,2.4,22.2,32.12,32.12,0,0,1,.6,10c-.47,3.5-2.49,5.84-3.46,9.1-.47,1.61.72,3,2.91,4a90.5,90.5,0,0,0-.22,11.76c.41,9,1.92,17.94,2.78,26.92a2.18,2.18,0,0,0,.31,1c-.09.31-.17.59-.24.81a42,42,0,0,0-1.69,7.25c0-.39,0-.79.08-1.18a10.55,10.55,0,0,0-1.14,5.88c.06,1.83.11,4.05.95,5.71a2,2,0,0,0,.14.25H62.18c-.39,0-.71.56-.71,1.25s.32,1.25.71,1.25H403.31c.39,0,.71-.56.71-1.26S403.7,406.9,403.31,406.9ZM223.5,208.37H224a24.67,24.67,0,0,0-2.14,5l-.95,0A54,54,0,0,0,223.5,208.37ZM37,254.59h.14a1.77,1.77,0,0,0,.21.32Zm3.49,1.9-1.86-1.39q-.34-.27-.72-.51h4.38c-.35.65,1.66,1.52,1.77,2.27A11.06,11.06,0,0,0,40.44,256.49Zm346.91,98.86V406.9H360.3c1.92-1.48,10.35-12.53,10.35-13.91s-6.84-5.05-6.84-5.05l-.05.05-.76-1.5,1.27-.57-.75-1.32c2.4-3.2,4.41-6.17,4.41-6.89,0-1.64-7.8-5.76-7.8-5.76s-.27.31-.74.76l-.94-.77,1.9-1.52s-3.07-2.12-7.05-5.06c-1.74-3.5-3.37-7-4.62-10Zm-75.9,39.53c.19,1.34.41,2.87.64,4.35a18.77,18.77,0,0,1-4.09-2.48,17.45,17.45,0,0,1-2.79-5.17c.52-.07,1-.11,1.23-.12-.09-.58-.59-4.87-1.34-10.62,3,7.73,5.52,14.15,5.52,14.15Zm-24.33-35.82V406.9H274.67V359.06Zm1.76,0h0v-4.74h.17l6.14,38.89c.66,0,2.07-.29,3.69-.57.29,2.11.67,4.67,1.05,6.73l-.31-.05c0,.55-1.3,4-.27,4.33,1.58.52,7.21.56,12.36.37-.2,1-.27,1.94.26,2.11,3.07,1,21.57.23,21.85-.63v1.4H288.88Zm57.8,20.85c1.91,2.4,3.65,4.51,5.05,6.17a13.44,13.44,0,0,1-2.13,2.84c-.87.87-2.06,1.88-2.92,2.83Zm-10-13.59c2.67,4,5.55,7.91,8.21,11.35V406.9h-8.21Zm10,28.34c2.23.57,7.48,0,9.19-.92a2.08,2.08,0,0,0,.31-.25c.25,1.31,1.24,3,1.24,3.91,0,1.5-1.28,3.87-2.85,5.44s-6,2.9-5,3.9a2.6,2.6,0,0,0,.86.16h-3.78Zm3.65-147,0,0h0Zm-.79-9.54c-.11-.39-.22-.77-.35-1.12A1.89,1.89,0,0,1,349.54,238.11Zm-8,50.55c-2.67,4.91-5.16,9.36-5.81,10-.79.8-4.82,1.53-8.7,2a162,162,0,0,0,12.34-11.26l.89.76C340.72,289.7,341.14,289.17,341.57,288.66Zm9.88,9.35c4.23,7.17,9.28,14.91,12.28,19.43a12.76,12.76,0,0,0,2.78,3l-.48.29s-14.9,2.73-29.32,6.59V310.52h14.56a4.18,4.18,0,0,0-4.18-4.18H345C346.56,305.94,349,302.27,351.45,298Zm-17.63,12.51V328.1c-11.86,3.32-22.66,7.34-23.6,11.13-1.18,4.81,11.8,15.9,23.6,24.83v41.39c-.14-.93-7.11-4.94-8.57-3.47h0a21.53,21.53,0,0,1-4.65-2.76,17.58,17.58,0,0,1-2.79-5.17l2.36-.3s-9.59-45.24-11.68-50.54c-2.3-5.86-6.95-10-12.12-13-3.13-6-10-12.33-24.23-19v-.11c0-.2,0-.39,0-.58Zm-92.15,48.54H266V406.9H241.67ZM138,210a1.35,1.35,0,0,0,1.58-.9,58.37,58.37,0,0,0,1.89-8.84,1.33,1.33,0,0,0-.75-1.37c.24-1.72.51-3.7.77-5.65a17.15,17.15,0,0,1,.57,1.95,18.67,18.67,0,0,0,2.16,4.9,19.93,19.93,0,0,0,.76,2.16,2.82,2.82,0,0,0-2.64.29c-1.15,1-.57,3.75,2.45,5.77a4.44,4.44,0,0,0,3,.91l.37,4.12,0,.2h0l.36,4-.74-.48-2.11,3.45-1.51.73c-1.69-2.25-4-4-7.62-5.94l.08.21a9.7,9.7,0,0,0-.55-1.23h0c0-.21-.39-.58-2.72-.7v1.15h0l0-.06v-.81l.1-5.09C135.27,209.38,137,209.8,138,210ZM105.6,259.16a14.88,14.88,0,0,1,.93-3.8h0c.15-.4.31-.8.47-1.2a1.69,1.69,0,0,0,.32-.25c.12.32.25.64.37,1s.18.46.26.69c0,3.8-.09,7.36-.2,10.58l-.75.57A19.54,19.54,0,0,1,105.6,259.16Zm36.91-72.33-.19.36c0-.12,0-.23,0-.35l0-.08h0l0-.19.31-.07ZM104.67,406.65c.84-1.66.89-3.88,1-5.71a10.47,10.47,0,0,0-1.15-5.88c0,.14,0,.27,0,.41a42.81,42.81,0,0,0-1.06-5.81c-.11-.42-.24-1.1-.42-1.74a2.41,2.41,0,0,0,.25-.81c1.16-8.34,2.88-16.61,3.76-25,3.56-6.38,7.61-14.68,11.63-23.4.43,5.48.82,10.59,1.13,14.84,0,.37.2.78.23,1.14s0,.74.08,1.1a240.47,240.47,0,0,0,8,43.16l.11,0a1.48,1.48,0,0,0-.15.31c-.61,1.69-.17,6.94-.11,7.61H104.53Zm41.9-2.62c-1.56-.3-5-2-7.53-3.47l-.15-.87c0-.35-.1-.65-.14-.88l-.09-.52a36.82,36.82,0,0,0,2-4c.2-.8-1-4.95-1-4.95l19-72.84s8.12,45.53,10.09,56c1.28,6.75,3.33,19.93,4.64,28.48l.85,5.66v0l0,.18H148.7A2.4,2.4,0,0,0,146.57,404Zm47.55-156.78s-.43-.86-1-1.87c-.14-.25-.83-1.37-1.81-2.95l.28-.19.06,0h4.55C195,245.06,194.12,247.25,194.12,247.25ZM84.56,405.73a8.59,8.59,0,0,0,.71-3.78c2.61,2.73,5,5.08,5.39,4.94.91-.33,2.41-1.2,1.08-3.13s-3.47-9.33-3.36-10.19a2.86,2.86,0,0,0,0-.78l.95.52s2.15-3.59,7.92-13.77c.26,2.4.53,4.79.74,7.2a2.29,2.29,0,0,0,0,.65c0,.57.08,1.14.12,1.71a27.94,27.94,0,0,0-1,5.57c0,.4,0,.8,0,1.22s0,1,0,1.53c0-.14-.09-.28-.14-.41-1,2.4-1.48,6.12-.26,8.72a6,6,0,0,0,.75,1.17H83.81A5.54,5.54,0,0,0,84.56,405.73ZM267.8,406.9V359.06h1.44V406.9Zm4.34-47.84h.77V406.9h-.77Z" transform="translate(0 4.52)" style="fill:#222a42;opacity:0.2"/></g><g id="illu-home-2"><g id="Calque_2-2" data-name="Calque 2"><g id="Calque_137" data-name="Calque 137"><path id="Tracé_519" data-name="Tracé 519" d="M396.67,407.55H55.53c-.39,0-.71-.56-.71-1.25h0c0-.68.32-1.25.71-1.25H396.67c.39,0,.71.56.71,1.25h0C397.38,407,397.06,407.55,396.67,407.55Z" transform="translate(0 4.52)" style="fill:#2e3552"/><rect id="Rectangle_45" data-name="Rectangle 45" x="262.6" y="311.85" width="2.89" height="97.72" style="fill:#222750"/><path id="Tracé_520" data-name="Tracé 520" d="M349.45,368.16s7.25,5.89,8.38,7-8.38,10.12-8.38,10.12,1-9.14,0-10.12-6.5-1.66-6.5-1.66Z" transform="translate(0 4.52)" style="fill:#eda785"/><path id="Tracé_521" data-name="Tracé 521" d="M353.49,370.1s7.8,4.13,7.8,5.77-10.67,15.25-12.07,16c-2,1.11-8.92,1.68-10.06.52s2-3.55,3.8-5.34,3.24-4.48,3.24-6.2-3.34-6.33,0-6.33S353.49,370.1,353.49,370.1Z" transform="translate(0 4.52)" style="fill:#282828"/><path id="Tracé_522" data-name="Tracé 522" d="M355.11,382.17l2.26,4.47a10.4,10.4,0,0,0,4.82,4.7h0L357,399.86s-7.4,4.91-10.2,3.78,6-5.3,6-5.3L349,386.17Z" transform="translate(0 4.52)" style="fill:#eda785"/><path id="Tracé_523" data-name="Tracé 523" d="M303.57,269.77s-1.4,4.48,0,5.88,3.72,2.83,3.72,4.46-1,22.72,3.79,23.77,22.1-16.72,22.1-16.72l-7-8.57s-11.09,13.22-11.09,11.85-4.47-12-4.47-12l2.2-4.41s1.37-5.22-1.24-6.34S303.57,269.77,303.57,269.77Z" transform="translate(0 4.52)" style="fill:#db8f72"/><path id="Tracé_524" data-name="Tracé 524" d="M311.05,299.58c-3.4-1.88-3.44-15.6-3.76-19.41,0,2-1,22.68,3.79,23.7s22.1-16.71,22.1-16.71l-3.24-4C325.52,288.48,314.26,301.36,311.05,299.58Z" transform="translate(0 4.52)" style="fill:#db8f72"/><path id="Tracé_525" data-name="Tracé 525" d="M307.06,279.2a2.5,2.5,0,0,1,.19.52C307.2,279.32,307.14,279.13,307.06,279.2Z" transform="translate(0 4.52)" style="fill:#ff5921"/><path id="Tracé_526" data-name="Tracé 526" d="M343.88,262.94s-1.56-.92-5.08.6-15.4,16-15.4,16l10.25,8.81a121,121,0,0,0,9.45-12.71C347.78,268.39,343.88,262.94,343.88,262.94Z" transform="translate(0 4.52)" style="fill:#ff5b51"/><path id="Tracé_527" data-name="Tracé 527" d="M362.26,317.14l-2.87,1.73s-53.67,9.84-55.81,18.51,41.83,37.8,41.83,37.8l8.3-6.61s-27.94-19.26-24.79-22.41,40.29-10.23,40.29-10.23Z" transform="translate(0 4.52)" style="fill:#222750"/><path id="Tracé_528" data-name="Tracé 528" d="M291.72,386.75s1.72,14.41,2.66,14.41h19.49s-10.55-4.29-12.51-6.25-4-8.7-4-8.7Z" transform="translate(0 4.52)" style="fill:#eda785"/><path id="Tracé_529" data-name="Tracé 529" d="M293,397.47s11.54,1.66,13,.18,8.57,2.63,8.57,3.5-18.77,1.66-21.86.66C291.68,401.47,293,398,293,397.47Z" transform="translate(0 4.52)" style="fill:#282828"/><path id="Tracé_530" data-name="Tracé 530" d="M259.4,252.12s-.13,8.24,1.57,12.54-11.49,3.93-11.49,3.93l1.62-25.13Z" transform="translate(0 4.52)" style="fill:#eda785"/><path id="Tracé_531" data-name="Tracé 531" d="M259.4,252.12l-4-4.21a16.35,16.35,0,0,0,.28,5.8,8.61,8.61,0,0,0,4,4.06C259.36,254.73,259.4,252.12,259.4,252.12Z" transform="translate(0 4.52)" style="fill:#db8f72"/><path id="Tracé_532" data-name="Tracé 532" d="M271.41,253.61l9.36,10.32,4.25-3.88-5.81-12Z" transform="translate(0 4.52)" style="fill:#fff"/><path id="Tracé_533" data-name="Tracé 533" d="M272.05,253.66c-.21,0-.36,0-.4-.06-.2-.28.68-1.74,3.11-3.53a10.26,10.26,0,0,1,3.88-2c.21,0,.36,0,.4.06.2.28-.68,1.74-3.11,3.53A10.33,10.33,0,0,1,272.05,253.66Z" transform="translate(0 4.52)" style="fill:#d3d3d3"/><path id="Tracé_534" data-name="Tracé 534" d="M269.87,267.35s11.62,13,12.78,12.36-2-15.89-1.72-16.9-4.94-2.07-4.68-3,1.19.34,3.46-.94.48-7.24,1.17-7a10.47,10.47,0,0,1,4.44,2.87c1.95,2,1.14,31.16-2.39,33.15s-18.52-15.71-18.52-15.71Z" transform="translate(0 4.52)" style="fill:#eda785"/><path id="Tracé_535" data-name="Tracé 535" d="M281.15,265.13s.77,18.24,1.39,23.5,9.5,8.06,9.5,8.06V285.12c0-7.13-5.68-21.58-5.68-21.58Z" transform="translate(0 4.52)" style="fill:#eda785"/><path id="Tracé_536" data-name="Tracé 536" d="M344.62,308.67h-114a4.17,4.17,0,0,1,4.17-4.17H340.44a4.18,4.18,0,0,1,4.18,4.17Z" transform="translate(0 4.52)" style="fill:#ef8978"/><path id="Tracé_537" data-name="Tracé 537" d="M381.24,308s12.43-3.5,16.13-2.29l-4.9,14.53-14.76-2.53Z" transform="translate(0 4.52)" style="fill:#c42751"/><path id="Tracé_538" data-name="Tracé 538" d="M262.26,230.52s3.37,2.13,4.13,4.06-.07,16-2.07,18.8-7.16.21-8.68-2.83S257.3,227.56,262.26,230.52Z" transform="translate(0 4.52)" style="fill:#eda785"/><path id="Tracé_539" data-name="Tracé 539" d="M282.85,277.17a74.93,74.93,0,0,0-10-12,16.6,16.6,0,0,0-15.2-4.26c-1.29.28-2.67.58-4.08.86a16.68,16.68,0,0,0-13.41,15.93l-1,38.36a16.56,16.56,0,0,0,16.05,17.08,15.66,15.66,0,0,0,2.47-.11,7.59,7.59,0,0,0,4.39-1.72c4.55-4.54,2.62-33.07,4.54-38.44,1.24-3.47,1.9-3.44,2.09-8,0,0,16.25,17.69,19.55,17.69,3.72,0,3.72-3.62,3.72-8S290.89,289.26,282.85,277.17Z" transform="translate(0 4.52)" style="fill:#9eb5fe"/><path id="Tracé_540" data-name="Tracé 540" d="M257.68,260.91c-1.29.28-2.67.58-4.08.86a16.69,16.69,0,0,0-13.41,15.93l-.56,22.15a11.48,11.48,0,0,0,4,.35c9.76-.91,19.58-9.84,20.05-19.17.37-7.39-2-14.43-3.78-20.47A16.54,16.54,0,0,0,257.68,260.91Z" transform="translate(0 4.52)" style="fill:#7c8cb5"/><rect id="Rectangle_46" data-name="Rectangle 46" x="259.4" y="356.99" width="1.75" height="52.78" style="fill:#222750"/><rect id="Rectangle_47" data-name="Rectangle 47" x="233.27" y="356.99" width="1.75" height="52.78" style="fill:#222750"/><rect id="Rectangle_48" data-name="Rectangle 48" x="266.27" y="356.99" width="1.75" height="52.78" style="fill:#222750"/><rect id="Rectangle_49" data-name="Rectangle 49" x="327.18" y="313.19" width="2.89" height="96.62" style="fill:#222750"/><path id="Tracé_541" data-name="Tracé 541" d="M369.19,318.77s-25.43,7.17-44.62,14.4,24,55,24,55l9.09-4.13s-20.8-36.43-17.6-39.63,34.73-11.39,34.73-11.39Z" transform="translate(0 4.52)" style="fill:#323b6b"/><path id="Tracé_542" data-name="Tracé 542" d="M304.32,389.22S306,403.63,307,403.63h19.5s-10.56-4.29-12.52-6.25-4-8.7-4-8.7Z" transform="translate(0 4.52)" style="fill:#eda785"/><path id="Tracé_543" data-name="Tracé 543" d="M291.19,343.2c-3.72-3.72-31.79-18.62-31.79-18.62l-20.55,6.2s.93,8,4.54,11.56,39,10.13,39,10.13l6.14,38.89c1.83-.14,9.44-1.7,11.26-1.75C299.51,387.71,294.9,346.92,291.19,343.2Z" transform="translate(0 4.52)" style="fill:#222750"/><path id="Tracé_544" data-name="Tracé 544" d="M267.15,321.49s27.83,2.38,34.7,19.87c2.09,5.3,11.68,50.54,11.68,50.54L304,393.14s-13.44-33.65-14.36-39.64-26.35-8.92-31.51-9.95-14.47-13.32-14.47-13.32Z" transform="translate(0 4.52)" style="fill:#323b6b"/><path id="Tracé_545" data-name="Tracé 545" d="M217,301s1.69,40.48,16.32,51.44H282.4s9.69-4.75,9.69-14.05-4.64-19.42-29.92-30.58S217,301,217,301Z" transform="translate(0 4.52)" style="fill:#e7345a"/><path id="Tracé_546" data-name="Tracé 546" d="M262.17,307.84a90,90,0,0,0-25.73-7.09c5.22,1.32,14.24,3.34,20.28,6.36C282,319.76,287.24,329,287.24,339.57c0,9.37-4.85,11.35-7.67,12.89h2.83s9.69-4.75,9.69-14S287.45,319,262.17,307.84Z" transform="translate(0 4.52)" style="fill:#fff"/><rect id="Rectangle_50" data-name="Rectangle 50" x="280.48" y="358.03" width="1.75" height="51.74" style="fill:#222750"/><rect id="Rectangle_51" data-name="Rectangle 51" x="233.27" y="356.99" width="48.97" height="4.75" style="fill:#222750"/><rect id="Rectangle_52" data-name="Rectangle 52" x="338.28" y="355.59" width="1.76" height="54.18" style="fill:#222750"/><rect id="Rectangle_53" data-name="Rectangle 53" x="380.71" y="355.94" width="1.75" height="53.82" style="fill:#222750"/><rect id="Rectangle_54" data-name="Rectangle 54" x="338.28" y="354.3" width="44.19" height="3.73" style="fill:#222750"/><path id="Tracé_547" data-name="Tracé 547" d="M262.12,225.56s-3.72-2.89-11.57,0-6.61,9.77-5.92,14.18c.72,4.64-6.33,6.22-8.84,8.85-8.8,9.22-12.21,23.72-10,36.08a15.19,15.19,0,0,0,16.6,12.25c9.77-.91,16.56-10.37,17-19.7.69-14-4.27-23-.14-30s2.76-10.74,4.14-12.12a2.63,2.63,0,0,1,3-.48S276.93,224.28,262.12,225.56Z" transform="translate(0 4.52)" style="fill:#233862"/><path id="Tracé_548" data-name="Tracé 548" d="M338.79,263.54s-2.17,9.95-1.34,17.24c.64,5.71,13.89,26.16,19.63,34.81a12.79,12.79,0,0,0,7.1,5.2l19.26,5.54,3.58,2.52a92.39,92.39,0,0,0-1-17.9c-1.52-11.3-26.3-52.61-31.95-52.61S338.79,263.54,338.79,263.54Z" transform="translate(0 4.52)" style="fill:#ff7768"/><path id="Tracé_549" data-name="Tracé 549" d="M341.05,268.75h.16c9.24-.78,12.48-9.24,12.62-9.6l.21-.57-.14-.23c-5.67.12-15.11,5.2-15.11,5.2s-.08.39-.21,1.09C338.8,266.65,339.24,268.75,341.05,268.75Z" transform="translate(0 4.52)" style="fill:#fff8f3"/><path id="Tracé_550" data-name="Tracé 550" d="M359.52,263.09l-6-1s-7.65,19.5-11.42,29.28c1.23,2.22,2.61,4.6,4.06,7a11.56,11.56,0,0,1,2.12-3.8c2-2,4.33-.91,5.23-1.83s8.7-12.82,8.7-20.2S359.52,263.09,359.52,263.09Z" transform="translate(0 4.52)" style="fill:#ff5b51;isolation:isolate;opacity:0.699999988079071"/><path id="Tracé_551" data-name="Tracé 551" d="M351.91,282.06s-9.84,21.78-13.63,22.47c-4.18.75-25.73,0-25.73,0H306.6a4.06,4.06,0,0,1-4.15-3.74c-.05-.88.18-1.57,1-1.57,2.42,0,7.94.46,9.32.46s14.8-1.3,16.31-2.82,13.39-24.29,13.39-24.29Z" transform="translate(0 4.52)" style="fill:#eda785"/><path id="Tracé_552" data-name="Tracé 552" d="M347.23,291.69c2.61-5,4.68-9.62,4.68-9.62l-9.4-9.5s-3.17,6.07-6.44,12.15C338.92,287.17,343.38,290.59,347.23,291.69Z" transform="translate(0 4.52)" style="fill:#db8f72"/><path id="Tracé_553" data-name="Tracé 553" d="M338.28,348.12s4.81-10.18,17.5-20.66,41.59-21.76,41.59-21.76,1.23,39-14.74,44.07H338.28Z" transform="translate(0 4.52)" style="fill:#e7345a"/><path id="Tracé_554" data-name="Tracé 554" d="M381.06,344.83H340.17a31.63,31.63,0,0,0-1.89,3.3v1.65h44.34c12.51-4,14.46-28.78,14.72-39.33C394.94,325.91,390.23,341.05,381.06,344.83Z" transform="translate(0 4.52)" style="fill:#c42751"/><path id="Tracé_555" data-name="Tracé 555" d="M341.58,242.76l11.05,15.93s-3,8-11.53,8.77c-1.31.11-1.23-4.08-1.53-5.35l-2.52-10.67Z" transform="translate(0 4.52)" style="fill:#eda785"/><path id="Tracé_556" data-name="Tracé 556" d="M343.14,244.65l-5.41,9.7,1.17,5a40.09,40.09,0,0,0,4.81-13.51Z" transform="translate(0 4.52)" style="fill:#db8f72"/><path id="Tracé_557" data-name="Tracé 557" d="M339,233.68s4.18,7.35,4.18,11-2.09,10.12-9.48,10.92c-4.62.5-6.93-13.6-6.2-19.4S336.13,229.72,339,233.68Z" transform="translate(0 4.52)" style="fill:#eda785"/><path id="Tracé_558" data-name="Tracé 558" d="M330.32,248.83s-.08,1,2.05,1.42c0,0,1.89.14,2.05-.8A18.9,18.9,0,0,1,330.32,248.83Z" transform="translate(0 4.52)" style="fill:#fff"/><path id="Tracé_559" data-name="Tracé 559" d="M337.84,236.91l2-2.66s1.7-1.43,2.45.31,1.38,4.93.82,5.68a9.56,9.56,0,0,1-2.05,1.7l-3.25-4.63Z" transform="translate(0 4.52)" style="fill:#eda785"/><path id="Tracé_560" data-name="Tracé 560" d="M345.4,262.94c-3.08,4.57-7.27,16.57-7.95,17.84-1.74,3.25,10.09,8.5,12.3,8s8.65-14,10-19c1-3.59.13-8.57-3.3-10.67C352.52,256.67,347.92,259.21,345.4,262.94Z" transform="translate(0 4.52)" style="fill:#ff7768"/><path id="Tracé_561" data-name="Tracé 561" d="M338.28,348.12c3.39-9.69,12.24-19.28,20.66-25.35,9.12-6.64,27.16-14.3,38.42-17.06-25.77,14.38-38,18.14-53.3,35.19A72.81,72.81,0,0,0,338.28,348.12Z" transform="translate(0 4.52)" style="fill:#fff"/><path id="Tracé_562" data-name="Tracé 562" d="M343.71,245.83s-2.35-4.06-1.56-6c.69-1.64,1.56-5.62-.74-4.94-1.44.43-1.41,2.31-2,1.64s-1.19-2.93-5.45-3.14-6,1.29-8,.42-2.09-3.88-2.09-3.88a3.39,3.39,0,0,0,1.42,1.41s-3.45-4.58.87-6.95c4.1-2.25,7.46-.54,9.67-.41,4.89.3,6.87,3,8.47,6.22S345.61,241.3,343.71,245.83Z" transform="translate(0 4.52)" style="fill:#282c3a"/><path id="Tracé_563" data-name="Tracé 563" d="M312,261.47l-5.1-.81a.47.47,0,0,0-.42.13h0l-.64.49,1.9,12.75,4.9.78.34-.06.76-.58h0a.42.42,0,0,0,.14-.38l-1.22-11.65A.8.8,0,0,0,312,261.47Z" transform="translate(0 4.52)" style="fill:#050505"/><path id="Tracé_564" data-name="Tracé 564" d="M312.6,274.8l-5.1-.81a.81.81,0,0,1-.65-.66l-1.22-11.64a.43.43,0,0,1,.35-.49h.17l5.1.81a.8.8,0,0,1,.64.66l1.23,11.65a.43.43,0,0,1-.36.48.42.42,0,0,1-.16,0Z" transform="translate(0 4.52)" style="fill:#33302f"/><path id="Tracé_565" data-name="Tracé 565" d="M307.61,262.59l-1.2-.22a.46.46,0,0,1-.35-.38h0a.25.25,0,0,1,.21-.27h.09l1.2.22a.44.44,0,0,1,.34.38h0a.24.24,0,0,1-.2.27h-.09Z" transform="translate(0 4.52)" style="fill:#fff"/><path id="Tracé_566" data-name="Tracé 566" d="M303.57,269.77s7-1.16,8.19,0-5.63,2.09-5.63,2.09Z" transform="translate(0 4.52)" style="fill:#db8f72"/><path id="Tracé_567" data-name="Tracé 567" d="M304.92,273.66s5.67-.46,5.8-1.66-5.22-.44-5.22-.44Z" transform="translate(0 4.52)" style="fill:#db8f72"/><path id="Tracé_568" data-name="Tracé 568" d="M306.15,269.52s3.49.44,4.58-.83c.7-.81-4.72-.14-4.72-.14Z" transform="translate(0 4.52)" style="fill:#db8f72"/><path id="Tracé_569" data-name="Tracé 569" d="M357.17,386.09s6.84,3.62,6.84,5.06-9.28,13.53-10.59,14.05c-.52.21-10.11,0-10.47-.31-1-1,3.41-2.34,5-3.9s2.84-3.94,2.84-5.44-2.92-5.55,0-5.55S357.17,386.09,357.17,386.09Z" transform="translate(0 4.52)" style="fill:#282828"/><path id="Tracé_570" data-name="Tracé 570" d="M305.59,400s11.53,1.65,13,.17,8.59,2.63,8.59,3.5-18.77,1.66-21.86.66C304.27,403.94,305.59,400.49,305.59,400Z" transform="translate(0 4.52)" style="fill:#282828"/></g></g></g><path d="M198.86,221.93s.14-6.48.57-7.49,1.59-2.59,2.45-2.88a28.41,28.41,0,0,0,3.89-1.44,46,46,0,0,0,3.6-3.31s2.3-.57,2.45.15-3.31,3.88-3.31,3.88l1.44.58,7.63.14L222,207.1s1.59-1,1.44,0-4.46,6.62-4.89,6.62-13,4.61-13,4.61L204.19,224Z" transform="translate(0 4.52)" style="fill:#eda785"/><path d="M212.54,215.45s3-.86,3.45-1.58,3.6-7.06,3.89-7.49-1.58-.14-2.3,0-2.74,6.34-2.74,6.34l-3.17,1Z" transform="translate(0 4.52)" style="fill:#eda785"/><path d="M213.63,214.35s3.14-.19,3.71-.8,5-6.11,5.42-6.47-1.52-.48-2.25-.5-4,5.6-4,5.6l-3.31.3Z" transform="translate(0 4.52)" style="fill:#eda785"/><path d="M201.45,218s-.14-2.88,1.73-4.32,7.77-1.58,7.77-1.58,2.88-5.62,3.6-5.62,2.45-.72,2.31,0-1.87,3.6-2.59,5-1,3.32-1.73,3.89-4.9,1.59-4.9,1.59" transform="translate(0 4.52)" style="fill:#eda785"/><polygon points="196.55 231.21 198.14 225.88 205.34 227.03 203.61 233.65 196.55 231.21" style="fill:#fff"/><path d="M167.61,220.92s6.33,1.73,7.49,3.89,10.8,17.71,11.37,18.72,1,1.87,1,1.87,7.06-17.13,7.35-18.14,2.73-1.3,3.45-1.3,7.35.44,7.63,2.16-8.35,34.57-9.21,35.29a6.14,6.14,0,0,1-4.61.57c-1.44-.43-20.31-9.93-20.31-9.93Z" transform="translate(0 4.52)" style="fill:#fff"/><path d="M132.41,277.29l-5.14,60.36L124.1,390.1s-1.78,2.18-1.58,3.17S123.7,397,123.7,397s-3,8.51-2.17,9.1a19.83,19.83,0,0,0,2.37,1.39H132s1.58-1.58,1.38-2.77-1.38-8.31-1.38-8.31a36.82,36.82,0,0,0,2-4c.19-.79-1-5-1-5l19-72.83s8.11,45.52,10.09,56S168,407.24,168,407.24h4.16l.59-1.78s.2-.39,2.18.79a6.54,6.54,0,0,0,3.76,1h10.29s.79-1,.2-1.18-8.71-5.68-10.1-6.87a39.22,39.22,0,0,1-3.76-4.35,33.44,33.44,0,0,0,1.39-4.16,25.8,25.8,0,0,0-1.78-4l-1.3-53,.59-55Z" transform="translate(0 4.52)" style="fill:#222a42"/><path d="M139.05,218.72l-12.51,6,6.06,38.92L132,279.07s10.38,5.69,22.11,5.32a57.53,57.53,0,0,0,20.64-4.57l.61-33.73s-1.23-16.43-2.71-19.15-2.23-4-4.33-5.56-8.52-3.46-8.52-3.46-11.62-1-12-1S139.05,218.72,139.05,218.72Z" transform="translate(0 4.52)" style="fill:#2e3552"/><polygon points="152.68 237.45 160.03 250.73 161.75 235.04 156.57 227.51 152.74 236.16 152.68 237.45" style="fill:#fff"/><polygon points="157.09 230.15 161.51 236.1 162.66 223.24 159.98 219.97 157.09 230.15" style="fill:#fff"/><polygon points="140.97 209.99 141.93 220.55 157.09 230.15 163.62 212.29 140.97 209.99" style="fill:#eda785"/><path d="M141.54,211.73a16.37,16.37,0,0,0,7.1,1.33c5.29-.23,11.39-2.58,14.48-3.92l.5-1.37L141,205.47Z" transform="translate(0 4.52)" style="fill:#db8f72"/><polygon points="157.09 230.15 152.68 237.45 139.05 223.24 141.16 219.78 157.09 230.15" style="fill:#fff"/><path d="M160.8,251a1.24,1.24,0,0,1-.86,1.1.63.63,0,0,1-.86-.61,1.21,1.21,0,0,1,.86-1.1A.63.63,0,0,1,160.8,251Zm-.86,8.55a1.23,1.23,0,0,0-.86,1.1.62.62,0,0,0,.86.61,1.22,1.22,0,0,0,.86-1.09A.63.63,0,0,0,159.94,259.56Zm0,9.17a1.21,1.21,0,0,0-.86,1.1.63.63,0,0,0,.86.61,1.24,1.24,0,0,0,.86-1.1A.63.63,0,0,0,159.94,268.73Zm0,9.16a1.23,1.23,0,0,0-.86,1.1.62.62,0,0,0,.86.61,1.22,1.22,0,0,0,.86-1.1A.63.63,0,0,0,159.94,277.89Z" transform="translate(0 4.52)" style="fill:#fff"/><path d="M174.38,268s5.61-4.75,6.33-4.75S185,266,185,266s3.6-.43,3.75.43a12.76,12.76,0,0,1-.58,3.31l-.86.87s-2.45,3.74-2.45,4.32-3.17.43-4.61.72-5.47-.72-5.47-.72Z" transform="translate(0 4.52)" style="fill:#eda785"/><polygon points="168.9 272.1 175.53 272.25 175.67 279.16 170.2 279.31 168.9 272.1" style="fill:#fff"/><path d="M138.38,238.33a11.33,11.33,0,0,0-4.36-8.86,50.45,50.45,0,0,0-6.16-4.37c-1.73-.72-2.59-.43-5,1.3s-3.31,5.32-3.17,11.23,4.32,37,4.76,38.3,1.72,1.59,2.88,1.73,40.84-1.21,41.61-1.29c2.74-.29,3.19-4,3-5.76-.29-3.17-3-4.18-7.2-4.61s-24.63-2.88-25.35-3a9.1,9.1,0,0,1-1.44-.43s.43-16.85.43-21.46C138.37,240.06,138.38,239.15,138.38,238.33Z" transform="translate(0 4.52)" style="fill:#fff"/><polygon points="240.19 211.04 185.61 211.04 182.73 208.74 243.64 208.74 240.19 211.04" style="fill:#8c8c8c"/><polygon points="146.07 267.96 146.27 302.2 174.97 302.2 175.53 272.25 146.07 267.96" style="fill:#f2f2f2"/><path d="M154.74,182.43a7.33,7.33,0,0,1,4.61,3.89c1.73,3.31,6.49,17.15,6.63,19s-1.87,2.45-4.18,3.89-9.8,2.59-14,1.15-5-3.75-5-3.75-1.58,1.88-4.61-.14-3.6-4.76-2.45-5.77,3-.14,3-.14-3.17-7.78-2.89-10.52.44-5.48,5.05-7.36S154.74,182.43,154.74,182.43Z" transform="translate(0 4.52)" style="fill:#eda785"/><path d="M160.87,200.2s.48,2.14-3.81,3.47c0,0-3.82.82-4.42-1.07A38.74,38.74,0,0,0,160.87,200.2Z" transform="translate(0 4.52)" style="fill:#fff"/><path d="M137.58,198.28s.87,3,1.45,3.18,3,.57,2.88-.87-2.42-4.39-2.13-6.12,2.72-3.09,2.64-5c-.06-1.24-1.89-1.81-1.45-2.53s6.36-4.84,9.88-4.39c2.57.33,5.75,2,6.44.78.53-1-.73-4.89-4.65-6.8-5.88-2.87-14.29,4-16.78,8.44s-.7,6.63-.44,8.39A19,19,0,0,0,137.58,198.28Z" transform="translate(0 4.52)" style="fill:#232428"/><polygon points="157.09 230.15 155.7 232.46 157.61 232.77 158.65 232.25 157.09 230.15" style="fill:#c1c0bf"/><path d="M157.15,228.25l-4.72-1a1.14,1.14,0,0,0-1.36,1.33l.73,3.69a1.14,1.14,0,0,0,1.81.68l3.68-2.81a1.13,1.13,0,0,1,1.16-.14l3.79,1.72a1.14,1.14,0,0,0,1.6-1.22l-.58-3.61a1.14,1.14,0,0,0-1.69-.81L158,228.12A1.17,1.17,0,0,1,157.15,228.25Z" transform="translate(0 4.52)" style="fill:#111110"/><path d="M123.7,397l8.32-.59,1.55,9.32L132,407.52H123.9l-2.37-1.39S120.81,404.57,123.7,397Z" transform="translate(0 4.52)" style="fill:#1c1a17"/><path d="M189.13,406.06l-2.06-1.2h.1L179,399.19s-5.72-2.85-9.34-1.51a25.77,25.77,0,0,0-3,1.43l.87,5.75.36,2.38h4.16s2-1.38,2.77-1a23.66,23.66,0,0,0,2.6,1h11.45l.6,0A.94.94,0,0,0,189.13,406.06Z" transform="translate(0 4.52)" style="fill:#1c1a17"/><path d="M90.72,186.21c2.18.87,5.71,1.13,9.27,5.84,3.33,4.41-.8,5.59-1,8.3s4.15,3.51,5.74,8.3-3.35,6.54-4.31,8.29,0,2.55,1.28,4.31-.48,7.18-7.34,8.46-19.78-1.28-22.65-3.83,1-4.31,1.43-5.43-4.78-1.75-6.22-5.1,5-5.59,5-8.46-5.11-4.63-3-10,9.64-9.81,13.24-10.63C82.11,186.21,87.2,184.82,90.72,186.21Z" transform="translate(0 4.52)" style="fill:#2b2825"/><path d="M111.72,261.73a6.08,6.08,0,0,1-2.58,5.51,102.93,102.93,0,0,1-18,8.87,3.3,3.3,0,0,1-3.83-1.6c-.49-1.23.93-2.33,2.11-2.94a86.47,86.47,0,0,0,13.92-9,2.28,2.28,0,0,0,.86-1c.2-.69-.27-1.38-.37-2.09-.24-1.77,1.76-2.94,3.44-3.58,1.9-.74,2.72-1.58,3.39.52A18.4,18.4,0,0,1,111.72,261.73Z" transform="translate(0 4.52)" style="fill:#eda785"/><path d="M67.6,263.42a6.07,6.07,0,0,1-5.44,2.72c-6.47-.58-9.22-2-15.43-3.89-1.32-.4-6.56-2.59-6.16-3.91s2.17-1.26,3.48-1a86.21,86.21,0,0,0,16.5,1.57,2.27,2.27,0,0,0,1.32-.28c.59-.42.64-1.25,1-1.87.91-1.54,3.2-1.21,4.91-.68,1.95.6,3.12.45,2.35,2.52A18.84,18.84,0,0,1,67.6,263.42Z" transform="translate(0 4.52)" style="fill:#eda785"/><path d="M77.68,392.94a21.54,21.54,0,0,0-.94-6.84c-.44-1.16-1.07-1.78-2-1.08.13-.1-1.13-1.17-1.55-1-.73.31-1.16,2.26-1.44,3.11a41.68,41.68,0,0,0-1.73,7.57,34.6,34.6,0,0,0-.48,4.28,2.94,2.94,0,0,0,.41,2.35,1.25,1.25,0,0,0,.54.4,1.52,1.52,0,0,0,2.19,1.06,1.29,1.29,0,0,0,1.17.38,2.18,2.18,0,0,0,1.14-.76,1.22,1.22,0,0,0,.94.22,1.8,1.8,0,0,0,1.2-1.14,11.16,11.16,0,0,0,.44-4.11C77.63,395.89,77.69,394.41,77.68,392.94Z" transform="translate(0 4.52)" style="fill:#eda785"/><path d="M98.09,396.92c0-.31,0-.63,0-.93a44.29,44.29,0,0,0-1.29-8.18c-.22-.88-.53-2.88-1.23-3.28-.41-.23-1.73.68-1.61.79-.85-.81-1.51-.28-2,.82a24,24,0,0,0-1.38,6.68c0,.4,0,.81,0,1.22a26.06,26.06,0,0,0,.07,3.18c.06,1.1,0,2.19,0,3.29a2.68,2.68,0,0,0,.65,2.05,1.1,1.1,0,0,0,1.38.05,1.38,1.38,0,0,0,1.18.75,1.33,1.33,0,0,0,1-.29,2.17,2.17,0,0,0,1.11-.49,2.46,2.46,0,0,0,1.1-1.11c.73-.17,1.12-1.06,1.21-2A9.49,9.49,0,0,0,98.09,396.92Z" transform="translate(0 4.52)" style="fill:#eda785"/><path d="M99.73,331.31c0-.7.12-1.38.21-2.07-1.07-.14-2.14-.31-3.2-.49-1.58-.27-3.15-.58-4.73-.85l-1.2-.19-.31,0-.32,0-1.09-.12-.79-.07c.16,7.26.37,14.51.67,21.76.25,6.17.56,12.32.58,18.51a40.11,40.11,0,0,0,.67,6.48c.36,3.57.8,7.13,1.11,10.71a2.25,2.25,0,0,0,.06.65c.06.84.13,1.68.18,2.52a2,2,0,0,0,2.12,1.74,2.26,2.26,0,0,0,2-2c.08-.38.15-.77.22-1.16a2.24,2.24,0,0,0,.68-1.36c1.24-9,3.14-17.85,4-26.86a89.31,89.31,0,0,0,.19-14C100.48,340.09,99.45,335.69,99.73,331.31Z" transform="translate(0 4.52)" style="fill:#eda785"/><path d="M80.22,326.75a80.18,80.18,0,0,1-9.94-1.38,35.9,35.9,0,0,1,.68,5.95c.1,4.4-1.13,8.79-1.61,13.15a90.53,90.53,0,0,0-.42,14c.42,9,1.93,17.94,2.78,26.93a2.17,2.17,0,0,0,.62,1.37c.06.39.11.78.17,1.16a2.16,2.16,0,0,0,2,2,2.08,2.08,0,0,0,2.2-1.73c.08-.84.18-1.68.29-2.51A2.69,2.69,0,0,0,77,385c.47-3.59,1.06-7.15,1.57-10.72a41.69,41.69,0,0,0,1-6.48c.29-6.19.87-12.34,1.39-18.52.62-7.45,1.15-14.91,1.64-22.37Z" transform="translate(0 4.52)" style="fill:#eda785"/><path d="M83.43,218.55a9.1,9.1,0,0,1,.13,1.17c0,.31,0,.62-.07.93h0s3,5.63,9.05.38c0-.33-.39-3-.43-3.36s0-.43,0-.64a2,2,0,0,0-.27-1.11,1.29,1.29,0,0,0,0-.19l-3.42.78-2.58.59-2.35.54A2.12,2.12,0,0,0,83.43,218.55Z" transform="translate(0 4.52)" style="fill:#db8f72"/><path d="M77.12,196.73a5.09,5.09,0,0,1,1.58-1.13c1.29-.61,3.35-.1,4.71-.39,2.31-.51,5.56-1.58,7.52.23s1.52,4.38,1.9,6.73c.08.49.19,1,.31,1.46l.06-.07a2.63,2.63,0,0,1,1.82-.78,1.33,1.33,0,0,1,1.31.91,5.18,5.18,0,0,1-1.85,4.84l0,0a9.44,9.44,0,0,1,.1,2.44c-.27,2.92-2.08,5-4,7.11a5.88,5.88,0,0,1-6.35,1.67c-2.52-.65-3.79-2.48-4.84-4.73A21.24,21.24,0,0,1,77,207.48C76.77,204.14,74.64,199.43,77.12,196.73Z" transform="translate(0 4.52)" style="fill:#eda785"/><path d="M105.43,308.74c.33-3.29,1-31.45-3.06-28.67-.06-.14-.12-.27-.19-.4-.49-1-1-2-1.49-3l-.16-.33c-.28-.6-1.12-3.56-1.65-3.79a5.55,5.55,0,0,0-1.76-.44,1.55,1.55,0,0,0-.48,0,30.91,30.91,0,0,0-4.49.45c-4.19.55-8.45.11-12.66.58a14.25,14.25,0,0,0-2.87.51,2,2,0,0,0-3.5.45,3.37,3.37,0,0,1-.15.48c-1.29,3.59-3.78,6.37-4.85,10-1.52,5.14-1.36,11.52-1.41,16.85a112.83,112.83,0,0,0,2.39,22.2,31.54,31.54,0,0,1,.6,10c-.47,3.5-2.49,5.84-3.45,9.1-2.2,7.47,31.15,9.23,34.83,3.93a8.07,8.07,0,0,0,1.06-4.7c-.07-5.33-.62-11.22.18-16.74s2.55-10.83,3.11-16.39Z" transform="translate(0 4.52)" style="fill:#222a42"/><path d="M100.56,251.78c.16.41.33.82.49,1.24a45.53,45.53,0,0,1,2.35,7.74c.09.4,2.65.2,4.26-.07a10.09,10.09,0,0,0,1.56-.35,3,3,0,0,0,1.89-3.7c-.51-1.79-1.14-3.58-1.49-5.37a103.35,103.35,0,0,1-1.18-12.17c-.28-3.83-.76-8.17-3-11.41-2.51-3.62-7-3.57-10.77-4.91l-.12,0c-.06-.66-13.24.07-13.37.71a17,17,0,0,0-6.8.92c-2.91,1-4.35,3.48-5.46,6.2a79.1,79.1,0,0,0-2.53,8.28c-1.11,3.86-1.15,8-2.5,11.77-.62,1.76-1.12,3.51-.18,5.25A24.49,24.49,0,0,0,67,259.92a1.94,1.94,0,0,0,3-.39,18.37,18.37,0,0,0,2.52-4.88c.28-.78.53-1.58.78-2.38Z" transform="translate(0 4.52)" style="fill:#fff"/><path d="M90.09,403.88c-1.23-2.59-.73-6.32.26-8.72.64,1.7.76,3.9,2.85,4.52a3.58,3.58,0,0,0,4.26-2,5.41,5.41,0,0,0,.48-2.35c0-.7,0-1.41-.11-2.1A10.57,10.57,0,0,1,99,399.09c-.06,1.83-.11,4.06-1,5.72-1.28,2.53-4.45,2.55-6.52.9A5.15,5.15,0,0,1,90.09,403.88Z" transform="translate(0 4.52)" style="fill:#1c1a17"/><path d="M77.92,403.88c1.22-2.59.73-6.32-.26-8.72-.65,1.7-.76,3.9-2.85,4.52a3.6,3.6,0,0,1-4.27-2,5.55,5.55,0,0,1-.47-2.35,20.94,20.94,0,0,1,.11-2.1A10.4,10.4,0,0,0,69,399.09c0,1.83.1,4.06.94,5.72,1.29,2.53,4.46,2.55,6.53.9A5.27,5.27,0,0,0,77.92,403.88Z" transform="translate(0 4.52)" style="fill:#1c1a17"/><polygon points="94.65 227.3 92.35 224.02 87.76 227.14 88.82 231.78 94.65 227.3" style="fill:#c1c0bf"/><polygon points="88.06 227.3 86.29 231.99 82.11 227.66 83.49 225.17 88.06 227.3" style="fill:#c1c0bf"/><path d="M96.43,254s2.14-1.08,4.13-2.24c-.23.58-.46,1.15-.67,1.74A13.1,13.1,0,0,1,96.43,254Z" transform="translate(0 4.52)" style="fill:#262262"/><polygon points="87.76 227.14 92.35 224.02 94.65 227.3 88.94 231.31 87.76 227.14" style="fill:#fff"/><polygon points="87.76 227.14 86.18 231.31 82.11 227.66 83.49 225.17 87.76 227.14" style="fill:#fff"/><path d="M72.7,264.15c.73-2.61,1.91-5.22,1.88-8a6.38,6.38,0,0,0-.57-2.51,15.52,15.52,0,0,0-.73-1.4c-1.31-1.79-2.41-3.41-2.27-5.71a14.55,14.55,0,0,1,1.86-6.23c1-1.82,2.49-3.41,3.06-5.46a30.4,30.4,0,0,0,.54-11.21c.61-.09.91-.08,1.16-.13a10.79,10.79,0,0,1,1.16-.18c.31,2.21,5.13,11.69,8.47,14.43,1.68-1.24,10.3-12.18,10.58-14.25,0,0,2.21-.05,2.62.82a1.69,1.69,0,0,1,0,1.11c-.6,2.52-1.81,4.91-2,7.5-.26,4.16,2.29,7,3.71,10.93a8.78,8.78,0,0,1,.3,4.28c-.28,1-1.35,2.71-1.67,3.66a1,1,0,0,1-.48.49c-.16.39-.32.79-.46,1.19a14.57,14.57,0,0,0-.93,3.8c-.29,3.45,1.34,7.23,2.47,10.72.23.73.45,1.45.62,2.14.57,2.34,2.21,6.29,1.62,8.66-.7,2.77-3.38,4-5.88,4.84-7.06,2.25-14.72.24-21.64-1.56-2.24-.58-4.77-1.19-6.06-3.31-.08-.14-.16-.28-.23-.43a2.11,2.11,0,0,1-.13-.84C69.68,273.24,71.55,268.23,72.7,264.15Z" transform="translate(0 4.52)" style="fill:#2e3552"/><path d="M70.58,258.08A4.19,4.19,0,0,0,68.47,256a11.29,11.29,0,0,0-4.86-2,1,1,0,0,0-.62.1,1,1,0,0,0-.35.49c-.81,1.83-2.37,2.35-2.09,4.34.07.53,7.6,2.75,8.1,2.94A2.92,2.92,0,0,0,70.58,258.08Z" transform="translate(0 4.52)" style="fill:#fff"/><path d="M108.43,259.71a5.32,5.32,0,0,0,3.15-2.61,5.31,5.31,0,0,1,1.2,3.89,12.59,12.59,0,0,1-1.09,4c-1.68-1.75-4.3-2.17-6.73-2.29-1.37-.08-3.28-.94-1.38-2C104.78,260.09,107,260.28,108.43,259.71Z" transform="translate(0 4.52)" style="fill:#fff"/><path d="M86.13,240.79a1.07,1.07,0,1,0,1.07-1.07A1.07,1.07,0,0,0,86.13,240.79Z" transform="translate(0 4.52)" style="fill:#fff"/><path d="M86.13,246.51a1.07,1.07,0,1,0,1.07-1.07A1.07,1.07,0,0,0,86.13,246.51Z" transform="translate(0 4.52)" style="fill:#fff"/><path d="M86.13,252.23a1.07,1.07,0,1,0,1.07-1.07A1.07,1.07,0,0,0,86.13,252.23Z" transform="translate(0 4.52)" style="fill:#fff"/><path d="M86.13,258a1.07,1.07,0,1,0,1.07-1.07A1.07,1.07,0,0,0,86.13,258Z" transform="translate(0 4.52)" style="fill:#fff"/><path d="M86.13,263.67a1.07,1.07,0,1,0,1.07-1.07A1.07,1.07,0,0,0,86.13,263.67Z" transform="translate(0 4.52)" style="fill:#fff"/><path d="M29.51,234.49s2-5.37,0-5.37S29.51,234.49,29.51,234.49Z" transform="translate(0 4.52)" style="fill:#bcbec0"/><path d="M52.32,252.11s-2.61-19.77-22.68-19.77S6.69,251.76,6.69,251.76Z" transform="translate(0 4.52)" style="fill:#d1d3d4"/><path d="M25.39,234.49s-11.29,4.1-11.29,7.72S25.39,234.49,25.39,234.49Z" transform="translate(0 4.52)" style="fill:#f1f2f2"/><path d="M29.69,252.27a2.56,2.56,0,0,1,.59.45l1,.94a2.56,2.56,0,0,1-1.07-1.33,4.37,4.37,0,0,1,1.69.92l2.18,1.64a12.86,12.86,0,0,1-2.7.06,4.29,4.29,0,0,1-1.52-.84c-.63-.47-1.23-1-1.83-1.47-.16-.14-.34-.36-.22-.54S29.49,252.17,29.69,252.27Z" transform="translate(0 4.52)" style="fill:#db8f72"/><path d="M37.84,258.67a9.86,9.86,0,0,1-2.39-.79c-.39-.21-5.38-1.88-5.73-2.15-2.63-2-1-2.13-4.28-2.9a.83.83,0,0,1,.63-1,2.36,2.36,0,0,1,1.33.15c.88.27,2.75,2.06,3.63,2.33,2.44.74,3.9,0,6.33.72-.11-.85-2.68-1.85-1.5-2.5.58-.08,1.15,0,1.74-.11.07.45-.32.57-.18,1,.09.28,1.2.29,1.49.28A4.14,4.14,0,0,1,42.08,255a9.07,9.07,0,0,0,1.62,1.81c.37.23.8.34,1.16.58a2.38,2.38,0,0,1,.76,2.59c-.26.9-.08,1-.84,1.49A42.23,42.23,0,0,0,37.84,258.67Z" transform="translate(0 4.52)" style="fill:#eda785"/><rect y="251.81" width="59.27" height="0.94" transform="translate(59.27 509.08) rotate(180)" style="fill:#131d1e"/><path d="M82.6,214.42s.14,1.63,3.48,1.61c0,0,2.89-.29,2.89-1.76A28.32,28.32,0,0,1,82.6,214.42Z" transform="translate(0 4.52)" style="fill:#fff"/></g></g></g></svg>