<svg xmlns="http://www.w3.org/2000/svg" width="1233.58" height="874.77" viewBox="0 0 1233.58 874.77"><g id="Calque_2" data-name="Calque 2"><g id="Calque_194" data-name="Calque 194"><g style="opacity:0.5"><path d="M1070.45,542.41c-18.67-51.74-48.08-67.49-76-100.68-34.16-40.53-57.2-70-48.33-122.13,14.49-85.2,20.69-297.67-206.23-269.9-81.34,10-145.62,71.91-192.37,133.75-39.79,52.61-111.36,57.25-169,69.52-70.78,15.07-142.88,37.84-208.37,71.2C35.27,392.88-5,491.64.49,618c1.66,38.18,7.09,98.32,72,168.69,87.59,95,214.86,107.7,368,64.08,35.07-10,68.21-25.65,102.7-37.44a487.31,487.31,0,0,1,110.84-23.91c88-8.46,179.18,6.83,263.57-19.27a278.43,278.43,0,0,0,117.89-72.67C1075.82,655.53,1090.16,597,1070.45,542.41Z" style="fill:#fbe3e0"/><path d="M364.61,686.65H268.48c-51.73,0-94.06,42.33-94.06,94.06h0c0,51.74,42.33,94.06,94.06,94.06h812.79c83.78,0,152.31-68.54,152.31-152.31h0c0-83.77-68.53-152.31-152.31-152.31h0a64.59,64.59,0,0,1-64.4-64.4h0a64.59,64.59,0,0,1,64.4-64.4h77.51a67.15,67.15,0,0,0,67-67h0a67.15,67.15,0,0,0-67-66.95h-98a26.14,26.14,0,0,1-26.06-26.07h0a26.14,26.14,0,0,1,26.06-26.07h17.28a18,18,0,0,0,18-18h0a18,18,0,0,0-18-18H964.68c-23.88,0-26.54,28.21-86.85,28.21H704.06A23.55,23.55,0,0,0,680.58,271h0a23.55,23.55,0,0,0,23.48,23.48H726.6a34.12,34.12,0,0,1,34,34h0a34.12,34.12,0,0,1-34,34H692.68c-91.62,0-104.56,23.94-120.61,71.56s-99.38,51.46-99.38,51.46H358.74a51.41,51.41,0,0,0-51.26,51.26h0a51.41,51.41,0,0,0,51.26,51.26h5.87a49.44,49.44,0,0,1,49.3,49.3h0a49.44,49.44,0,0,1-49.3,49.3ZM1128.53,255.3a18,18,0,1,1,18-18A18,18,0,0,1,1128.53,255.3Z" style="fill:#fbe3e0;fill-rule:evenodd"/></g><rect x="392.36" y="367.64" width="12.65" height="427.5" style="fill:#222750"/><path d="M772.26,633.76S804,659.52,809,664.49s-36.69,44.28-36.69,44.28,4.26-40,0-44.28-28.4-7.23-28.4-7.23Z" style="fill:#eda785"/><path d="M789.94,642.23s34.12,18,34.12,25.23-46.67,66.7-52.81,70.09c-8.77,4.85-39,7.33-44,2.34s8.81-15.54,16.63-23.36,14.19-19.63,14.19-27.11-14.6-27.71,0-27.71S789.94,642.23,789.94,642.23Z" style="fill:#282828"/><path d="M797,695l9.88,19.55A45.19,45.19,0,0,0,828,735.09h0l-22.9,37.29s-32.37,21.48-44.64,16.51,26.07-23.17,26.07-23.17l-16.23-53.24Z" style="fill:#eda785"/><path d="M571.58,203.33s-6.11,19.62,0,25.73,16.26,12.39,16.26,19.53-4.49,99.4,16.59,103.92,96.67-73.13,96.67-73.13l-30.72-37.5s-48.5,57.84-48.5,51.81-19.58-52.41-19.58-52.41L611.94,222s6-22.89-5.42-27.71S571.58,203.33,571.58,203.33Z" style="fill:#db8f72"/><path d="M604.29,333.76c-14.89-8.24-15-68.25-16.45-84.94-.08,8.68-4.29,99.21,16.59,103.69,21.08,4.51,96.67-73.13,96.67-73.13l-14.17-17.3C667.59,285.19,618.34,341.55,604.29,333.76Z" style="fill:#db8f72"/><path d="M586.84,244.6a10.19,10.19,0,0,1,.8,2.24C587.43,245.1,587.17,244.27,586.84,244.6Z" style="fill:#ff5921"/><path d="M747.92,173.47s-6.84-4-22.27,2.6-67.32,70-67.32,70l44.8,38.56a531.68,531.68,0,0,0,41.35-55.6C765,197.3,747.92,173.47,747.92,173.47Z" style="fill:#ff5b51"/><path d="M828.31,410.56l-12.59,7.57s-234.8,43-244.14,81,183,165.37,183,165.37l36.29-28.92s-122.21-84.26-108.43-98S858.64,492.8,858.64,492.8Z" style="fill:#222750"/><path d="M519.72,715.05s7.53,63,11.67,63h85.25s-46.14-18.73-54.75-27.34-17.69-38.06-17.69-38.06Z" style="fill:#eda785"/><path d="M525.28,762s50.46,7.25,56.94.77,37.49,11.49,37.49,15.29-82.08,7.29-95.64,2.87C519.52,779.47,525.28,764.36,525.28,762Z" style="fill:#282828"/><path d="M378.35,126.14s-.58,36.05,6.85,54.79-50.32,17.23-50.32,17.23L342,88.23Z" style="fill:#eda785"/><path d="M378.35,126.14l-17.68-18.42c-.79,11.84-.44,21.45,1.26,25.39,3.2,7.38,10.12,14.21,17.4,17.72C378.17,137.53,378.35,126.14,378.35,126.14Z" style="fill:#db8f72"/><polygon points="430.88 132.66 471.86 177.8 490.44 160.8 465 108.14 430.88 132.66" style="fill:#fff"/><path d="M433.66,132.87c-.89.1-1.55,0-1.76-.28-.89-1.21,3-7.58,13.61-15.42,6.64-4.9,13.3-8.34,17-8.76.9-.1,1.56,0,1.77.28.89,1.22-3,7.58-13.61,15.42C444,129,437.34,132.45,433.66,132.87Z" style="fill:#d3d3d3"/><path d="M424.14,192.77s50.8,56.94,55.9,54.07-8.75-69.53-7.52-73.94-21.59-9.06-20.47-13.08,5.22,1.51,15.14-4.09,2.1-31.68,5.12-30.84,10.86,3.8,19.42,12.53,5,136.28-10.44,145-81-68.73-81-68.73Z" style="fill:#eda785"/><path d="M473.48,183.05s3.37,79.77,6.08,102.81,41.57,35.26,41.57,35.26V270.5c0-31.18-24.85-94.43-24.85-94.43Z" style="fill:#eda785"/><path d="M751.13,373.51H252.31a18.26,18.26,0,0,1,18.26-18.26h462.3a18.27,18.27,0,0,1,18.26,18.26Z" style="fill:#ef8978"/><path d="M911.3,370.58s54.35-15.33,70.53-10l-21.42,63.55-64.56-11Z" style="fill:#c42751"/><path d="M390.85,31.64S405.61,41,408.92,49.41s-.3,70.18-9,82.23-31.33.9-38-12.35S369.16,18.68,390.85,31.64Z" style="fill:#eda785"/><path d="M480.91,235.71a326.93,326.93,0,0,0-43.6-52.49,72.61,72.61,0,0,0-66.49-18.65c-5.64,1.25-11.67,2.54-17.84,3.79A73,73,0,0,0,294.31,238l-4.24,167.83c-1.12,44.22,37.17,79.95,81,74.26,8.23-1.07,15.07-3.39,19.21-7.53,19.88-19.88,11.39-144.68,19.83-168.17,5.44-15.18,8.32-15.05,9.17-34.89,0,0,71.08,77.37,85.55,77.37,16.27,0,16.27-15.82,16.27-35.1S516.16,288.57,480.91,235.71Z" style="fill:#9eb5fe"/><path d="M370.82,164.57c-5.64,1.25-11.67,2.54-17.84,3.79A73,73,0,0,0,294.31,238l-2.45,96.87a50.45,50.45,0,0,0,17.51,1.59c42.72-4,85.74-43,87.74-83.87,1.58-32.33-8.9-63.11-16.56-89.51A73.86,73.86,0,0,0,370.82,164.57Z" style="fill:#7c8cb5"/><rect x="378.35" y="565.09" width="7.68" height="230.88" style="fill:#222750"/><rect x="264.04" y="565.09" width="7.68" height="230.88" style="fill:#222750"/><rect x="408.4" y="565.09" width="7.68" height="230.88" style="fill:#222750"/><rect x="674.83" y="373.51" width="12.65" height="421.63" style="fill:#222750"/><path d="M858.64,417.71s-111.25,31.34-195.19,63S768.27,721.42,768.27,721.42L808,703.34s-91-159.36-77-173.36,152-49.84,152-49.84Z" style="fill:#323b6b"/><path d="M574.84,725.86s7.53,63,11.67,63h85.25S625.62,770.16,617,761.55s-17.69-38.06-17.69-38.06Z" style="fill:#eda785"/><path d="M517.4,524.55c-16.26-16.27-139-81.46-139-81.46L288.44,470.2s4.06,34.79,19.88,50.61S479,565.09,479,565.09l26.85,170.13c8-.61,41.27-7.45,49.22-7.64C553.86,719.28,533.67,540.82,517.4,524.55Z" style="fill:#222750"/><path d="M412.24,429.54S534,440,564.05,516.47c9.12,23.19,51.09,221.07,51.09,221.07L573.38,743s-58.8-147.22-62.87-173.43-115.26-39-137.85-43.51-63.29-58.27-63.29-58.27Z" style="fill:#323b6b"/><path d="M192.65,340.08s7.41,177.11,71.39,225H479s42.39-20.79,42.39-61.45S501,418.68,390.44,369.9,192.65,340.08,192.65,340.08Z" style="fill:#e7345a"/><path d="M390.44,369.9a392.12,392.12,0,0,0-112.55-31c22.89,5.79,62.28,14.62,88.72,27.84,110.6,55.3,133.52,95.9,133.52,142,0,40.95-21.22,49.64-33.56,56.39H479s42.39-20.79,42.39-61.45S501,418.68,390.44,369.9Z" style="fill:#fff"/><rect x="470.57" y="569.64" width="7.68" height="226.32" style="fill:#222750"/><rect x="264.04" y="565.09" width="214.21" height="20.78" style="fill:#222750"/><rect x="723.39" y="558.96" width="7.68" height="237" style="fill:#222750"/><rect x="909.02" y="560.52" width="7.68" height="235.45" style="fill:#222750"/><rect x="723.39" y="553.34" width="193.31" height="16.31" style="fill:#222750"/><path d="M390.25,10S374-2.7,339.64,10s-28.92,42.75-25.9,62c3.17,20.3-27.7,27.21-38.68,38.72-38.48,40.34-53.42,103.75-44,157.76,6.05,34.53,38.3,56.78,72.65,53.59,42.71-4,72.45-45.37,74.45-86.19,3-61.45-18.68-100.61-.6-131.33s12-47,18.07-53,13.25-2.11,13.25-2.11S455.05,4.32,390.25,10Z" style="fill:#233862"/><path d="M725.65,176.07s-9.49,43.52-5.87,75.45c2.82,25,60.77,114.44,85.91,152.28a55.74,55.74,0,0,0,31,22.72L921,450.77l15.66,11s2.41-28.92-4.22-78.32S817.37,153.33,792.67,153.33,725.65,176.07,725.65,176.07Z" style="fill:#ff7768"/><path d="M735.52,198.89l.69,0c40.43-3.45,54.63-40.43,55.21-42l.94-2.5-.61-1c-24.81.54-66.1,22.73-66.1,22.73s-.38,1.73-.95,4.75C725.69,189.65,727.6,198.89,735.52,198.89Z" style="fill:#fff8f3"/><path d="M816.3,174.1l-26.36-4.3S756.47,255.07,740,297.86c5.37,9.73,11.44,20.15,17.76,30.65,2.47-6.46,5.64-13,9.29-16.66,8.88-8.88,18.92-4,22.89-7.94S828,247.83,828,215.55,816.3,174.1,816.3,174.1Z" style="fill:#ff5b51;opacity:0.7000000000000001"/><path d="M783,257.12s-43,95.3-59.64,98.3c-18.24,3.29-112.53-.17-112.53-.17h-26c-9.4.14-17.6-7-18.16-16.37-.22-3.83.81-6.81,4.59-6.81,10.58,0,34.71,2,40.74,2s64.75-5.72,71.37-12.35,58.57-106.19,58.57-106.19Z" style="fill:#eda785"/><path d="M762.55,299.21C774,277.2,783,257.12,783,257.12l-41.1-41.57s-13.87,26.58-28.18,53.19C726.2,279.44,745.75,294.4,762.55,299.21Z" style="fill:#db8f72"/><path d="M723.39,546.11s21.09-44.58,76.51-90.37,181.93-95.18,181.93-95.18,5.43,170.49-64.46,192.78h-194Z" style="fill:#e7345a"/><path d="M910.54,531.68H731.65a152,152,0,0,0-8.26,14.43v7.23h194c54.75-17.46,63.28-125.87,64.41-172C971.27,448.93,950.68,515.14,910.54,531.68Z" style="fill:#c42751"/><path d="M737.82,85.18l48.35,69.73s-13.09,35.17-50.43,38.36c-5.7.49-5.39-17.83-6.7-23.39L718,123.2Z" style="fill:#eda785"/><path d="M744.69,93.45,721,135.86l5.08,21.84c10.88-17.61,19.32-44.64,21-59.08Z" style="fill:#db8f72"/><path d="M726.38,45.47s18.31,32.15,18.31,48-9.19,44.28-41.46,47.78c-20.22,2.19-30.34-59.49-27.15-84.86C679.35,30.36,714,28.15,726.38,45.47Z" style="fill:#eda785"/><path d="M688.54,111.75s-.39,4.61,9,6.18c0,0,8.24.61,9-3.51A81.22,81.22,0,0,1,688.54,111.75Z" style="fill:#fff"/><path d="M721.47,59.58,730.35,48s7.45-6.24,10.73,1.35,6,21.59,3.61,24.87-9,7.45-9,7.45L721.47,61.37Z" style="fill:#eda785"/><path d="M754.57,173.47c-13.48,20-31.81,72.48-34.79,78.05-7.6,14.19,44.15,37.18,53.79,34.77s37.84-61.12,43.8-83c4.28-15.69.55-37.48-14.45-46.68C785.67,146.06,765.57,157.16,754.57,173.47Z" style="fill:#ff7768"/><path d="M723.39,546.11c14.81-42.37,53.55-84.35,90.41-110.91,39.86-29,118.85-62.57,168-74.64-112.71,62.9-166.29,79.37-233.17,153.94A328.86,328.86,0,0,0,723.39,546.11Z" style="fill:#fff"/><path d="M747.14,98.62s-10.28-17.75-6.78-26.08c3-7.17,6.78-24.58-3.26-21.6-6.28,1.86-6.16,10.09-8.74,7.15s-5.18-12.8-23.85-13.67-26.26,5.64-34.94,1.83-9.14-17-9.14-17,2.47,4.7,6.2,6.19c0,0-15.1-20,3.82-30.42,17.93-9.84,32.61-2.38,42.32-1.79,21.38,1.3,30.06,13.16,37.05,27.22S755.49,78.82,747.14,98.62Z" style="fill:#282c3a"/><path d="M608.31,167,586,163.48a2,2,0,0,0-1.82.57h0l-2.84,2.15L589.64,222l21.42,3.39,1.53-.29,3.28-2.52h0a1.85,1.85,0,0,0,.63-1.68l-5.36-50.94A3.51,3.51,0,0,0,608.31,167Z" style="fill:#111"/><path d="M611.06,225.35l-22.3-3.53a3.53,3.53,0,0,1-2.83-2.9L580.57,168a1.87,1.87,0,0,1,2.31-2.09l22.3,3.53a3.53,3.53,0,0,1,2.83,2.9l5.36,50.94A1.87,1.87,0,0,1,611.06,225.35Z" style="fill:#33302f"/><path d="M589.27,172l-5.21-1a2,2,0,0,1-1.52-1.66h0a1,1,0,0,1,1.31-1.12l5.21,1a1.93,1.93,0,0,1,1.52,1.65h0A1,1,0,0,1,589.27,172Z" style="fill:#fff"/><path d="M571.58,203.33s30.77-5,35.81,0-24.61,9.15-24.61,9.15Z" style="fill:#db8f72"/><path d="M577.48,220.35s24.82-2,25.39-7.25S580,211.19,580,211.19Z" style="fill:#db8f72"/><path d="M582.85,202.29s15.28,1.91,20-3.63c3.06-3.57-20.63-.63-20.63-.63Z" style="fill:#db8f72"/><path d="M806,712.17S836,728,836,734.3s-40.6,59.21-46.31,61.47c-2.3.91-44.24.2-45.79-1.36-4.38-4.38,14.9-10.22,21.76-17.08s12.45-17.21,12.45-23.77-12.81-24.3,0-24.3S806,712.17,806,712.17Z" style="fill:#282828"/><path d="M580.4,772.83s50.46,7.25,56.94.77,37.49,11.49,37.49,15.29-82.08,7.28-95.63,2.87C574.64,790.28,580.4,775.17,580.4,772.83Z" style="fill:#282828"/></g></g></svg>