<svg xmlns="http://www.w3.org/2000/svg" viewBox="0 0 883.46 837.55"><defs><style>.cls-1{fill:#2e3552;}.cls-2{fill:#eda785;}.cls-3{fill:#fff;}.cls-4{fill:#222a42;}.cls-5{fill:#db8f72;}.cls-6{fill:#8c8c8c;}.cls-7{fill:#f2f2f2;}.cls-8{fill:#232428;}.cls-9{fill:#c1c0bf;}.cls-10{fill:#111110;}.cls-11{fill:#1c1a17;}.cls-12{fill:#2b2825;}.cls-13{fill:#262262;}.cls-14{fill:#bcbec0;}.cls-15{fill:#d1d3d4;}.cls-16{fill:#f1f2f2;}.cls-17{fill:#131d1e;}</style></defs><g id="Calque_2" data-name="Calque 2"><g id="Calque_165" data-name="Calque 165"><path class="cls-1" d="M881,837.55H1.83c-1,0-1.83-2.14-1.83-4.77H0C0,830.15.82,828,1.83,828H881c1,0,1.82,2.15,1.82,4.78h0C882.82,835.41,882,837.55,881,837.55Z"/><path class="cls-2" d="M722.91,165.12s.52-23.23,2.07-26.84,5.68-9.3,8.77-10.33,11.36-3.61,13.94-5.16,12.91-11.88,12.91-11.88,8.26-2.06,8.77.52-11.87,13.94-11.87,13.94l5.16,2.06L790,128l16-16s5.68-3.62,5.16,0-16,23.74-17.55,23.74-46.46,16.52-46.46,16.52L742,172.35Z"/><path class="cls-2" d="M772,141.89s10.84-3.1,12.38-5.68,12.91-25.3,13.94-26.84-5.68-.52-8.26,0-9.8,22.71-9.8,22.71l-11.36,3.61Z"/><path class="cls-2" d="M775.86,137.94s11.25-.68,13.32-2.87,18.07-21.91,19.41-23.2-5.44-1.73-8.07-1.78S786,130.15,786,130.15l-11.87,1.08Z"/><path class="cls-2" d="M732.2,151.18s-.51-10.32,6.2-15.49S766.28,130,766.28,130s10.32-20.14,12.9-20.14,8.78-2.58,8.26,0-6.71,12.91-9.29,18.07-3.61,11.87-6.19,13.94-17.56,5.68-17.56,5.68"/><polygon class="cls-3" points="714.65 182.16 720.33 163.06 746.14 167.18 739.95 190.93 714.65 182.16"/><path class="cls-3" d="M610.89,161.51s22.71,6.19,26.84,13.93,38.72,63.5,40.79,67.12,3.61,6.71,3.61,6.71,25.3-61.44,26.33-65.05,9.81-4.65,12.39-4.65,26.33,1.55,27.36,7.75-29.94,123.9-33,126.48-11.36,3.61-16.52,2.06-72.79-35.62-72.79-35.62Z"/><path class="cls-4" d="M484.72,363.56,466.27,580,454.92,768s-6.38,7.81-5.68,11.35,4.26,13.48,4.26,13.48-10.64,30.51-7.8,32.64a73.89,73.89,0,0,0,8.51,5H483.3s5.68-5.68,5-9.94l-5-29.79s6.39-11.36,7.1-14.19-3.55-17.74-3.55-17.74L555,497.66s29.09,163.19,36.19,200.79,21,131,21,131H627l2.13-6.39s.71-1.41,7.81,2.84a23.51,23.51,0,0,0,13.48,3.55h36.89s2.84-3.55.71-4.26-31.22-20.35-36.18-24.61S638.36,785,638.36,785s5-12.78,5-14.9S637,755.87,637,755.87l-4.65-190.1,2.13-197.24Z"/><path class="cls-1" d="M508.5,153.59l-44.82,21.5,21.7,139.51L483.17,370s37.2,20.38,79.28,19.05,74-16.39,74-16.39l2.21-120.91s-4.43-58.9-9.74-68.64-8-14.18-15.5-19.93-30.56-12.4-30.56-12.4-41.63-3.55-43-3.55S508.5,153.59,508.5,153.59Z"/><polygon class="cls-3" points="557.37 204.53 583.71 252.16 589.9 195.91 571.3 168.89 557.58 199.9 557.37 204.53"/><polygon class="cls-3" points="573.2 178.37 589.03 199.71 593.16 153.59 583.53 141.89 573.2 178.37"/><polygon class="cls-2" points="515.38 106.1 518.83 143.95 573.2 178.37 596.61 114.36 515.38 106.1"/><path class="cls-5" d="M517.43,128.56a59,59,0,0,0,25.46,4.76c19-.83,40.82-9.25,51.93-14.07l1.79-4.89-81.23-8.26Z"/><polygon class="cls-3" points="573.2 178.37 557.37 204.53 508.5 153.59 516.07 141.2 573.2 178.37"/><path class="cls-3" d="M586.48,269.36a4.39,4.39,0,0,1-3.09,3.94,2.25,2.25,0,0,1-3.08-2.2,4.38,4.38,0,0,1,3.08-3.93A2.25,2.25,0,0,1,586.48,269.36ZM583.39,300a4.38,4.38,0,0,0-3.08,3.94,2.24,2.24,0,0,0,3.08,2.19,4.37,4.37,0,0,0,3.09-3.93A2.25,2.25,0,0,0,583.39,300Zm0,32.86a4.38,4.38,0,0,0-3.08,3.93,2.24,2.24,0,0,0,3.08,2.19,4.37,4.37,0,0,0,3.09-3.93A2.25,2.25,0,0,0,583.39,332.88Zm0,32.85a4.38,4.38,0,0,0-3.08,3.93,2.24,2.24,0,0,0,3.08,2.19,4.37,4.37,0,0,0,3.09-3.93A2.25,2.25,0,0,0,583.39,365.73Z"/><path class="cls-2" d="M635.15,330.32s20.14-17,22.72-17,15.48,9.81,15.48,9.81,12.91-1.55,13.43,1.55-2.07,11.87-2.07,11.87l-3.1,3.1s-8.77,13.42-8.77,15.49-11.36,1.54-16.52,2.58-19.62-2.58-19.62-2.58Z"/><polygon class="cls-3" points="615.53 328.77 639.28 329.28 639.8 354.06 620.18 354.58 615.53 328.77"/><path class="cls-3" d="M506.11,223.92a40.52,40.52,0,0,0-15.63-31.78c-8.27-6.45-18.57-14.2-22.07-15.66-6.2-2.58-9.3-1.55-18.07,4.64s-11.88,19.1-11.36,40.27,15.49,132.67,17,137.32,6.19,5.68,10.32,6.19,146.43-4.35,149.19-4.64c9.81-1,11.41-14.4,10.85-20.65-1-11.36-10.85-15-25.82-16.52s-88.27-10.33-90.85-10.84a34.3,34.3,0,0,1-5.17-1.55s1.55-60.4,1.55-76.92C506.09,230.09,506.12,226.84,506.11,223.92Z"/><polygon class="cls-6" points="871.07 109.88 675.42 109.88 665.09 101.62 883.46 101.62 871.07 109.88"/><polygon class="cls-7" points="533.68 313.89 534.39 436.64 637.26 436.64 639.28 329.28 533.68 313.89"/><path class="cls-2" d="M564.76,23.5s10.33,2.07,16.53,14,23.26,61.5,23.77,68.22-6.71,8.78-15,14-35.14,9.3-50.13,4.14-18.09-13.44-18.09-13.44-5.68,6.72-16.53-.52-12.92-17-8.79-20.67,10.85-.52,10.85-.52S496,60.71,497.06,50.89s1.55-19.64,18.08-26.36S564.76,23.5,564.76,23.5Z"/><path class="cls-3" d="M586.73,87.23s1.71,7.66-13.64,12.43c0,0-13.72,2.92-15.86-3.85A138.74,138.74,0,0,0,586.73,87.23Z"/><path class="cls-8" d="M503.26,80.35s3.1,10.85,5.17,11.36,10.85,2.07,10.33-3.1-8.66-15.74-7.62-21.94,9.74-11.08,9.45-17.84c-.2-4.44-6.76-6.51-5.21-9.1S538.21,22.39,550.8,24c9.23,1.18,20.61,7.31,23.1,2.78,1.88-3.44-2.62-17.53-16.67-24.38C536.15-7.86,506,16.94,497.09,32.68c-9.11,16-2.53,23.79-1.58,30.09S503.26,80.35,503.26,80.35Z"/><polygon class="cls-9" points="573.2 178.37 568.2 186.64 575.04 187.76 578.78 185.89 573.2 178.37"/><path class="cls-10" d="M573.4,187.75l-16.93-3.62a4.09,4.09,0,0,0-4.86,4.79l2.6,13.21a4.09,4.09,0,0,0,6.49,2.46l13.2-10.09a4.08,4.08,0,0,1,4.17-.48l13.58,6.16a4.08,4.08,0,0,0,5.72-4.36l-2.07-13a4.08,4.08,0,0,0-6-2.9l-13,7.36A4.1,4.1,0,0,1,573.4,187.75Z"/><path class="cls-11" d="M453.5,792.81l29.8-2.12,5.57,33.42-5.57,6.31H454.21l-8.51-5S443.11,819.85,453.5,792.81Z"/><path class="cls-11" d="M688,825.17l-7.37-4.31H681l-29.15-20.3s-20.52-10.22-33.51-5.42a93.81,93.81,0,0,0-10.63,5.11l3.12,20.61,1.28,8.57H627s7.19-5,9.94-3.55a86.84,86.84,0,0,0,9.34,3.55h41l2.15-.1A3.38,3.38,0,0,0,688,825.17Z"/><path class="cls-12" d="M335.25,37.08c7.81,3.09,20.47,4,33.23,20.93,11.95,15.81-2.86,20-3.43,29.74s14.87,12.58,20.59,29.74-12,23.45-15.45,29.74,0,9.15,4.58,15.44-1.72,25.74-26.31,30.32-70.92-4.58-81.22-13.73,3.43-15.44,5.15-19.45-17.16-6.29-22.31-18.3,17.73-20,17.73-30.31-18.3-16.59-10.86-36S291.48,40,304.41,37.08C304.41,37.08,322.63,32.09,335.25,37.08Z"/><path class="cls-2" d="M410.56,307.79c.06,7.76-2.19,15.11-9.29,19.75-19.45,12.74-42.73,23.22-64.31,31.81-4.6,1.83-11.91-1.14-13.73-5.73s3.31-8.38,7.55-10.57a307.82,307.82,0,0,0,49.89-32.29,8,8,0,0,0,3.1-3.74c.71-2.46-1-4.93-1.32-7.47-.87-6.36,6.3-10.53,12.3-12.85,6.82-2.63,9.76-5.67,12.18,1.88C408.78,294.35,410.5,301.22,410.56,307.79Z"/><path class="cls-2" d="M252.39,313.84c-4.76,6.13-11.08,10.5-19.53,9.74-23.16-2.07-33.05-7.29-55.31-13.94-4.73-1.42-23.51-9.28-22.08-14,1.37-4.58,7.79-4.52,12.48-3.61a307.42,307.42,0,0,0,59.15,5.62,8,8,0,0,0,4.75-1c2.09-1.48,2.3-4.47,3.6-6.67,3.27-5.54,11.48-4.36,17.62-2.45,7,2.16,11.18,1.6,8.4,9C259.34,302.2,256.43,308.65,252.39,313.84Z"/><path class="cls-2" d="M288.52,778.14c0-8.28-.7-16.47-3.39-24.52-1.57-4.15-3.83-6.37-7-3.84.45-.36-4.07-4.22-5.56-3.58-2.62,1.11-4.15,8.12-5.15,11.16a150.62,150.62,0,0,0-6.23,27.13c-1.29,4.94-1.09,10.74-1.72,15.36-.38,2.81-.48,6.08,1.46,8.4a4.71,4.71,0,0,0,2,1.45c1.1,3.68,4.36,5.42,7.84,3.8a4.6,4.6,0,0,0,4.18,1.35,7.81,7.81,0,0,0,4.1-2.72,4.32,4.32,0,0,0,3.37.79,6.55,6.55,0,0,0,4.32-4.07c1.92-4.69,1.45-9.81,1.55-14.76C288.32,788.74,288.55,783.42,288.52,778.14Z"/><path class="cls-2" d="M361.66,792.42a30.92,30.92,0,0,0,0-3.34,156.4,156.4,0,0,0-4.6-29.31c-.81-3.15-1.89-10.33-4.43-11.77-1.44-.82-6.19,2.43-5.76,2.85-3-2.93-5.43-1-7.26,2.92-3.21,6.88-4.71,19.93-5,24-.09,1.42-.14,2.87-.17,4.34a98.83,98.83,0,0,0,.27,11.4c.22,3.94-.06,7.86.1,11.8.1,2.47.25,5.67,2.33,7.37a4,4,0,0,0,5,.18,5,5,0,0,0,4.23,2.68,4.83,4.83,0,0,0,3.47-1,7.54,7.54,0,0,0,4-1.76,8.68,8.68,0,0,0,3.94-4c2.63-.59,4-3.8,4.35-7A33.27,33.27,0,0,0,361.66,792.42Z"/><path class="cls-2" d="M367.57,557.21c.16-2.48.42-5,.75-7.4-3.84-.51-7.67-1.13-11.48-1.77-5.66-1-11.3-2.09-17-3-1.42-.24-2.85-.48-4.27-.7l-1.12-.17-1.15-.14-3.92-.43-2.82-.26q.87,39,2.38,78c.9,22.14,2,44.17,2.1,66.36a143.42,143.42,0,0,0,2.41,23.23c1.28,12.8,2.86,25.55,4,38.4a8.69,8.69,0,0,0,.2,2.33c.24,3,.46,6,.64,9,.24,4,4.19,6.43,7.63,6.27,3.94-.18,6.58-3.35,7.32-7.21.26-1.39.51-2.77.77-4.16a8,8,0,0,0,2.43-4.9c4.47-32.13,11.27-64,14.17-96.29a320.6,320.6,0,0,0,.69-50.05C370.26,588.7,366.54,572.94,367.57,557.21Z"/><path class="cls-2" d="M297.63,540.86c-11.63-1.08-23.86-2.28-35.65-4.94a127,127,0,0,1,2.45,21.35c.34,15.75-4.05,31.5-5.77,47.11a322.55,322.55,0,0,0-1.5,50.11c1.49,32.36,6.91,64.31,10,96.51a7.75,7.75,0,0,0,2.22,4.93c.19,1.39.38,2.78.58,4.17.57,3.87,3.07,7.06,7,7.28,3.43.19,7.48-2.26,7.89-6.21.31-3,.66-6,1-9a8.59,8.59,0,0,0,.3-2.33c1.67-12.85,3.8-25.61,5.64-38.41a146.89,146.89,0,0,0,3.41-23.23c1.05-22.21,3.13-44.26,5-66.41,2.24-26.7,4.15-53.44,5.9-80.19C303.26,541.35,300.45,541.12,297.63,540.86Z"/><path class="cls-5" d="M309.13,153a36.36,36.36,0,0,1,.47,4.18c-.09,1.11-.18,2.22-.26,3.34h0s10.61,20.19,32.46,1.34c-.14-1.16-1.41-10.89-1.55-12,0-.76,0-1.51,0-2.27a7,7,0,0,0-1-4c0-.23-.09-.47-.14-.7l-12.26,2.8-9.27,2.12-8.4,1.93A7.72,7.72,0,0,0,309.13,153Z"/><path class="cls-2" d="M286.51,74.77a18.15,18.15,0,0,1,5.68-4c4.59-2.18,12-.35,16.86-1.41,8.3-1.81,19.94-5.66,27,.84,6.53,6,5.47,15.71,6.81,24.14.29,1.76.68,3.49,1.11,5.2l.24-.24a9.37,9.37,0,0,1,6.52-2.79c1.89,0,4.26,1.22,4.69,3.26,1.42,6.69-1.81,12.86-6.65,17.37l-.13.11a34.3,34.3,0,0,1,.37,8.74c-1,10.45-7.48,18-14.28,25.49-6.28,6.87-13.86,8.31-22.77,6s-13.57-8.9-17.34-17c-4.1-8.77-7.9-17.39-8.53-27.14C285.27,101.34,277.6,84.45,286.51,74.77Z"/><path class="cls-4" d="M388,476.3c1.17-11.79,3.69-112.73-11-102.78-.22-.48-.43-.95-.66-1.43-1.76-3.61-3.64-7.14-5.36-10.76-.2-.4-.38-.79-.56-1.2-1-2.17-4-12.76-5.93-13.59a19.25,19.25,0,0,0-6.3-1.56,5.49,5.49,0,0,0-1.71-.09c-5.29-.12-10.87.95-16.11,1.63-15,2-30.31.39-45.37,2.07a51.69,51.69,0,0,0-10.31,1.81c-2.78-4.27-10.74-4.76-12.53,1.64-.16.58-.35,1.15-.56,1.72-4.61,12.87-13.54,22.82-17.37,35.76-5.45,18.45-4.87,41.3-5.08,60.4-.29,27.05,3.63,53.05,8.59,79.6,2.18,11.66,3.76,23.87,2.16,35.72-1.69,12.57-8.92,20.94-12.38,32.64C239.66,624.66,359.2,631,372.38,612c3.34-4.81,3.87-11.16,3.81-16.85-.24-19.1-2.22-40.22.65-60S386,496.26,388,476.33Z"/><path class="cls-3" d="M370.54,272.11c.57,1.48,1.16,3,1.75,4.44a166.54,166.54,0,0,1,8.44,27.75c.3,1.44,9.5.73,15.25-.24a35.11,35.11,0,0,0,5.59-1.27,10.84,10.84,0,0,0,6.77-13.23c-1.8-6.42-4.08-12.84-5.32-19.27-2.79-14.52-3.17-28.93-4.25-43.63-1-13.71-2.72-29.27-10.81-40.9-9-13-25.08-12.81-38.6-17.6a3.81,3.81,0,0,0-.45-.13c-.22-2.36-47.46.25-47.92,2.53a60.69,60.69,0,0,0-24.38,3.3C266.19,177.51,261,186.33,257,196.1c-3.93,9.6-6.19,19.72-9,29.66-4,13.83-4.12,28.64-8.95,42.2-2.25,6.3-4,12.57-.66,18.83,2.94,5.48,7.79,9.82,11.79,14.51,3.15,3.71,8.33,1.82,10.76-1.39a66.12,66.12,0,0,0,9-17.49c1-2.8,1.91-5.67,2.79-8.54Z"/><path class="cls-11" d="M333,817.38c-4.4-9.31-2.63-22.66.92-31.27,2.32,6.08,2.73,14,10.22,16.19a12.86,12.86,0,0,0,15.29-7.22,19.85,19.85,0,0,0,1.7-8.43c0-2.52-.15-5-.38-7.51,3.84,6.17,4.32,14,4.09,21.06-.21,6.55-.38,14.53-3.4,20.49-4.6,9.08-16,9.16-23.38,3.22A18.07,18.07,0,0,1,333,817.38Z"/><path class="cls-11" d="M289.37,817.38c4.4-9.31,2.62-22.66-.93-31.27-2.32,6.08-2.73,14-10.21,16.19a12.87,12.87,0,0,1-15.3-7.22,20.15,20.15,0,0,1-1.7-8.43c0-2.52.16-5,.39-7.51-3.85,6.17-4.32,14-4.09,21.06.21,6.55.38,14.53,3.39,20.49,4.6,9.08,16,9.16,23.39,3.22A18.17,18.17,0,0,0,289.37,817.38Z"/><polygon class="cls-9" points="349.36 168.16 341.1 156.4 324.65 167.57 328.43 184.2 349.36 168.16"/><polygon class="cls-9" points="325.72 168.14 319.37 184.97 304.41 169.46 309.34 160.53 325.72 168.14"/><path class="cls-13" d="M355.72,280.14s7.66-3.86,14.82-8c-.83,2.07-1.66,4.15-2.42,6.23A46.94,46.94,0,0,1,355.72,280.14Z"/><polygon class="cls-3" points="324.65 167.57 341.1 156.4 349.36 168.16 328.89 182.53 324.65 167.57"/><polygon class="cls-3" points="324.65 167.57 318.98 182.53 304.41 169.46 309.34 160.53 324.65 167.57"/><path class="cls-1" d="M270.66,316.45c2.61-9.33,6.84-18.72,6.75-28.55a22.44,22.44,0,0,0-2.05-9,50,50,0,0,0-2.63-5c-4.69-6.43-8.62-12.24-8.14-20.49a52,52,0,0,1,6.69-22.32c3.67-6.53,8.92-12.22,11-19.58,3.52-12.72,3.4-27.08,1.94-40.19,2.18-.3,3.27-.27,4.16-.44a35.59,35.59,0,0,1,4.15-.67c1.1,7.94,18.38,41.9,30.38,51.76,6-4.47,36.91-43.67,37.92-51.1,0,0,7.91-.2,9.38,3a6.07,6.07,0,0,1,0,3.95c-2.14,9-6.48,17.62-7.05,26.89-.93,14.94,8.19,25.12,13.28,39.2,1.39,3.85,2.22,11.42,1.08,15.35-1,3.45-4.82,9.72-6,13.12a3.55,3.55,0,0,1-1.73,1.73c-.57,1.43-1.13,2.86-1.66,4.3A52.1,52.1,0,0,0,364.8,292c-1,12.34,4.8,25.92,8.84,38.41.85,2.62,1.62,5.19,2.23,7.69,2,8.38,7.93,22.52,5.8,31-2.48,9.94-12.11,14.48-21.07,17.33-25.32,8.06-52.77.87-77.57-5.59-8-2.09-17.1-4.25-21.71-11.85-.3-.51-.58-1-.83-1.55a7.18,7.18,0,0,1-.49-3C259.83,349.06,266.55,331.1,270.66,316.45Z"/><path class="cls-3" d="M263.07,294.7c-1.06-3.51-4.44-5.71-7.57-7.61-5.43-3.27-11.11-6.64-17.43-7.12a3.58,3.58,0,0,0-2.22.35,3.74,3.74,0,0,0-1.26,1.75c-2.91,6.59-8.48,8.44-7.49,15.57.27,1.91,27.24,9.85,29,10.54C256.88,308.48,266,304.24,263.07,294.7Z"/><path class="cls-3" d="M398.75,300.55c4.65-1.9,9.42-4.68,11.29-9.35,3.36,3.69,4.6,8.95,4.3,13.93s-2,9.77-3.9,14.38c-6-6.28-15.44-7.76-24.14-8.22-4.91-.26-11.74-3.37-4.93-7.06C385.67,301.9,393.74,302.59,398.75,300.55Z"/><path class="cls-3" d="M318.81,232.71a3.82,3.82,0,1,0,3.82-3.81A3.82,3.82,0,0,0,318.81,232.71Z"/><path class="cls-3" d="M318.81,253.21a3.82,3.82,0,1,0,3.82-3.81A3.82,3.82,0,0,0,318.81,253.21Z"/><path class="cls-3" d="M318.81,273.72a3.82,3.82,0,1,0,3.82-3.81A3.81,3.81,0,0,0,318.81,273.72Z"/><path class="cls-3" d="M318.81,294.23a3.82,3.82,0,1,0,3.82-3.82A3.82,3.82,0,0,0,318.81,294.23Z"/><path class="cls-3" d="M318.81,314.73a3.82,3.82,0,1,0,3.82-3.81A3.81,3.81,0,0,0,318.81,314.73Z"/><path class="cls-14" d="M115.82,210.15s7.26-19.27,0-19.27S115.82,210.15,115.82,210.15Z"/><path class="cls-15" d="M197.61,273.32s-9.35-70.88-81.33-70.88S34,272.06,34,272.06Z"/><path class="cls-16" d="M101.07,210.15s-40.49,14.68-40.49,27.67S101.07,210.15,101.07,210.15Z"/><path class="cls-5" d="M116.48,273.89a9.82,9.82,0,0,1,2.11,1.59l3.72,3.4a9.32,9.32,0,0,1-3.81-4.78c2.27.47,4.2,1.9,6,3.29l7.8,5.88c-3.23-.12-6.52,1-9.66.22a15.53,15.53,0,0,1-5.46-3c-2.24-1.7-4.42-3.46-6.56-5.28-.58-.5-1.21-1.29-.8-1.93S115.77,273.53,116.48,273.89Z"/><path class="cls-2" d="M145.69,296.81c-2.91-.78-5.93-1.34-8.56-2.81-1.4-.78-19.27-6.74-20.54-7.72-9.41-7.3-3.78-7.63-15.36-10.39-.63-1.5.69-3.23,2.26-3.66a8.59,8.59,0,0,1,4.78.52c3.17,1,9.84,7.38,13,8.35,8.74,2.68,14-.09,22.71,2.59-.42-3-9.61-6.63-5.4-9,2.08-.27,4.15-.13,6.23-.39.25,1.64-1.15,2.07-.64,3.66.33,1,4.29,1,5.35,1a14.75,14.75,0,0,1,11.36,4.75c2,2.16,3.33,4.95,5.81,6.48,1.33.82,2.88,1.21,4.16,2.09,2.85,1.95,3.7,6,2.73,9.29s-.28,3.57-3,5.35C163.16,303.31,153.71,299,145.69,296.81Z"/><rect class="cls-17" x="10.05" y="272.23" width="212.48" height="3.35" transform="translate(232.57 547.81) rotate(180)"/><path class="cls-3" d="M306.13,138.21s.52,5.82,12.48,5.74c0,0,10.39-1,10.38-6.3A103.07,103.07,0,0,1,306.13,138.21Z"/></g></g></svg>