<svg xmlns="http://www.w3.org/2000/svg" width="599.24" height="433.77" viewBox="0 0 599.24 433.77"><g style="isolation:isolate"><g id="Calque_2" data-name="Calque 2"><g id="Calque_19" data-name="Calque 19"><ellipse cx="498.74" cy="421.82" rx="71.52" ry="11.95" style="fill:#373554;isolation:isolate;opacity:0.1"/><rect x="60.24" y="164.22" width="368.07" height="247.5" style="fill:#fbe3e0"/><polygon points="97.18 59.06 51.17 151.08 437.38 151.08 391.37 59.06 97.18 59.06" style="fill:#fbe3e0"/><ellipse cx="246.67" cy="159.03" rx="81.27" ry="67.11" style="fill:#fff"/><rect x="86.53" y="190.52" width="315.49" height="216.9" style="fill:#fff"/><rect x="112.82" y="282.53" width="78.87" height="118.31" style="fill:#fbe3e0"/><path d="M225,181.05l10-10.25-29.71-30s2.47,25.75,19.72,40.22" style="fill:#fbe3e0"/><path d="M301.34,288,328,289.11,320.21,299s-7.74.13-8.66,0-6.35-3.29-6.35-3.29Z" style="fill:#fbe3e0"/><path d="M297.35,136.32l0,0-13.61,13.93a13.14,13.14,0,0,1-12.55,3.29L293,131.69a6.57,6.57,0,1,0-8.55-10,6.9,6.9,0,0,0-.72.71l-22.28,22.09a13.15,13.15,0,0,1,3.35-12.62L278.72,118a6.57,6.57,0,0,0,0-9.29l0,0a6.57,6.57,0,0,0-9.27,0l-13.94,14a26.32,26.32,0,0,0-4,31.88l-7.23,7-41.34-41.41a6.5,6.5,0,0,0-11,3.49c-.2,1.18-5.92,34,23.53,66.91l-8.68,8.67a6.58,6.58,0,0,0,0,9.3l0,0a6.58,6.58,0,0,0,9.3,0l0,0,28.19-28.46,21.63,21.69a6.57,6.57,0,0,0,9.29,0l0,0a6.57,6.57,0,0,0,0-9.3l0,0L253.54,170.8l7.23-7.23a26.3,26.3,0,0,0,31.88-4l14-13.94a6.58,6.58,0,0,0-9.3-9.3ZM225,181.05a78.75,78.75,0,0,1-19.72-40.22l29.71,30Z" style="fill:#f4b1a8"/><path d="M283.71,289.11h7.49a26.19,26.19,0,0,0,50.75,0h7.49a6.58,6.58,0,0,0,6.57-6.58,39.43,39.43,0,0,0-32.86-38.84V216.81H310v26.88a39.43,39.43,0,0,0-32.86,38.84A6.58,6.58,0,0,0,283.71,289.11Zm32.86,6.57a13.14,13.14,0,0,1-11.37-6.57H328A13.15,13.15,0,0,1,316.57,295.68Zm0-39.44A26.29,26.29,0,0,1,342,276H291.14A26.28,26.28,0,0,1,316.57,256.24Z" style="fill:#f4b1a8"/><path d="M132.54,322a6.58,6.58,0,0,0-6.58,6.57v26.29a6.58,6.58,0,1,0,13.15,0V328.54A6.57,6.57,0,0,0,132.54,322Z" style="fill:#f4b1a8"/><path d="M165.4,105.07a6.57,6.57,0,0,0-6.57-6.57H145.68a6.57,6.57,0,1,0,0,13.14h13.15A6.57,6.57,0,0,0,165.4,105.07Z" style="fill:#f4b1a8"/><path d="M132.54,124.79H93.1a6.57,6.57,0,1,0,0,13.14h39.44a6.57,6.57,0,1,0,0-13.14Z" style="fill:#f4b1a8"/><path d="M191.69,78.78a6.57,6.57,0,0,0-6.57-6.57H119.39a6.57,6.57,0,0,0,0,13.14h65.73A6.57,6.57,0,0,0,191.69,78.78Z" style="fill:#f4b1a8"/><path d="M342.87,98.5H329.72a6.57,6.57,0,0,0,0,13.14h13.15a6.57,6.57,0,0,0,0-13.14Z" style="fill:#f4b1a8"/><path d="M349.44,131.36a6.57,6.57,0,0,0,6.57,6.57h39.44a6.57,6.57,0,0,0,0-13.14H356A6.57,6.57,0,0,0,349.44,131.36Z" style="fill:#f4b1a8"/><path d="M303.43,85.35h65.73a6.57,6.57,0,0,0,0-13.14H303.43a6.57,6.57,0,1,0,0,13.14Z" style="fill:#f4b1a8"/><path d="M481.67,407.42H441.46V164.22H448a6.58,6.58,0,0,0,5.85-9.53L401.3,49.53a6.57,6.57,0,0,0-5.85-3.61H93.1a6.56,6.56,0,0,0-5.85,3.61L34.67,154.69a6.26,6.26,0,0,0,5.85,9.53h6.57v243.2H6.57a6.57,6.57,0,1,0,0,13.14h475.1a6.57,6.57,0,1,0,0-13.14ZM57.74,137.93h9.07a6.57,6.57,0,0,0,0-13.14h-2.5l6.58-13.15h48.5a6.57,6.57,0,0,0,0-13.14H77.46L84,85.35H93.1a6.57,6.57,0,1,0,0-13.14H90.6l6.58-13.15H391.37L398,72.21h-2.5a6.57,6.57,0,1,0,0,13.14h9.07l6.57,13.15H369.16a6.57,6.57,0,1,0,0,13.14h48.5l6.58,13.15h-2.5a6.57,6.57,0,1,0,0,13.14h9.07l6.57,13.15H335.9c-3.94-40.42-43.45-72.3-91.63-72.3s-87.68,31.88-91.62,72.3H51.17Zm265.41,19.72c0,36.22-35.36,65.73-78.88,65.73s-78.87-29.51-78.87-65.73,35.36-65.73,78.87-65.73S323.15,121.44,323.15,157.65ZM60.24,407.42V164.22h92.41c3.94,40.43,43.45,72.31,91.62,72.31S332,204.65,335.9,164.22h92.41v243.2H415.17V183.94a6.58,6.58,0,0,0-6.58-6.57H342.87a6.58,6.58,0,1,0,0,13.15H402v216.9H388.88V341.69a6.58,6.58,0,0,0-13.15,0v32.86H356a6.58,6.58,0,0,0-6.57,6.58v26.29H323.15V374.55h13.14a6.57,6.57,0,1,0,0-13.14H296.86a6.57,6.57,0,1,0,0,13.14H310v32.87H283.71V381.13a6.58,6.58,0,0,0-6.57-6.58H257.42V341.69a6.58,6.58,0,0,0-13.15,0v65.73H204.84V276a6.57,6.57,0,0,0-6.57-6.57h-92A6.58,6.58,0,0,0,99.67,276V407.42H86.53V190.52h59.15a6.58,6.58,0,1,0,0-13.15H80a6.58,6.58,0,0,0-6.58,6.57V407.42H60.24Zm315.49,0H362.58V387.7h13.15v19.72Zm-105.16,0H257.42V387.7h13.15v19.72Zm-157.75-6.58V282.53h78.87V400.84Z" style="fill:#f4b1a8"/><polygon points="599.24 242.15 599.18 242.26 561.58 313.62 547.27 287.57 369.91 384.96 341.3 332.85 181.76 420.46 120.23 420.46 353 292.63 381.62 344.74 533.02 261.61 518.72 235.57 599.24 242.15" style="fill:#ef8978"/><path d="M269.16,295l-10.3,7.09s-.14,4.68,4,9.73l12.19-8Z" style="fill:#ffbe9d"/><path d="M264.29,308.07c1.53,1.8,2.2,3.19.66,5.61-1,1.58-3.66,18-2.83,23s-2.92,5.32-5,5.12-13-37.21-13-37.21,10.38-5,14.1-5S262.17,304.79,264.29,308.07Z"/><path d="M348.25,193.35s-1.13,60.45-7.55,72.38-68,40.62-68,40.62a27.5,27.5,0,0,1-5.61-11.78s17.35-15.25,24.21-22.14c10.3-10.35,25.53-19.32,25.53-19.32l-1.57-68.68Z" style="fill:#001f37"/><path d="M448.29,273.3,454.74,284s4.66.42,9.95-3.41L457.4,268Z" style="fill:#ffbe9d"/><path d="M461.38,278.46c1.55-1.79,2.83-2.66,5.45-1.5,1.71.76,18.35.92,23.13-.64s7.62,3.15,5.81,4.15c-9.75,5.41-34.83,18.44-34.83,18.44s-6.47-9.52-7.06-13.2S458.4,281.05,461.38,278.46Z"/><path d="M345.11,159s67.77,26.14,76.61,36.49S460.18,270,460.18,270s-5,9.05-12,7.26c0,0-15.11-22.26-20.46-30.82-5.59-9-18.69-19.66-25-39,0,0-36.2-1.29-63.81-5.79-18.56-3-31.45-16.35-26.94-34.61v-.15a3.19,3.19,0,0,1,2.48-2.14Z" style="fill:#043c62"/><path d="M537.39,429.15c-16.89,0-30.58-4.91-30.58-11v-7.8l61.15-.64v8.44C568,424.24,554.28,429.15,537.39,429.15Z" style="fill:#e3b400"/><path d="M537,421.91v7.23h-.91v-7.23Z" style="fill:#e0920b"/><path d="M540.69,421.91v7.18l-.91,0v-7.21Z" style="fill:#e0920b"/><path d="M533.76,421.46v7.61l-.91,0v-7.57Z" style="fill:#e0920b"/><path d="M530.32,420.62v8.23l-.92-.08v-8.15Z" style="fill:#e0920b"/><path d="M523.3,419.57v8.34l-.9-.17v-8.17Z" style="fill:#e0920b"/><path d="M519.85,418.64v8.52l-.91-.23v-8.29Z" style="fill:#e0920b"/><path d="M516.66,418.06v8.18c-.32-.1-.62-.2-.91-.31v-7.87Z" style="fill:#e0920b"/><polygon points="512.24 424.43 512.24 416.59 511.33 416.59 511.33 423.92 512.24 424.43" style="fill:#e0920b"/><polygon points="509.09 422.35 509.09 414.55 508.19 414.55 508.19 421.45 509.09 422.35" style="fill:#e0920b"/><path d="M526.49,419.57v8.86l-.91-.13v-8.73Z" style="fill:#e0920b"/><path d="M544.51,421.08v7.77l-.91.07v-7.84Z" style="fill:#e0920b"/><path d="M547.71,420.62v7.88c-.3.05-.6.08-.91.12v-8Z" style="fill:#e0920b"/><path d="M551.45,419.57v8.35c-.3.06-.6.12-.91.16v-8.51Z" style="fill:#e0920b"/><path d="M554.68,419.42v7.81l-.91.21v-8Z" style="fill:#e0920b"/><path d="M558.41,418.06v8.08l-.9.3v-8.38Z" style="fill:#e0920b"/><polygon points="562.76 424.31 562.76 416.59 561.84 416.59 561.84 424.76 562.76 424.31" style="fill:#e0920b"/><path d="M566.31,414.28v7.47a8.23,8.23,0,0,1-.91.84v-8.31Z" style="fill:#e0920b"/><path d="M541.91,427.76c-16.89,0-26.16-4.19-26.16-10.24v-6.47l-8.94-.67v7.8c0,6.06,13.69,11,30.58,11,8.65,0,16.45-1.29,22-3.36A73.52,73.52,0,0,1,541.91,427.76Z" style="fill:#efd8d5;mix-blend-mode:multiply"/><path d="M510.92,418.43v-7.88l-4.11-.17v7.8c0,6.06,13.69,11,30.58,11C525.86,427.8,510.92,424.49,510.92,418.43Z" style="fill:#efd8d5;mix-blend-mode:multiply"/><path d="M518.94,418.06s3,5.9,13.2,7.47c28,4.27,35.82-7.35,35.82-7.35v-6.72Z" style="fill:#fff8c3;mix-blend-mode:soft-light"/><path d="M525.49,416.9s2.56,4.86,11.44,6.15c24.23,3.52,31-7.37,31-7.37v-4.22Z" style="fill:#fff8c3;mix-blend-mode:soft-light"/><path d="M537.39,422.78c-16.89,0-30.58-5.06-30.58-11.32s13.69-11.32,30.58-11.32S568,405.21,568,411.46,554.28,422.78,537.39,422.78Z" style="fill:#ffef4a"/><ellipse cx="537.39" cy="410.38" rx="30.58" ry="10.97" style="fill:#fd0"/><path d="M537.39,418.84c-14.39,0-26.06-4.19-26.06-9.35s11.67-9.35,26.06-9.35,26.06,4.19,26.06,9.35S551.78,418.84,537.39,418.84Z" style="fill:#fdc800"/><path d="M514,410.46c0-5.16,11.67-9.34,26.06-9.34a59,59,0,0,1,17,2.27c-4.78-2-11.85-3.25-19.73-3.25-14.39,0-26.06,4.19-26.06,9.35,0,2.83,3.51,5.36,9,7.08C516.43,414.93,514,412.8,514,410.46Z" style="fill:#f5a20a"/><line x1="553.77" y1="414.08" x2="553.77" y2="406.06" style="fill:none;stroke:#f39411;stroke-miterlimit:10;stroke-width:2.4464400000000004px"/><line x1="539.49" y1="414.08" x2="539.49" y2="406.96" style="fill:none;stroke:#f39411;stroke-miterlimit:10;stroke-width:2.4464400000000004px"/><path d="M553.77,412.38H532.93c-16.62,0-8.89-6.32-6.08-6.32h6.32" style="fill:none;stroke:#f39411;stroke-miterlimit:10;stroke-width:2.4464400000000004px"/><g style="mix-blend-mode:soft-light"><path d="M557.32,418.7,521.2,401.07a67,67,0,0,1,8.83-1.34l33.49,16.34A29.17,29.17,0,0,1,557.32,418.7Z" style="fill:#fff"/><path d="M550.12,420.35,514.66,403a35.5,35.5,0,0,1,3.4-1.16l36.16,17.65C552.93,419.84,551.56,420.12,550.12,420.35Z" style="fill:#fff"/><path d="M542.62,421.18l-32.43-15.82,1.39-.87L545.34,421C544.45,421.06,543.54,421.13,542.62,421.18Z" style="fill:#fff"/></g><path d="M533.74,417.9c-16.88,0-30.57-4.91-30.57-11v-7.8l61.15-.64v8.44C564.32,413,550.63,417.9,533.74,417.9Z" style="fill:#e3b400"/><path d="M533.33,410.66v7.24h-.91v-7.23Z" style="fill:#e0920b"/><path d="M537,410.66v7.18l-.91,0v-7.21Z" style="fill:#e0920b"/><path d="M530.12,410.21v7.61c-.31,0-.61,0-.91,0v-7.58Z" style="fill:#e0920b"/><path d="M526.67,409.38v8.22l-.91-.08v-8.14Z" style="fill:#e0920b"/><path d="M519.66,408.32v8.34l-.9-.17v-8.17Z" style="fill:#e0920b"/><path d="M516.21,407.39v8.52l-.92-.23v-8.29Z" style="fill:#e0920b"/><path d="M513,406.81V415c-.31-.1-.62-.2-.91-.31v-7.87Z" style="fill:#e0920b"/><polygon points="508.6 413.18 508.6 405.35 507.69 405.35 507.69 412.67 508.6 413.18" style="fill:#e0920b"/><polygon points="505.45 411.1 505.45 403.3 504.55 403.3 504.55 410.21 505.45 411.1" style="fill:#e0920b"/><path d="M522.85,408.32v8.86l-.91-.13v-8.73Z" style="fill:#e0920b"/><path d="M540.87,409.83v7.77c-.3,0-.61.06-.91.07v-7.84Z" style="fill:#e0920b"/><path d="M544.07,409.38v7.87l-.91.12v-8Z" style="fill:#e0920b"/><path d="M547.8,408.32v8.35c-.3.06-.6.12-.9.16v-8.51Z" style="fill:#e0920b"/><path d="M551,408.17V416l-.91.21v-8Z" style="fill:#e0920b"/><path d="M554.77,406.81v8.08l-.9.3v-8.38Z" style="fill:#e0920b"/><polygon points="559.11 413.06 559.11 405.35 558.2 405.35 558.2 413.51 559.11 413.06" style="fill:#e0920b"/><path d="M562.66,403v7.48a9.12,9.12,0,0,1-.9.83V403Z" style="fill:#e0920b"/><path d="M538.26,416.51c-16.88,0-26.16-4.18-26.16-10.24V399.8l-8.93-.67v7.8c0,6.06,13.69,11,30.57,11,8.65,0,16.45-1.29,22-3.36A73.55,73.55,0,0,1,538.26,416.51Z" style="fill:#efd8d5;mix-blend-mode:multiply"/><path d="M507.27,407.19V399.3l-4.1-.17v7.8c0,6.06,13.69,11,30.57,11C522.21,416.55,507.27,413.24,507.27,407.19Z" style="fill:#efd8d5;mix-blend-mode:multiply"/><path d="M515.29,406.81s3,5.9,13.21,7.47c28,4.27,35.82-7.35,35.82-7.35v-6.72Z" style="fill:#fff8c3;mix-blend-mode:soft-light"/><path d="M521.85,405.65s2.56,4.86,11.44,6.15c24.23,3.52,31-7.37,31-7.37v-4.22Z" style="fill:#fff8c3;mix-blend-mode:soft-light"/><path d="M533.74,411.53c-16.88,0-30.57-5.06-30.57-11.32s13.69-11.32,30.57-11.32,30.58,5.07,30.58,11.32S550.63,411.53,533.74,411.53Z" style="fill:#ffef4a"/><path d="M533.74,410.1c-16.88,0-30.57-4.92-30.57-11s13.69-11,30.57-11,30.58,4.91,30.58,11S550.63,410.1,533.74,410.1Z" style="fill:#fd0"/><ellipse cx="533.74" cy="398.24" rx="26.06" ry="9.35" style="fill:#fdc800"/><path d="M510.4,399.21c0-5.16,11.66-9.34,26.06-9.34a59,59,0,0,1,17,2.27c-4.78-2-11.84-3.25-19.73-3.25-14.39,0-26.05,4.19-26.05,9.35,0,2.83,3.5,5.36,9,7.08C512.79,403.68,510.4,401.55,510.4,399.21Z" style="fill:#f5a20a"/><line x1="550.13" y1="402.83" x2="550.13" y2="394.81" style="fill:none;stroke:#f39411;stroke-miterlimit:10;stroke-width:2.4464400000000004px"/><line x1="535.84" y1="402.83" x2="535.84" y2="395.71" style="fill:none;stroke:#f39411;stroke-miterlimit:10;stroke-width:2.4464400000000004px"/><path d="M550.13,401.13H529.29c-16.62,0-8.9-6.32-6.09-6.32h6.32" style="fill:none;stroke:#f39411;stroke-miterlimit:10;stroke-width:2.4464400000000004px"/><g style="mix-blend-mode:soft-light"><path d="M553.67,407.45l-36.11-17.63a68.55,68.55,0,0,1,8.82-1.34l33.5,16.34A29,29,0,0,1,553.67,407.45Z" style="fill:#fff"/><path d="M546.48,409.1,511,391.79a35.73,35.73,0,0,1,3.41-1.16l36.16,17.65C549.29,408.59,547.91,408.87,546.48,409.1Z" style="fill:#fff"/><path d="M539,409.93l-32.42-15.82,1.39-.87,33.76,16.48C540.8,409.81,539.9,409.88,539,409.93Z" style="fill:#fff"/></g><path d="M539.29,405.58c-16.89,0-30.58-4.91-30.58-11v-7.8l61.15-.64v8.44C569.86,400.67,556.17,405.58,539.29,405.58Z" style="fill:#e3b400"/><path d="M538.87,398.34v7.24H538v-7.23Z" style="fill:#e0920b"/><path d="M542.59,398.34v7.18l-.91,0v-7.21Z" style="fill:#e0920b"/><path d="M535.66,397.89v7.61l-.91,0v-7.58Z" style="fill:#e0920b"/><path d="M532.21,397.06v8.22l-.91-.08v-8.14Z" style="fill:#e0920b"/><path d="M525.2,396v8.34c-.3,0-.6-.1-.9-.17V396Z" style="fill:#e0920b"/><path d="M521.75,395.07v8.52l-.91-.23v-8.29Z" style="fill:#e0920b"/><path d="M518.56,394.49v8.19l-.92-.32v-7.87Z" style="fill:#e0920b"/><polygon points="514.14 400.86 514.14 393.03 513.23 393.03 513.23 400.35 514.14 400.86" style="fill:#e0920b"/><polygon points="510.99 398.78 510.99 390.99 510.09 390.99 510.09 397.89 510.99 398.78" style="fill:#e0920b"/><path d="M528.39,396v8.86c-.31,0-.61-.08-.91-.13V396Z" style="fill:#e0920b"/><path d="M546.41,397.51v7.77c-.3,0-.6.06-.91.07v-7.84Z" style="fill:#e0920b"/><path d="M549.61,397.06v7.87c-.3.05-.6.08-.91.12v-8Z" style="fill:#e0920b"/><path d="M553.34,396v8.35c-.3.06-.59.12-.9.16V396Z" style="fill:#e0920b"/><path d="M556.58,395.85v7.81l-.91.21v-8Z" style="fill:#e0920b"/><path d="M560.31,394.49v8.08q-.45.17-.9.3v-8.38Z" style="fill:#e0920b"/><polygon points="564.65 400.74 564.65 393.03 563.74 393.03 563.74 401.2 564.65 400.74" style="fill:#e0920b"/><path d="M568.21,390.72v7.47a9.27,9.27,0,0,1-.91.83v-8.3Z" style="fill:#e0920b"/><path d="M543.81,404.2c-16.89,0-26.17-4.19-26.17-10.25v-6.47l-8.93-.67v7.8c0,6.06,13.69,11,30.58,11,8.64,0,16.45-1.29,22-3.36A73.49,73.49,0,0,1,543.81,404.2Z" style="fill:#efd8d5;mix-blend-mode:multiply"/><path d="M512.82,394.87V387l-4.11-.17v7.8c0,6.06,13.69,11,30.58,11C527.76,404.23,512.82,400.92,512.82,394.87Z" style="fill:#efd8d5;mix-blend-mode:multiply"/><path d="M520.84,394.49s2.95,5.9,13.2,7.47c28,4.28,35.82-7.35,35.82-7.35v-6.72Z" style="fill:#fff8c3;mix-blend-mode:soft-light"/><path d="M527.39,393.33s2.56,4.86,11.44,6.15c24.23,3.52,31-7.37,31-7.37v-4.22Z" style="fill:#fff8c3;mix-blend-mode:soft-light"/><path d="M539.29,399.21c-16.89,0-30.58-5.06-30.58-11.32s13.69-11.32,30.58-11.32,30.57,5.07,30.57,11.32S556.17,399.21,539.29,399.21Z" style="fill:#ffef4a"/><path d="M539.29,397.78c-16.89,0-30.58-4.91-30.58-11s13.69-11,30.58-11,30.57,4.91,30.57,11S556.17,397.78,539.29,397.78Z" style="fill:#fd0"/><ellipse cx="539.29" cy="385.92" rx="26.06" ry="9.35" style="fill:#fdc800"/><path d="M515.94,386.9c0-5.17,11.67-9.35,26.06-9.35a59,59,0,0,1,17,2.27c-4.77-2-11.84-3.25-19.72-3.25-14.4,0-26.06,4.19-26.06,9.35,0,2.83,3.51,5.36,9,7.08C518.33,391.36,515.94,389.23,515.94,386.9Z" style="fill:#f5a20a"/><polyline points="555.09 381.28 542.32 385.99 521.75 385.99" style="fill:none;stroke:#f39411;stroke-miterlimit:10;stroke-width:2.4813500000000004px"/><line x1="542.13" y1="385.99" x2="555.27" y2="390.57" style="fill:none;stroke:#f39411;stroke-miterlimit:10;stroke-width:2.4813500000000004px"/><line x1="539.31" y1="382.35" x2="539.31" y2="389.99" style="fill:none;stroke:#f39411;stroke-miterlimit:10;stroke-width:2.4813500000000004px"/><line x1="531.3" y1="382.35" x2="531.3" y2="389.99" style="fill:none;stroke:#f39411;stroke-miterlimit:10;stroke-width:2.4813500000000004px"/><g style="mix-blend-mode:soft-light"><path d="M559.21,395.13,523.1,377.5a68.44,68.44,0,0,1,8.83-1.34l33.49,16.34A29,29,0,0,1,559.21,395.13Z" style="fill:#fff"/><path d="M552,396.78l-35.46-17.31a35.5,35.5,0,0,1,3.4-1.16L556.13,396C554.83,396.27,553.46,396.55,552,396.78Z" style="fill:#fff"/><path d="M544.51,397.61l-32.42-15.82,1.39-.87,33.76,16.48C546.34,397.49,545.44,397.56,544.51,397.61Z" style="fill:#fff"/></g><path d="M542.45,396.84c-16.88,0-30.57-4.91-30.57-11v-7.8l61.15-.64v8.44C573,391.93,559.34,396.84,542.45,396.84Z" style="fill:#e3b400"/><path d="M542,389.6v7.24c-.31,0-.62,0-.92,0V389.6Z" style="fill:#e0920b"/><path d="M545.75,389.6v7.18l-.91,0V389.6Z" style="fill:#e0920b"/><path d="M538.83,389.16v7.6c-.31,0-.61,0-.91,0v-7.57Z" style="fill:#e0920b"/><path d="M535.38,388.32v8.23l-.91-.08v-8.15Z" style="fill:#e0920b"/><path d="M528.37,387.26v8.35c-.31-.06-.61-.11-.9-.18v-8.17Z" style="fill:#e0920b"/><path d="M524.91,386.34v8.52l-.91-.24v-8.28Z" style="fill:#e0920b"/><path d="M521.72,385.75v8.19l-.91-.32v-7.87Z" style="fill:#e0920b"/><polygon points="517.31 392.12 517.31 384.29 516.39 384.29 516.39 391.61 517.31 392.12" style="fill:#e0920b"/><polygon points="514.16 390.05 514.16 382.25 513.25 382.25 513.25 389.15 514.16 390.05" style="fill:#e0920b"/><path d="M531.55,387.26v8.86c-.3,0-.61-.08-.91-.13v-8.73Z" style="fill:#e0920b"/><path d="M549.58,388.77v7.78l-.91.06v-7.84Z" style="fill:#e0920b"/><path d="M552.78,388.32v7.88l-.91.11v-8Z" style="fill:#e0920b"/><path d="M556.51,387.26v8.35c-.3.06-.6.12-.9.16v-8.51Z" style="fill:#e0920b"/><path d="M559.75,387.12v7.8c-.3.07-.61.15-.92.21v-8Z" style="fill:#e0920b"/><path d="M563.48,385.75v8.08c-.3.11-.6.21-.91.3v-8.38Z" style="fill:#e0920b"/><polygon points="567.82 392 567.82 384.29 566.91 384.29 566.91 392.46 567.82 392" style="fill:#e0920b"/><path d="M571.37,382v7.47a9.12,9.12,0,0,1-.9.83V382Z" style="fill:#e0920b"/><path d="M547,395.46c-16.89,0-26.16-4.19-26.16-10.25v-6.47l-8.93-.67v7.8c0,6.06,13.69,11,30.57,11,8.65,0,16.45-1.29,22-3.36A72.86,72.86,0,0,1,547,395.46Z" style="fill:#efd8d5;mix-blend-mode:multiply"/><path d="M516,386.13v-7.89l-4.1-.17v7.8c0,6.06,13.69,11,30.57,11C530.92,395.49,516,392.19,516,386.13Z" style="fill:#efd8d5;mix-blend-mode:multiply"/><path d="M524,385.75s3,5.9,13.21,7.47c28,4.28,35.82-7.35,35.82-7.35v-6.71Z" style="fill:#fff8c3;mix-blend-mode:soft-light"/><path d="M530.56,384.59s2.56,4.86,11.44,6.15c24.23,3.52,31-7.36,31-7.36v-4.22Z" style="fill:#fff8c3;mix-blend-mode:soft-light"/><path d="M542.45,390.48c-16.88,0-30.57-5.07-30.57-11.32s13.69-11.32,30.57-11.32S573,372.9,573,379.16,559.34,390.48,542.45,390.48Z" style="fill:#ffef4a"/><path d="M542.45,389c-16.88,0-30.57-4.91-30.57-11s13.69-11,30.57-11S573,372,573,378.07,559.34,389,542.45,389Z" style="fill:#fd0"/><path d="M542.45,386.53c-14.39,0-26.06-4.18-26.06-9.35s11.67-9.34,26.06-9.34,26.06,4.18,26.06,9.34S556.84,386.53,542.45,386.53Z" style="fill:#fdc800"/><path d="M519.11,378.16c0-5.17,11.66-9.35,26-9.35a59.39,59.39,0,0,1,17,2.27c-4.78-2-11.84-3.24-19.73-3.24-14.39,0-26.06,4.18-26.06,9.34,0,2.83,3.51,5.37,9.05,7.08C521.5,382.62,519.11,380.49,519.11,378.16Z" style="fill:#f5a20a"/><polyline points="558.25 372.54 545.48 377.25 524.91 377.25" style="fill:none;stroke:#f39411;stroke-miterlimit:10;stroke-width:2.4813500000000004px"/><line x1="545.3" y1="377.25" x2="558.44" y2="381.83" style="fill:none;stroke:#f39411;stroke-miterlimit:10;stroke-width:2.4813500000000004px"/><line x1="542.48" y1="373.62" x2="542.48" y2="381.25" style="fill:none;stroke:#f39411;stroke-miterlimit:10;stroke-width:2.4813500000000004px"/><line x1="534.47" y1="373.62" x2="534.47" y2="381.25" style="fill:none;stroke:#f39411;stroke-miterlimit:10;stroke-width:2.4813500000000004px"/><g style="mix-blend-mode:soft-light"><path d="M562.38,386.39l-36.11-17.63a68.55,68.55,0,0,1,8.82-1.34l33.49,16.34A29,29,0,0,1,562.38,386.39Z" style="fill:#fff"/><path d="M555.19,388l-35.47-17.31c1-.41,2.19-.8,3.41-1.16l36.16,17.65C558,387.53,556.62,387.81,555.19,388Z" style="fill:#fff"/><path d="M547.68,388.87l-32.43-15.82,1.4-.87,33.76,16.48C549.51,388.75,548.61,388.82,547.68,388.87Z" style="fill:#fff"/></g><path d="M537.43,384c-16.89,0-30.58-4.91-30.58-11v-7.81l61.15-.63v8.44C568,379.11,554.31,384,537.43,384Z" style="fill:#e3b400"/><path d="M537,376.78V384h-.91v-7.23Z" style="fill:#e0920b"/><path d="M540.73,376.78V384c-.3,0-.61,0-.91,0v-7.2Z" style="fill:#e0920b"/><path d="M533.8,376.33v7.61l-.91,0v-7.57Z" style="fill:#e0920b"/><path d="M530.35,375.49v8.23l-.91-.08v-8.15Z" style="fill:#e0920b"/><path d="M523.34,374.44v8.34l-.9-.17v-8.17Z" style="fill:#e0920b"/><path d="M519.89,373.51V382l-.91-.23v-8.29Z" style="fill:#e0920b"/><path d="M516.7,372.93v8.18c-.32-.1-.62-.2-.91-.31v-7.87Z" style="fill:#e0920b"/><polygon points="512.28 379.3 512.28 371.46 511.37 371.46 511.37 378.79 512.28 379.3" style="fill:#e0920b"/><polygon points="509.13 377.22 509.13 369.42 508.23 369.42 508.23 376.32 509.13 377.22" style="fill:#e0920b"/><path d="M526.53,374.44v8.86l-.91-.13v-8.73Z" style="fill:#e0920b"/><path d="M544.55,375.94v7.78l-.91.07v-7.85Z" style="fill:#e0920b"/><path d="M547.75,375.49v7.88c-.3.05-.6.08-.91.12v-8Z" style="fill:#e0920b"/><path d="M551.48,374.44v8.35c-.3.06-.59.12-.9.16v-8.51Z" style="fill:#e0920b"/><path d="M554.72,374.29v7.81l-.91.21v-8Z" style="fill:#e0920b"/><path d="M558.45,372.93V381l-.9.3v-8.38Z" style="fill:#e0920b"/><polygon points="562.79 379.18 562.79 371.46 561.88 371.46 561.88 379.63 562.79 379.18" style="fill:#e0920b"/><path d="M566.34,369.15v7.47a7.25,7.25,0,0,1-.9.83v-8.3Z" style="fill:#e0920b"/><path d="M542,382.63c-16.89,0-26.16-4.19-26.16-10.24v-6.47l-8.94-.68v7.81c0,6.06,13.69,11,30.58,11,8.64,0,16.45-1.29,22-3.36A73.52,73.52,0,0,1,542,382.63Z" style="fill:#efd8d5;mix-blend-mode:multiply"/><path d="M511,373.3v-7.88l-4.11-.18v7.81c0,6.06,13.69,11,30.58,11C525.9,382.67,511,379.36,511,373.3Z" style="fill:#efd8d5;mix-blend-mode:multiply"/><path d="M519,372.93s3,5.9,13.2,7.47c28,4.27,35.82-7.35,35.82-7.35v-6.72Z" style="fill:#fff8c3;mix-blend-mode:soft-light"/><path d="M525.53,371.76s2.56,4.86,11.44,6.16c24.23,3.52,31-7.37,31-7.37v-4.22Z" style="fill:#fff8c3;mix-blend-mode:soft-light"/><path d="M537.43,377.65c-16.89,0-30.58-5.07-30.58-11.32S520.54,355,537.43,355,568,360.08,568,366.33,554.31,377.65,537.43,377.65Z" style="fill:#ffef4a"/><ellipse cx="537.43" cy="365.24" rx="30.58" ry="10.97" style="fill:#fd0"/><path d="M537.43,373.71c-14.39,0-26.06-4.19-26.06-9.35S523,355,537.43,355s26.06,4.19,26.06,9.35S551.82,373.71,537.43,373.71Z" style="fill:#fdc800"/><path d="M514.08,365.33c0-5.16,11.67-9.35,26.06-9.35a58.94,58.94,0,0,1,17,2.28c-4.77-2-11.84-3.25-19.72-3.25-14.39,0-26.06,4.19-26.06,9.35,0,2.83,3.51,5.36,9,7.08C516.47,369.8,514.08,367.67,514.08,365.33Z" style="fill:#f5a20a"/><path d="M527.69,360.87s-6.16,4.86,1,6c8.21,1.3,8.92-5.71,17-6,8.22-.26,7.81,5,2.47,7.1" style="fill:none;stroke:#f39411;stroke-miterlimit:10;stroke-width:2.34343px"/><line x1="525.22" y1="364.43" x2="519.89" y2="364.43" style="fill:none;stroke:#f39411;stroke-miterlimit:10;stroke-width:2.34343px"/><line x1="557.32" y1="364.43" x2="551.98" y2="364.43" style="fill:none;stroke:#f39411;stroke-miterlimit:10;stroke-width:2.34343px"/><g style="mix-blend-mode:soft-light"><path d="M557.36,373.56l-36.12-17.62a66.75,66.75,0,0,1,8.83-1.34l33.49,16.34A29.18,29.18,0,0,1,557.36,373.56Z" style="fill:#fff"/><path d="M550.16,375.22,514.7,357.91c1-.42,2.18-.81,3.4-1.17l36.16,17.66C553,374.71,551.6,375,550.16,375.22Z" style="fill:#fff"/><path d="M542.65,376.05l-32.42-15.82,1.39-.87,33.76,16.48C544.48,375.92,543.58,376,542.65,376.05Z" style="fill:#fff"/></g><path d="M534.26,373.14c-16.89,0-30.58-4.91-30.58-11v-7.8l61.16-.64v8.44C564.84,368.23,551.15,373.14,534.26,373.14Z" style="fill:#e3b400"/><path d="M533.84,365.9v7.23h-.91V365.9Z" style="fill:#e0920b"/><path d="M537.56,365.9v7.18l-.91,0V365.9Z" style="fill:#e0920b"/><path d="M530.64,365.45v7.61l-.92,0v-7.57Z" style="fill:#e0920b"/><path d="M527.19,364.61v8.23l-.91-.08v-8.15Z" style="fill:#e0920b"/><path d="M520.18,363.56v8.34l-.91-.17v-8.17Z" style="fill:#e0920b"/><path d="M516.72,362.63v8.52l-.91-.23v-8.29Z" style="fill:#e0920b"/><path d="M513.53,362.05v8.18c-.31-.1-.62-.2-.91-.31v-7.87Z" style="fill:#e0920b"/><polygon points="509.11 368.42 509.11 360.58 508.2 360.58 508.2 367.91 509.11 368.42" style="fill:#e0920b"/><polygon points="505.96 366.34 505.96 358.54 505.06 358.54 505.06 365.44 505.96 366.34" style="fill:#e0920b"/><path d="M523.36,363.56v8.86l-.91-.13v-8.73Z" style="fill:#e0920b"/><path d="M541.39,365.07v7.77l-.91.07v-7.84Z" style="fill:#e0920b"/><path d="M544.59,364.61v7.88l-.91.12v-8Z" style="fill:#e0920b"/><path d="M548.32,363.56v8.35c-.3.06-.6.12-.91.16v-8.51Z" style="fill:#e0920b"/><path d="M551.55,363.41v7.81l-.91.21v-8Z" style="fill:#e0920b"/><path d="M555.29,362.05v8.08c-.3.1-.6.21-.91.3v-8.38Z" style="fill:#e0920b"/><polygon points="559.63 368.3 559.63 360.58 558.72 360.58 558.72 368.75 559.63 368.3" style="fill:#e0920b"/><path d="M563.18,358.27v7.47a8,8,0,0,1-.9.83v-8.3Z" style="fill:#e0920b"/><path d="M538.78,371.75c-16.89,0-26.16-4.19-26.16-10.24V355l-8.94-.67v7.8c0,6.06,13.69,11,30.58,11,8.65,0,16.45-1.29,22-3.36A73.46,73.46,0,0,1,538.78,371.75Z" style="fill:#efd8d5;mix-blend-mode:multiply"/><path d="M507.79,362.42v-7.88l-4.11-.17v7.8c0,6.06,13.69,11,30.58,11C522.73,371.79,507.79,368.48,507.79,362.42Z" style="fill:#efd8d5;mix-blend-mode:multiply"/><path d="M515.81,362.05s3,5.9,13.21,7.47c28,4.27,35.82-7.35,35.82-7.35v-6.72Z" style="fill:#fff8c3;mix-blend-mode:soft-light"/><path d="M522.36,360.89s2.57,4.86,11.45,6.15c24.23,3.52,31-7.37,31-7.37v-4.22Z" style="fill:#fff8c3;mix-blend-mode:soft-light"/><path d="M534.26,366.77c-16.89,0-30.58-5.07-30.58-11.32s13.69-11.32,30.58-11.32,30.58,5.07,30.58,11.32S551.15,366.77,534.26,366.77Z" style="fill:#ffef4a"/><path d="M534.26,365.33c-16.89,0-30.58-4.91-30.58-11s13.69-11,30.58-11,30.58,4.91,30.58,11S551.15,365.33,534.26,365.33Z" style="fill:#fd0"/><ellipse cx="534.26" cy="353.48" rx="26.06" ry="9.35" style="fill:#fdc800"/><path d="M510.91,354.45c0-5.16,11.67-9.34,26.06-9.34a59,59,0,0,1,17,2.27c-4.78-2-11.84-3.25-19.73-3.25-14.39,0-26.06,4.19-26.06,9.35,0,2.83,3.51,5.36,9.05,7.08C513.3,358.92,510.91,356.79,510.91,354.45Z" style="fill:#f5a20a"/><path d="M524.53,350s-6.16,4.86,1,6c8.2,1.3,8.92-5.71,17-6,8.22-.26,7.81,5.05,2.47,7.1" style="fill:none;stroke:#f39411;stroke-miterlimit:10;stroke-width:2.34343px"/><line x1="522.06" y1="353.55" x2="516.72" y2="353.55" style="fill:none;stroke:#f39411;stroke-miterlimit:10;stroke-width:2.34343px"/><line x1="554.15" y1="353.55" x2="548.82" y2="353.55" style="fill:none;stroke:#f39411;stroke-miterlimit:10;stroke-width:2.34343px"/><g style="mix-blend-mode:soft-light"><path d="M554.19,362.68l-36.11-17.62a66.59,66.59,0,0,1,8.82-1.34l33.49,16.34A29.18,29.18,0,0,1,554.19,362.68Z" style="fill:#fff"/><path d="M547,364.34,511.53,347c1.05-.42,2.19-.81,3.4-1.16l36.17,17.65C549.8,363.83,548.43,364.1,547,364.34Z" style="fill:#fff"/><path d="M539.49,365.17l-32.43-15.82,1.4-.87L542.21,365C541.32,365.05,540.41,365.12,539.49,365.17Z" style="fill:#fff"/></g><path d="M529,364.86c-16.88,0-30.57-4.91-30.57-11v-7.8l61.15-.64v8.44C559.59,360,545.9,364.86,529,364.86Z" style="fill:#e3b400"/><path d="M528.6,357.62v7.24c-.31,0-.62,0-.91,0v-7.23Z" style="fill:#e0920b"/><path d="M532.31,357.62v7.18l-.91,0v-7.21Z" style="fill:#e0920b"/><path d="M525.39,357.18v7.61l-.91,0v-7.57Z" style="fill:#e0920b"/><path d="M521.94,356.34v8.23l-.91-.08v-8.15Z" style="fill:#e0920b"/><path d="M514.93,355.28v8.35l-.9-.18v-8.17Z" style="fill:#e0920b"/><path d="M511.48,354.36v8.52l-.91-.24v-8.28Z" style="fill:#e0920b"/><path d="M508.28,353.77V362l-.91-.32v-7.87Z" style="fill:#e0920b"/><polygon points="503.87 360.14 503.87 352.31 502.96 352.31 502.96 359.63 503.87 360.14" style="fill:#e0920b"/><polygon points="500.72 358.06 500.72 350.27 499.81 350.27 499.81 357.17 500.72 358.06" style="fill:#e0920b"/><path d="M518.12,355.28v8.86c-.31,0-.62-.08-.91-.13v-8.73Z" style="fill:#e0920b"/><path d="M536.14,356.79v7.78c-.3,0-.6.05-.91.06v-7.84Z" style="fill:#e0920b"/><path d="M539.34,356.34v7.88l-.91.11v-8Z" style="fill:#e0920b"/><path d="M543.07,355.28v8.35c-.3.06-.6.12-.9.16v-8.51Z" style="fill:#e0920b"/><path d="M546.31,355.14v7.8l-.91.21v-8Z" style="fill:#e0920b"/><path d="M550,353.77v8.09l-.9.29v-8.38Z" style="fill:#e0920b"/><polygon points="554.38 360.03 554.38 352.31 553.47 352.31 553.47 360.48 554.38 360.03" style="fill:#e0920b"/><path d="M557.93,350v7.47a9.12,9.12,0,0,1-.9.83V350Z" style="fill:#e0920b"/><path d="M533.53,363.48c-16.88,0-26.16-4.19-26.16-10.25v-6.47l-8.93-.67v7.8c0,6.06,13.69,11,30.57,11,8.65,0,16.45-1.29,22-3.36A73,73,0,0,1,533.53,363.48Z" style="fill:#efd8d5;mix-blend-mode:multiply"/><path d="M502.54,354.15v-7.89l-4.1-.17v7.8c0,6.06,13.69,11,30.57,11C517.48,363.51,502.54,360.21,502.54,354.15Z" style="fill:#efd8d5;mix-blend-mode:multiply"/><path d="M510.57,353.77s2.95,5.9,13.2,7.47c28,4.28,35.82-7.35,35.82-7.35v-6.71Z" style="fill:#fff8c3;mix-blend-mode:soft-light"/><path d="M517.12,352.61s2.56,4.86,11.44,6.15c24.23,3.52,31-7.36,31-7.36v-4.22Z" style="fill:#fff8c3;mix-blend-mode:soft-light"/><path d="M529,358.5c-16.88,0-30.57-5.07-30.57-11.32s13.69-11.32,30.57-11.32,30.58,5.07,30.58,11.32S545.9,358.5,529,358.5Z" style="fill:#ffef4a"/><path d="M529,357.06c-16.88,0-30.57-4.91-30.57-11s13.69-11,30.57-11,30.58,4.91,30.58,11S545.9,357.06,529,357.06Z" style="fill:#fd0"/><path d="M529,354.55c-14.39,0-26.05-4.18-26.05-9.34s11.66-9.35,26.05-9.35,26.06,4.18,26.06,9.35S543.41,354.55,529,354.55Z" style="fill:#fdc800"/><path d="M505.67,346.18c0-5.17,11.66-9.35,26.06-9.35a59.31,59.31,0,0,1,17,2.27c-4.78-2-11.84-3.24-19.73-3.24-14.39,0-26.05,4.18-26.05,9.35,0,2.82,3.5,5.36,9,7.07C508.06,350.64,505.67,348.51,505.67,346.18Z" style="fill:#f5a20a"/><line x1="534.57" y1="350.3" x2="534.57" y2="342.57" style="fill:none;stroke:#f39411;stroke-miterlimit:10;stroke-width:2.7915px"/><line x1="528.27" y1="350.3" x2="528.27" y2="342.57" style="fill:none;stroke:#f39411;stroke-miterlimit:10;stroke-width:2.7915px"/><path d="M540.87,341.88h4.48c1.63,0,1.63,6.57-14.74,6.57-17,0-15.83-6.57-13-6.57H520" style="fill:none;stroke:#f39411;stroke-miterlimit:10;stroke-width:2.7915px"/><g style="mix-blend-mode:soft-light"><path d="M548.94,354.41l-36.11-17.63a68.55,68.55,0,0,1,8.82-1.34l33.5,16.34A29,29,0,0,1,548.94,354.41Z" style="fill:#fff"/><path d="M541.75,356.06l-35.47-17.31c1.05-.41,2.19-.8,3.41-1.16l36.16,17.65C544.56,355.55,543.18,355.83,541.75,356.06Z" style="fill:#fff"/><path d="M534.24,356.9l-32.42-15.83,1.39-.87L537,356.68C536.07,356.77,535.17,356.84,534.24,356.9Z" style="fill:#fff"/></g><path d="M480.14,427.53c-16.89,0-30.57-4.91-30.57-11v-7.8l61.15-.64v8.44C510.72,422.62,497,427.53,480.14,427.53Z" style="fill:#e3b400"/><path d="M479.72,420.29v7.23h-.91v-7.23Z" style="fill:#e0920b"/><path d="M483.44,420.29v7.18l-.91,0v-7.21Z" style="fill:#e0920b"/><path d="M476.52,419.84v7.61l-.91,0v-7.58Z" style="fill:#e0920b"/><path d="M473.07,419v8.22l-.91-.08V419Z" style="fill:#e0920b"/><path d="M466.06,418v8.34l-.9-.17V418Z" style="fill:#e0920b"/><path d="M462.6,417v8.52l-.91-.23V417Z" style="fill:#e0920b"/><path d="M459.41,416.44v8.18c-.31-.1-.62-.2-.91-.31v-7.87Z" style="fill:#e0920b"/><polygon points="455 422.81 455 414.97 454.08 414.97 454.08 422.3 455 422.81" style="fill:#e0920b"/><polygon points="451.85 420.73 451.85 412.93 450.94 412.93 450.94 419.83 451.85 420.73" style="fill:#e0920b"/><path d="M469.24,418v8.86l-.91-.13V418Z" style="fill:#e0920b"/><path d="M487.27,419.46v7.77l-.91.07v-7.84Z" style="fill:#e0920b"/><path d="M490.47,419v7.87l-.91.12v-8Z" style="fill:#e0920b"/><path d="M494.2,418v8.35c-.3.06-.6.12-.9.16V418Z" style="fill:#e0920b"/><path d="M497.43,417.8v7.81l-.91.21v-8Z" style="fill:#e0920b"/><path d="M501.17,416.44v8.08c-.3.1-.6.21-.91.3v-8.38Z" style="fill:#e0920b"/><polygon points="505.51 422.69 505.51 414.97 504.6 414.97 504.6 423.14 505.51 422.69" style="fill:#e0920b"/><path d="M509.06,412.66v7.47a8.11,8.11,0,0,1-.9.84v-8.31Z" style="fill:#e0920b"/><path d="M484.66,426.14c-16.89,0-26.16-4.18-26.16-10.24v-6.47l-8.93-.67v7.8c0,6.06,13.68,11,30.57,11,8.65,0,16.45-1.29,22-3.36A73.4,73.4,0,0,1,484.66,426.14Z" style="fill:#efd8d5;mix-blend-mode:multiply"/><path d="M453.67,416.81v-7.88l-4.1-.17v7.8c0,6.06,13.68,11,30.57,11C468.61,426.18,453.67,422.87,453.67,416.81Z" style="fill:#efd8d5;mix-blend-mode:multiply"/><path d="M461.69,416.44s3,5.9,13.21,7.47c28,4.27,35.82-7.35,35.82-7.35v-6.72Z" style="fill:#fff8c3;mix-blend-mode:soft-light"/><path d="M468.25,415.28s2.56,4.86,11.44,6.15c24.23,3.52,31-7.37,31-7.37v-4.22Z" style="fill:#fff8c3;mix-blend-mode:soft-light"/><ellipse cx="480.14" cy="409.84" rx="30.58" ry="11.32" style="fill:#ffef4a"/><path d="M480.14,419.72c-16.89,0-30.57-4.91-30.57-11s13.68-11,30.57-11,30.58,4.91,30.58,11S497,419.72,480.14,419.72Z" style="fill:#fd0"/><path d="M480.14,417.22c-14.39,0-26.06-4.19-26.06-9.35s11.67-9.35,26.06-9.35,26.06,4.19,26.06,9.35S494.53,417.22,480.14,417.22Z" style="fill:#fdc800"/><path d="M456.8,408.84c0-5.16,11.66-9.34,26.05-9.34a59,59,0,0,1,17,2.27c-4.78-2-11.84-3.25-19.73-3.25-14.39,0-26.06,4.19-26.06,9.35,0,2.83,3.51,5.36,9.05,7.08C459.18,413.31,456.8,411.18,456.8,408.84Z" style="fill:#f5a20a"/><path d="M494.46,411.43v-5.75c0-2.79-13.84-3.1-13.84,0v5.75" style="fill:none;stroke:#f39411;stroke-miterlimit:10;stroke-width:2.32844px"/><path d="M494.46,409.84H469v-3.31c0-3,11.6-3.21,11.6.53" style="fill:none;stroke:#f39411;stroke-miterlimit:10;stroke-width:2.32844px"/><line x1="469.04" y1="409.84" x2="464.9" y2="409.84" style="fill:none;stroke:#f39411;stroke-miterlimit:10;stroke-width:2.32844px"/><line x1="469.04" y1="407.95" x2="464.9" y2="407.95" style="fill:none;stroke:#f39411;stroke-miterlimit:10;stroke-width:2.32844px"/><line x1="498.6" y1="409.84" x2="494.46" y2="409.84" style="fill:none;stroke:#f39411;stroke-miterlimit:10;stroke-width:2.32844px"/><line x1="498.6" y1="407.95" x2="494.46" y2="407.95" style="fill:none;stroke:#f39411;stroke-miterlimit:10;stroke-width:2.32844px"/><g style="mix-blend-mode:soft-light"><path d="M500.07,417.08,464,399.45a68.55,68.55,0,0,1,8.82-1.34l33.49,16.34A29.17,29.17,0,0,1,500.07,417.08Z" style="fill:#fff"/><path d="M492.88,418.73l-35.47-17.31a35.73,35.73,0,0,1,3.41-1.16L497,417.91C495.68,418.22,494.31,418.5,492.88,418.73Z" style="fill:#fff"/><path d="M485.37,419.56l-32.43-15.82,1.4-.87,33.76,16.48C487.2,419.44,486.3,419.51,485.37,419.56Z" style="fill:#fff"/></g><path d="M481.75,417.88c-16.89,0-30.58-4.91-30.58-11v-7.8l61.16-.64v8.44C512.33,413,498.64,417.88,481.75,417.88Z" style="fill:#e3b400"/><path d="M481.33,410.64v7.24c-.3,0-.61,0-.91,0v-7.23Z" style="fill:#e0920b"/><path d="M485.05,410.64v7.18l-.91,0v-7.21Z" style="fill:#e0920b"/><path d="M478.12,410.2v7.6l-.91,0V410.2Z" style="fill:#e0920b"/><path d="M474.68,409.36v8.23l-.91-.08v-8.15Z" style="fill:#e0920b"/><path d="M467.67,408.3v8.35c-.31,0-.61-.11-.91-.18V408.3Z" style="fill:#e0920b"/><path d="M464.21,407.38v8.52l-.91-.24v-8.28Z" style="fill:#e0920b"/><path d="M461,406.79V415l-.91-.32v-7.87Z" style="fill:#e0920b"/><polygon points="456.6 413.16 456.6 405.33 455.69 405.33 455.69 412.65 456.6 413.16" style="fill:#e0920b"/><polygon points="453.45 411.08 453.45 403.29 452.55 403.29 452.55 410.19 453.45 411.08" style="fill:#e0920b"/><path d="M470.85,408.3v8.86c-.31,0-.61-.08-.91-.13V408.3Z" style="fill:#e0920b"/><path d="M488.87,409.81v7.78c-.29,0-.6.05-.91.06v-7.84Z" style="fill:#e0920b"/><path d="M492.07,409.36v7.88l-.91.11v-8Z" style="fill:#e0920b"/><path d="M495.81,408.3v8.35c-.3.06-.6.12-.91.16V408.3Z" style="fill:#e0920b"/><path d="M499,408.16V416c-.3.07-.6.15-.91.21v-8Z" style="fill:#e0920b"/><path d="M502.77,406.79v8.08c-.3.11-.59.21-.9.3v-8.38Z" style="fill:#e0920b"/><polygon points="507.12 413.05 507.12 405.33 506.21 405.33 506.21 413.5 507.12 413.05" style="fill:#e0920b"/><path d="M510.67,403v7.47a9.27,9.27,0,0,1-.91.83V403Z" style="fill:#e0920b"/><path d="M486.27,416.5c-16.89,0-26.16-4.19-26.16-10.25v-6.47l-8.94-.67v7.8c0,6.06,13.69,11,30.58,11,8.65,0,16.45-1.29,22-3.36A72.92,72.92,0,0,1,486.27,416.5Z" style="fill:#efd8d5;mix-blend-mode:multiply"/><path d="M455.28,407.17v-7.89l-4.11-.17v7.8c0,6.06,13.69,11,30.58,11C470.22,416.53,455.28,413.23,455.28,407.17Z" style="fill:#efd8d5;mix-blend-mode:multiply"/><path d="M463.3,406.79s3,5.9,13.21,7.47c28,4.28,35.82-7.35,35.82-7.35V400.2Z" style="fill:#fff8c3;mix-blend-mode:soft-light"/><path d="M469.85,405.63s2.57,4.86,11.44,6.15c24.23,3.52,31-7.36,31-7.36V400.2Z" style="fill:#fff8c3;mix-blend-mode:soft-light"/><path d="M481.75,411.52c-16.89,0-30.58-5.07-30.58-11.32s13.69-11.32,30.58-11.32,30.58,5.07,30.58,11.32S498.64,411.52,481.75,411.52Z" style="fill:#ffef4a"/><path d="M481.75,410.08c-16.89,0-30.58-4.91-30.58-11s13.69-11,30.58-11,30.58,4.91,30.58,11S498.64,410.08,481.75,410.08Z" style="fill:#fd0"/><ellipse cx="481.75" cy="398.22" rx="26.06" ry="9.35" style="fill:#fdc800"/><path d="M458.4,399.2c0-5.17,11.67-9.35,26.06-9.35a59.39,59.39,0,0,1,17,2.27c-4.78-2-11.84-3.24-19.73-3.24-14.39,0-26.06,4.18-26.06,9.34,0,2.83,3.51,5.37,9,7.08C460.79,403.66,458.4,401.53,458.4,399.2Z" style="fill:#f5a20a"/><path d="M496.07,401.78V396c0-2.79-13.85-3.1-13.85,0v5.75" style="fill:none;stroke:#f39411;stroke-miterlimit:10;stroke-width:2.32844px"/><path d="M496.07,400.19H470.65v-3.31c0-3,11.6-3.2,11.6.53" style="fill:none;stroke:#f39411;stroke-miterlimit:10;stroke-width:2.32844px"/><line x1="470.65" y1="400.19" x2="466.5" y2="400.19" style="fill:none;stroke:#f39411;stroke-miterlimit:10;stroke-width:2.32844px"/><line x1="470.65" y1="398.3" x2="466.5" y2="398.3" style="fill:none;stroke:#f39411;stroke-miterlimit:10;stroke-width:2.32844px"/><line x1="500.21" y1="400.19" x2="496.07" y2="400.19" style="fill:none;stroke:#f39411;stroke-miterlimit:10;stroke-width:2.32844px"/><line x1="500.21" y1="398.3" x2="496.07" y2="398.3" style="fill:none;stroke:#f39411;stroke-miterlimit:10;stroke-width:2.32844px"/><g style="mix-blend-mode:soft-light"><path d="M501.68,407.43,465.56,389.8a68.71,68.71,0,0,1,8.83-1.34l33.49,16.34A29.17,29.17,0,0,1,501.68,407.43Z" style="fill:#fff"/><path d="M494.48,409.08,459,391.77c1.05-.41,2.19-.8,3.4-1.16l36.17,17.65C497.29,408.57,495.92,408.85,494.48,409.08Z" style="fill:#fff"/><path d="M487,409.91l-32.43-15.82,1.39-.87L489.7,409.7C488.81,409.79,487.9,409.86,487,409.91Z" style="fill:#fff"/></g><path d="M486.33,408.64c-16.89,0-30.58-4.91-30.58-11v-7.8l61.16-.64v8.44C516.91,403.73,503.22,408.64,486.33,408.64Z" style="fill:#e3b400"/><path d="M485.91,401.4v7.24H485V401.4Z" style="fill:#e0920b"/><path d="M489.63,401.4v7.18l-.91,0V401.4Z" style="fill:#e0920b"/><path d="M482.71,401v7.61c-.31,0-.61,0-.92,0V401Z" style="fill:#e0920b"/><path d="M479.26,400.12v8.23l-.91-.09v-8.14Z" style="fill:#e0920b"/><path d="M472.25,399.06v8.34c-.31,0-.61-.1-.91-.17v-8.17Z" style="fill:#e0920b"/><path d="M468.79,398.13v8.52l-.91-.23v-8.29Z" style="fill:#e0920b"/><path d="M465.6,397.55v8.19l-.91-.32v-7.87Z" style="fill:#e0920b"/><polygon points="461.18 403.92 461.18 396.09 460.27 396.09 460.27 403.41 461.18 403.92" style="fill:#e0920b"/><polygon points="458.03 401.84 458.03 394.05 457.13 394.05 457.13 400.95 458.03 401.84" style="fill:#e0920b"/><path d="M475.43,399.06v8.86c-.3,0-.61-.08-.91-.13v-8.73Z" style="fill:#e0920b"/><path d="M493.46,400.57v7.78c-.3,0-.61,0-.92.06v-7.84Z" style="fill:#e0920b"/><path d="M496.66,400.12V408l-.92.11v-8Z" style="fill:#e0920b"/><path d="M500.39,399.06v8.35c-.3.06-.6.12-.91.16v-8.51Z" style="fill:#e0920b"/><path d="M503.62,398.91v7.81c-.3.07-.6.15-.91.21v-8Z" style="fill:#e0920b"/><path d="M507.35,397.55v8.08q-.44.17-.9.3v-8.38Z" style="fill:#e0920b"/><polygon points="511.7 403.81 511.7 396.09 510.79 396.09 510.79 404.26 511.7 403.81" style="fill:#e0920b"/><path d="M515.25,393.78v7.47a8.25,8.25,0,0,1-.91.83v-8.3Z" style="fill:#e0920b"/><path d="M490.85,407.26c-16.89,0-26.16-4.19-26.16-10.25v-6.47l-8.94-.67v7.8c0,6.06,13.69,11,30.58,11,8.65,0,16.45-1.29,22-3.36A72.92,72.92,0,0,1,490.85,407.26Z" style="fill:#efd8d5;mix-blend-mode:multiply"/><path d="M459.86,397.93V390l-4.11-.17v7.8c0,6.06,13.69,11,30.58,11C474.8,407.29,459.86,404,459.86,397.93Z" style="fill:#efd8d5;mix-blend-mode:multiply"/><path d="M467.88,397.55s3,5.9,13.21,7.47c28,4.28,35.82-7.35,35.82-7.35V391Z" style="fill:#fff8c3;mix-blend-mode:soft-light"/><path d="M474.43,396.39s2.57,4.86,11.44,6.15c24.24,3.52,31-7.36,31-7.36V391Z" style="fill:#fff8c3;mix-blend-mode:soft-light"/><ellipse cx="486.33" cy="390.96" rx="30.58" ry="11.32" style="fill:#ffef4a"/><ellipse cx="486.33" cy="389.87" rx="30.58" ry="10.97" style="fill:#fd0"/><ellipse cx="486.33" cy="388.98" rx="26.06" ry="9.35" style="fill:#fdc800"/><path d="M463,390c0-5.17,11.67-9.35,26.06-9.35a59.39,59.39,0,0,1,17,2.27c-4.78-2-11.84-3.24-19.73-3.24-14.39,0-26.06,4.18-26.06,9.34,0,2.83,3.51,5.37,9,7.08C465.37,394.42,463,392.29,463,390Z" style="fill:#f5a20a"/><line x1="491.89" y1="394.08" x2="491.89" y2="386.35" style="fill:none;stroke:#f39411;stroke-miterlimit:10;stroke-width:2.7915px"/><line x1="485.59" y1="394.08" x2="485.59" y2="386.35" style="fill:none;stroke:#f39411;stroke-miterlimit:10;stroke-width:2.7915px"/><path d="M498.18,385.66h4.49c1.63,0,1.63,6.57-14.74,6.57-17,0-15.83-6.57-12.95-6.57h2.34" style="fill:none;stroke:#f39411;stroke-miterlimit:10;stroke-width:2.7915px"/><g style="mix-blend-mode:soft-light"><path d="M506.26,398.19l-36.12-17.63a68.71,68.71,0,0,1,8.83-1.34l33.49,16.34A29.17,29.17,0,0,1,506.26,398.19Z" style="fill:#fff"/><path d="M499.06,399.84,463.6,382.53c1-.42,2.19-.81,3.4-1.16L503.17,399C501.87,399.33,500.5,399.61,499.06,399.84Z" style="fill:#fff"/><path d="M491.56,400.67l-32.43-15.82,1.39-.87,33.76,16.48C493.39,400.55,492.48,400.62,491.56,400.67Z" style="fill:#fff"/></g><path d="M481.94,398.85c-16.88,0-30.57-4.91-30.57-11v-7.81l61.15-.64v8.45C512.52,393.94,498.83,398.85,481.94,398.85Z" style="fill:#e3b400"/><path d="M481.53,391.61v7.24c-.31,0-.61,0-.91,0v-7.23Z" style="fill:#e0920b"/><path d="M485.24,391.61v7.18c-.29,0-.6,0-.91,0v-7.21Z" style="fill:#e0920b"/><path d="M478.32,391.17v7.61l-.91,0v-7.57Z" style="fill:#e0920b"/><path d="M474.87,390.33v8.23l-.91-.08v-8.15Z" style="fill:#e0920b"/><path d="M467.86,389.27v8.35l-.9-.18v-8.17Z" style="fill:#e0920b"/><path d="M464.41,388.35v8.52l-.91-.24v-8.28Z" style="fill:#e0920b"/><path d="M461.21,387.76V396l-.91-.31v-7.88Z" style="fill:#e0920b"/><polygon points="456.8 394.13 456.8 386.3 455.89 386.3 455.89 393.62 456.8 394.13" style="fill:#e0920b"/><polygon points="453.65 392.06 453.65 384.26 452.75 384.26 452.75 391.16 453.65 392.06" style="fill:#e0920b"/><path d="M471.05,389.27v8.87c-.31,0-.62-.08-.91-.14v-8.73Z" style="fill:#e0920b"/><path d="M489.07,390.78v7.78c-.3,0-.6.05-.91.06v-7.84Z" style="fill:#e0920b"/><path d="M492.27,390.33v7.88l-.91.12v-8Z" style="fill:#e0920b"/><path d="M496,389.27v8.36l-.9.16v-8.52Z" style="fill:#e0920b"/><path d="M499.24,389.13v7.8c-.3.08-.61.15-.91.21v-8Z" style="fill:#e0920b"/><path d="M503,387.76v8.09l-.9.3v-8.39Z" style="fill:#e0920b"/><polygon points="507.31 394.02 507.31 386.3 506.4 386.3 506.4 394.47 507.31 394.02" style="fill:#e0920b"/><path d="M510.86,384v7.47a9.12,9.12,0,0,1-.9.83V384Z" style="fill:#e0920b"/><path d="M486.46,397.47c-16.88,0-26.16-4.19-26.16-10.25v-6.46l-8.93-.68v7.81c0,6.05,13.69,11,30.57,11,8.65,0,16.45-1.29,22-3.36A73,73,0,0,1,486.46,397.47Z" style="fill:#efd8d5;mix-blend-mode:multiply"/><path d="M455.47,388.14v-7.89l-4.1-.17v7.81c0,6.05,13.69,11,30.57,11C470.42,397.51,455.47,394.2,455.47,388.14Z" style="fill:#efd8d5;mix-blend-mode:multiply"/><path d="M463.5,387.76s2.95,5.91,13.2,7.47c28,4.28,35.82-7.34,35.82-7.34v-6.72Z" style="fill:#fff8c3;mix-blend-mode:soft-light"/><path d="M470.05,386.6s2.56,4.86,11.44,6.15c24.23,3.52,31-7.36,31-7.36v-4.22Z" style="fill:#fff8c3;mix-blend-mode:soft-light"/><path d="M481.94,392.49c-16.88,0-30.57-5.07-30.57-11.32s13.69-11.32,30.57-11.32,30.58,5.07,30.58,11.32S498.83,392.49,481.94,392.49Z" style="fill:#ffef4a"/><path d="M481.94,391.05c-16.88,0-30.57-4.91-30.57-11s13.69-11,30.57-11,30.58,4.91,30.58,11S498.83,391.05,481.94,391.05Z" style="fill:#fd0"/><path d="M481.94,388.54c-14.39,0-26.05-4.18-26.05-9.34s11.66-9.35,26.05-9.35S508,374,508,379.2,496.34,388.54,481.94,388.54Z" style="fill:#fdc800"/><path d="M458.6,380.17c0-5.16,11.66-9.35,26.06-9.35a59.31,59.31,0,0,1,17,2.27c-4.78-2-11.84-3.24-19.73-3.24-14.39,0-26.05,4.18-26.05,9.35,0,2.83,3.5,5.36,9,7.07C461,384.64,458.6,382.5,458.6,380.17Z" style="fill:#f5a20a"/><line x1="487.5" y1="384.29" x2="487.5" y2="376.56" style="fill:none;stroke:#f39411;stroke-miterlimit:10;stroke-width:2.7915px"/><line x1="481.2" y1="384.29" x2="481.2" y2="376.56" style="fill:none;stroke:#f39411;stroke-miterlimit:10;stroke-width:2.7915px"/><path d="M493.8,375.87h4.48c1.63,0,1.63,6.57-14.74,6.57-17,0-15.83-6.57-13-6.57h2.34" style="fill:none;stroke:#f39411;stroke-miterlimit:10;stroke-width:2.7915px"/><g style="mix-blend-mode:soft-light"><path d="M501.87,388.4l-36.11-17.63a68.44,68.44,0,0,1,8.83-1.34l33.49,16.35A29.58,29.58,0,0,1,501.87,388.4Z" style="fill:#fff"/><path d="M494.68,390.05l-35.47-17.3c1.05-.42,2.19-.81,3.41-1.17l36.16,17.65C497.49,389.55,496.11,389.82,494.68,390.05Z" style="fill:#fff"/><path d="M487.17,390.89l-32.42-15.83,1.39-.86,33.76,16.48C489,390.76,488.1,390.83,487.17,390.89Z" style="fill:#fff"/></g><path d="M460.05,61.38c-2-.72-11.11,3.38-11.5,3.44s-2-.64-3.77-.95-2.8.16-4.36,2.38a35.33,35.33,0,0,0-3.05,6.24c-.85.29-1.81.6-2.82.91q1.69,4.09,3.67,8.16c1.57-.78,3-1.48,4.15-2.08a4.39,4.39,0,0,0,2.5.42c2.16-.36,4-.82,5.1-1.1l1-.3h0a4.62,4.62,0,0,0,3.13.18c2.25-.46,3.83-2,3.92-3.05s-1.12-1.77-1.12-1.77A2.68,2.68,0,0,0,458,72c0-1.15-1.9-2.38-1.9-2.38a2,2,0,0,0,.29-2.32c-.72-1.16-3.46-.32-3.69-.25C453.06,66.84,462,62.06,460.05,61.38Z" style="fill:#ffbe9d"/><path d="M442.84,70.58a.45.45,0,0,1-.23,0,.49.49,0,0,1-.16-.67l1.2-1.92a.53.53,0,0,1,.32-.23.51.51,0,0,1,.38.1A6.31,6.31,0,0,0,448.53,69a1.69,1.69,0,0,0,1.24-.67,1,1,0,0,0,.1-.77.49.49,0,0,1,.37-.58.48.48,0,0,1,.54.25,2,2,0,0,1-.19,1.57,2.64,2.64,0,0,1-1.9,1.16,6.8,6.8,0,0,1-4.5-1.06l-.93,1.5A.49.49,0,0,1,442.84,70.58Z" style="fill:#e59f80"/><path d="M451.08,78.53h0l-1,.29a5,5,0,0,1-.87-3.28,3.61,3.61,0,0,0-.42-2.21,3,3,0,0,1-.6-1.83,3.85,3.85,0,0,1,.3-1.57,4.22,4.22,0,0,1,.18-.45c.17-.33.31-.55.32-.58a.49.49,0,0,1,.68-.13.48.48,0,0,1,.13.67l-.06.1a4.07,4.07,0,0,0-.58,1.77,2.18,2.18,0,0,0,.4,1.44,4.36,4.36,0,0,1,.63,2.79A3.67,3.67,0,0,0,451.08,78.53Z" style="fill:#e59f80"/><path d="M444.56,74.56a.51.51,0,0,1-.43-.3.5.5,0,0,1,.28-.63h0s3-1.24,3.4-3.95a.49.49,0,0,1,.54-.42.49.49,0,0,1,.42.54c-.54,3.26-3.88,4.63-4,4.69A.68.68,0,0,1,444.56,74.56Z" style="fill:#e59f80"/><path d="M439.49,81.52S410.7,95.33,402.84,95.73s-31-5.93-31-5.93a65.38,65.38,0,0,1-7.05-1.75c-7-2.19-10.89-5.08-13-8.48-3.5-5.67-.08-12.88,2.94-18.49,0,0,3.35,3.4,21.58,9.62l27.34,8.88s20.81-4,32.51-7.6C436.17,72,437.63,79.9,439.49,81.52Z" style="fill:#e7345a"/><path d="M370,89.43c-7-1.87-12.28-2.55-15.07-8.21-.77-6.78-5.49-25-.18-20.14C354.72,61.08,363.14,81,370,89.43Z" style="fill:#c42751"/><path d="M349.07,41.58l-.51,13.75,0,1.2L348,57.81c-5.86,3.48-22-3-22-3l9.88-27.42C341.66,23.19,349.07,41.58,349.07,41.58Z" style="fill:#eda785"/><path d="M343.12,10.5l-.22,27.05,15.88,2.84s4.38-27.9,4.3-28.32C361.73,5,343.12,10.5,343.12,10.5Z" style="fill:#eda785"/><path d="M334.93,30.13s-1.93,14.72,3,17.7a89.77,89.77,0,0,0,10.67,5.3l.26-7L341.76,26.5Z" style="fill:#db8f72"/><path d="M362.36,17.23s-14.3-5.24-16.64,13.9l-2.2-9,2.63-9,6.22-2.71,9.12-.5.92,4,.23,1.4Z" style="fill:#db8f72"/><path d="M347.81,14.85a2,2,0,0,0-.88,1.5L345.7,30.58a2,2,0,0,0,0,.55c.21,1.1,1.21,4.84,5,3.58,3.42-1.13,6.55-2.11,8.77-1.55A2,2,0,0,1,361,35.4a85.74,85.74,0,0,1-3,13,2,2,0,0,1-2.36,1.29,64.84,64.84,0,0,1-14.12-5,2,2,0,0,1-1.05-1.75c0-3.58-.09-14.46-.59-17.5,0,0-2.63-10.91,1-12.24s8.46.78,8.46.78Z" style="fill:#282c3a"/><path d="M339.9,21.72l.46,2.29s.51-10.74,4.11-10.52S361.15,17,365.76,14c4.45-2.88,4.78-9.21,2.18-12.27a.49.49,0,0,0-.66-.07l-.52.39a.49.49,0,0,1-.69-.1.44.44,0,0,1-.09-.38h0a.51.51,0,0,0-.42-.57.54.54,0,0,0-.33.07c-1.4.89-4.52,1.91-10.74.21-8.83-2.42-15.77-1.73-18.61,3.81a.48.48,0,0,1-.66.22.46.46,0,0,1-.21-.18c-.42-.65-1.29-1.29-3.08-.83-3.12.81-4.56,6.09-1.62,12.44a.49.49,0,0,1-.22.66l-.14,0c-1.17.14-3.14.88-.61,4.35s4.76,4.36,5.64,4.53a.49.49,0,0,0,.56-.3l2.1-5.14a.5.5,0,0,1,.64-.28l0,0Z" style="fill:#282c3a"/><path d="M332.68,25.77c-1.24-5.83,3.11-7.06,6.18-5.21s.54,10.09.54,10.09S334.22,33,332.68,25.77Z" style="fill:#eda785"/><path d="M359.05,38.68s0,.21-.07.52c-.17,1-.77,3.13-2.83,2.68a18.93,18.93,0,0,1-3.58-1s-1.83-.49.27-1.15A35.23,35.23,0,0,1,359.05,38.68Z" style="fill:#eda785"/><g id="man"><path d="M258.33,160c.12-4,1-8.91,3.08-10.75a9.8,9.8,0,0,0,2.91-4.11l2.64.54,3.15.64s0,.31.06.83.06,1.24,0,2.06a2.71,2.71,0,0,0,.48,2.45,5.78,5.78,0,0,1,1.09,4.69c-.43,1.51-.23,4.81-.77,4.89-1.3.21-.87-4.57-1.65-5.16a1,1,0,0,0-1.32,0l0,0c-2.94,2.69-4.36,12.28-6.59,11.8C260.6,167.7,258.27,161.69,258.33,160Z" style="fill:#eda785"/><path d="M264.32,145.13a12.21,12.21,0,0,1-1.9,3.1c-1,1-3.42,1.7-4.1,12.1,0,0,1.12,5.27,3.11,7.55,0,0-.65-11.95,8.79-19.59C270.22,148.29,265.21,145.81,264.32,145.13Z" style="fill:#db8f72"/><path d="M265.93,147.38a31.81,31.81,0,0,0,7,1.87s16.58-29.16,18.48-31.74,37.62-30.43,37.62-30.43l-12.6-27.27s-35,40.33-39.67,47c-7.71,11-15.12,37.64-15.12,37.64A13.16,13.16,0,0,0,265.93,147.38Z" style="fill:#e7345a"/></g><path d="M352.6,56c-.08.31-.41.55-4.07.71l.05-1.81C352,55.16,352.64,55.72,352.6,56Z" style="fill:#898888"/><path d="M369.69,165.4c.24,2.3-18.8,1.69-20.26,1.72h-.09l-13-2.71-6.69-13.67-2.39-45.31,9.14-49.82h0c.39-.29.12-.49.07,0,.24.1.6.06.85.14,7,2.09,15.24.27,15.24.27a25.8,25.8,0,0,1,1.19,3c9.24,25.4,10.86,39.7,12.59,61C368,140,369.57,164.26,369.69,165.4Z" style="fill:#fff"/><path d="M336.44,55.61s23.59,37.55,24.88,112l-12-.5L331.18,67.85Z" style="fill:#eae8e9"/><path d="M341.92,56.41s12.66,59.14,8,115.88a73.91,73.91,0,0,1-43.07-10.51l2.86-27L310,94.24S296.67,72.59,326.46,50.9C326.46,50.9,332.52,50.46,341.92,56.41Z" style="fill:#e7345a"/><path d="M327.4,110.27c-1.47,14.31-6.41,30.07-19.38,39.15.74-8.58,1.84-23.49,1.9-40.83,0-3.17-.15-3.19-.1-6.28a58.22,58.22,0,0,1,9.34-8.08,2.68,2.68,0,0,1,3.84.89l1.86,3.25A19.88,19.88,0,0,1,327.4,110.27Z" style="fill:#c42751"/><path d="M358.07,38.51s0,.21-.06.53c-.17,1-.77,3.12-2.83,2.67a19.33,19.33,0,0,1-3.58-1s-1.83-.49.27-1.16A36.26,36.26,0,0,1,358.07,38.51Z" style="fill:#eda785"/><rect x="470.55" y="8.58" width="60.04" height="60.04" rx="12" style="fill:#ef8978"/><path d="M511.38,43.85a10.27,10.27,0,0,0-1.45-5.18.31.31,0,0,0-.58.16c0,2.64-.87,9.67-8.55,17.63a.32.32,0,0,1-.46,0c-7.68-8-8.54-15-8.55-17.63a.31.31,0,0,0-.58-.16,10.18,10.18,0,0,0-1.46,5.18.3.3,0,0,0,.17.28l.85.45a.32.32,0,0,1,0,.56l-.72.35a.32.32,0,0,0-.17.33c1.14,7.73,9.1,15.11,10.48,16.34a.32.32,0,0,0,.41,0c1.38-1.23,9.34-8.61,10.48-16.34a.32.32,0,0,0-.17-.33l-.71-.35a.32.32,0,0,1,0-.56l.85-.45A.28.28,0,0,0,511.38,43.85Z" style="fill:#fff"/><path d="M505.83,40.38v2.11a.94.94,0,0,1-1.27,1L502,42.19l-.1-.06a.69.69,0,0,1-.61.35h-1.38a.69.69,0,0,1-.58-.3l-.11.08-2.61,1.28a.93.93,0,0,1-1.26-1V40.45a.93.93,0,0,1,1.26-1l2.61,1.28.05,0a.7.7,0,0,1,.64-.4h1.38a.7.7,0,0,1,.61.35l.1-.05,2.6-1.29A.94.94,0,0,1,505.83,40.38Z" style="fill:#fff"/><circle cx="500.57" cy="46.42" r="0.51" style="fill:#fff"/><circle cx="500.56" cy="49.25" r="0.51" style="fill:#fff"/><circle cx="500.57" cy="52.45" r="0.51" style="fill:#fff"/><path d="M510,25.71l-.05-.06c.64-6.27-3.38-9.43-5.74-10.25l0,0h0a9.16,9.16,0,0,0-2.54-.4l-.54,0-.53,0a9.11,9.11,0,0,0-2.54.4h-.07c-2.36.83-6.37,4-5.73,10.26a.34.34,0,0,0-.06.06,3.7,3.7,0,0,0-.31,3.13,4.81,4.81,0,0,0,1.72,3,9.78,9.78,0,0,0,1.66,3.4v0c.06.07.1.15.15.22L497,37.07a6.88,6.88,0,0,0,3.79,1.47h.26A6.67,6.67,0,0,0,505.13,37l1.66-1.56.12-.14,0,0a9.86,9.86,0,0,0,1.69-3.43,4.86,4.86,0,0,0,1.71-3A3.67,3.67,0,0,0,510,25.71Zm-1.26,2.76c-.5,2.12-1.34,2.25-1.53,2.25h-.05a7.59,7.59,0,0,1-1.93,4.13v0A5.84,5.84,0,0,1,500.88,37a6.23,6.23,0,0,1-3.95-2.05v0a7.7,7.7,0,0,1-2-4.18h0c-.19,0-1-.13-1.52-2.25-.38-1.64,0-1.9.31-1.9a.58.58,0,0,1,.25.06l.67,2.06s-.45-5.81,2.68-6.25c0,0,3.32,3.43,7.44,4.17,0,0-.89-1.64-1.63-3.13,0,0,2.38,2.68,4.46,3.13a8.3,8.3,0,0,0,.76-1.23,12.14,12.14,0,0,1-.18,1.25.63.63,0,0,1,.25-.06C508.7,26.57,509.1,26.83,508.72,28.47Z" style="fill:#fff"/></g></g></g></svg>