<svg xmlns="http://www.w3.org/2000/svg" width="342.56" height="231.27" viewBox="0 0 342.56 231.27"><g id="Calque_2" data-name="Calque 2"><g id="Calque_177" data-name="Calque 177"><g id="illu-home-2"><g id="Calque_2-2" data-name="Calque 2"><g id="Calque_137" data-name="Calque 137"><path id="Tracé_519" data-name="Tracé 519" d="M341.85,231.27H.71c-.39,0-.71-.56-.71-1.24H0c0-.69.32-1.26.71-1.26H341.85c.38,0,.7.56.7,1.25h0C342.55,230.72,342.23,231.27,341.85,231.27Z" style="fill:#2e3552"/><rect id="Rectangle_45" data-name="Rectangle 45" x="207.78" y="131.05" width="2.89" height="97.72" style="fill:#222750"/><path id="Tracé_520" data-name="Tracé 520" d="M294.62,191.89s7.25,5.89,8.39,7S294.62,209,294.62,209s1-9.14,0-10.12-6.49-1.65-6.49-1.65Z" style="fill:#eda785"/><path id="Tracé_521" data-name="Tracé 521" d="M298.67,193.82s7.8,4.13,7.8,5.77-10.67,15.25-12.07,16c-2,1.1-8.92,1.67-10.07.52s2-3.56,3.8-5.34,3.25-4.49,3.25-6.2-3.34-6.34,0-6.34S298.67,193.82,298.67,193.82Z" style="fill:#282828"/><path id="Tracé_522" data-name="Tracé 522" d="M300.29,205.9l2.25,4.46a10.33,10.33,0,0,0,4.83,4.7h0l-5.22,8.53s-7.4,4.91-10.2,3.77,6-5.3,6-5.3l-3.71-12.17Z" style="fill:#eda785"/><path id="Tracé_523" data-name="Tracé 523" d="M248.75,93.49s-1.4,4.49,0,5.88,3.71,2.84,3.71,4.47-1,22.72,3.8,23.76,22.1-16.71,22.1-16.71l-7-8.57s-11.08,13.22-11.08,11.84-4.48-12-4.48-12l2.2-4.41s1.38-5.22-1.24-6.33S248.75,93.49,248.75,93.49Z" style="fill:#db8f72"/><path id="Tracé_524" data-name="Tracé 524" d="M256.23,123.31c-3.4-1.89-3.44-15.6-3.76-19.42,0,2-1,22.68,3.79,23.7s22.1-16.71,22.1-16.71l-3.24-3.95C270.7,112.21,259.43,125.09,256.23,123.31Z" style="fill:#db8f72"/><path id="Tracé_525" data-name="Tracé 525" d="M252.24,102.93a2.28,2.28,0,0,1,.18.52C252.37,103,252.31,102.85,252.24,102.93Z" style="fill:#ff5921"/><path id="Tracé_526" data-name="Tracé 526" d="M289.06,86.67s-1.57-.93-5.09.6-15.39,16-15.39,16l10.24,8.81a120.61,120.61,0,0,0,9.45-12.71C293,92.12,289.06,86.67,289.06,86.67Z" style="fill:#ff5b51"/><path id="Tracé_527" data-name="Tracé 527" d="M307.44,140.86l-2.87,1.74s-53.68,9.83-55.82,18.51,41.84,37.8,41.84,37.8l8.3-6.61S271,173,274.1,169.89s40.28-10.23,40.28-10.23Z" style="fill:#222750"/><path id="Tracé_528" data-name="Tracé 528" d="M236.89,210.47s1.72,14.41,2.67,14.41h19.49s-10.55-4.28-12.52-6.25-4-8.7-4-8.7Z" style="fill:#eda785"/><path id="Tracé_529" data-name="Tracé 529" d="M238.16,221.2s11.53,1.66,13,.17,8.57,2.63,8.57,3.5-18.76,1.67-21.86.66C236.86,225.2,238.16,221.74,238.16,221.2Z" style="fill:#282828"/><path id="Tracé_530" data-name="Tracé 530" d="M204.58,75.85s-.13,8.24,1.56,12.53-11.49,3.94-11.49,3.94l1.63-25.13Z" style="fill:#eda785"/><path id="Tracé_531" data-name="Tracé 531" d="M204.58,75.85l-4-4.21c-.18,2.7-.1,4.9.29,5.8a8.57,8.57,0,0,0,4,4C204.53,78.45,204.58,75.85,204.58,75.85Z" style="fill:#db8f72"/><path id="Tracé_532" data-name="Tracé 532" d="M216.59,77.34,226,87.66l4.25-3.89-5.81-12Z" style="fill:#fff"/><path id="Tracé_533" data-name="Tracé 533" d="M217.23,77.39c-.21,0-.36,0-.4-.07-.2-.28.68-1.73,3.11-3.52a10.26,10.26,0,0,1,3.88-2c.21,0,.35,0,.4.06.2.28-.68,1.73-3.11,3.52A10.43,10.43,0,0,1,217.23,77.39Z" style="fill:#d3d3d3"/><path id="Tracé_534" data-name="Tracé 534" d="M215,91.08s11.63,13,12.78,12.35-2-15.89-1.72-16.9-4.93-2.07-4.68-3,1.2.35,3.46-.93.48-7.24,1.17-7a10.35,10.35,0,0,1,4.44,2.87c2,2,1.14,31.15-2.38,33.15s-18.53-15.72-18.53-15.72Z" style="fill:#eda785"/><path id="Tracé_535" data-name="Tracé 535" d="M226.33,88.86s.76,18.23,1.38,23.5,9.5,8.06,9.5,8.06V108.85c0-7.13-5.68-21.59-5.68-21.59Z" style="fill:#eda785"/><path id="Tracé_536" data-name="Tracé 536" d="M289.79,132.4h-114a4.18,4.18,0,0,1,4.18-4.18H285.62a4.18,4.18,0,0,1,4.18,4.18Z" style="fill:#ef8978"/><path id="Tracé_537" data-name="Tracé 537" d="M326.42,131.72s12.42-3.5,16.12-2.29L337.64,144l-14.76-2.52Z" style="fill:#c42751"/><path id="Tracé_538" data-name="Tracé 538" d="M207.43,54.24s3.38,2.14,4.14,4.06-.07,16-2.07,18.8-7.16.22-8.68-2.82S202.48,51.28,207.43,54.24Z" style="fill:#eda785"/><path id="Tracé_539" data-name="Tracé 539" d="M228,100.89a75.28,75.28,0,0,0-10-12,16.61,16.61,0,0,0-15.2-4.26c-1.29.29-2.67.58-4.08.87a16.68,16.68,0,0,0-13.41,15.93l-1,38.35a16.59,16.59,0,0,0,16.06,17.09,17,17,0,0,0,2.47-.11,7.69,7.69,0,0,0,4.39-1.72c4.55-4.55,2.61-33.08,4.53-38.45,1.25-3.47,1.9-3.44,2.09-8,0,0,16.25,17.68,19.56,17.68,3.72,0,3.72-3.61,3.72-8S236.07,113,228,100.89Z" style="fill:#9eb5fe"/><path id="Tracé_540" data-name="Tracé 540" d="M202.85,84.63c-1.28.29-2.66.58-4.07.87a16.69,16.69,0,0,0-13.42,15.93l-.55,22.14a11.46,11.46,0,0,0,4,.35c9.76-.9,19.58-9.84,20.05-19.17.36-7.39-2-14.43-3.79-20.46A17,17,0,0,0,202.85,84.63Z" style="fill:#7c8cb5"/><rect id="Rectangle_46" data-name="Rectangle 46" x="204.57" y="176.19" width="1.75" height="52.78" style="fill:#222750"/><rect id="Rectangle_47" data-name="Rectangle 47" x="178.45" y="176.19" width="1.75" height="52.78" style="fill:#222750"/><rect id="Rectangle_48" data-name="Rectangle 48" x="211.45" y="176.19" width="1.75" height="52.78" style="fill:#222750"/><rect id="Rectangle_49" data-name="Rectangle 49" x="272.35" y="132.4" width="2.89" height="96.62" style="fill:#222750"/><path id="Tracé_541" data-name="Tracé 541" d="M314.37,142.5s-25.43,7.16-44.62,14.39,24,55,24,55l9.09-4.13s-20.8-36.44-17.59-39.64,34.73-11.39,34.73-11.39Z" style="fill:#323b6b"/><path id="Tracé_542" data-name="Tracé 542" d="M249.49,212.94s1.72,14.41,2.67,14.41h19.49s-10.55-4.28-12.52-6.25-4-8.7-4-8.7Z" style="fill:#eda785"/><path id="Tracé_543" data-name="Tracé 543" d="M236.36,166.92c-3.71-3.72-31.79-18.62-31.79-18.62L184,154.5s.93,7.95,4.55,11.57,39,10.12,39,10.12l6.14,38.89c1.83-.14,9.43-1.7,11.25-1.74C244.69,211.44,240.08,170.64,236.36,166.92Z" style="fill:#222750"/><path id="Tracé_544" data-name="Tracé 544" d="M212.32,145.21s27.83,2.38,34.7,19.87c2.09,5.3,11.68,50.54,11.68,50.54l-9.54,1.25s-13.44-33.66-14.36-39.65-26.35-8.91-31.51-9.95S188.82,154,188.82,154Z" style="fill:#323b6b"/><path id="Tracé_545" data-name="Tracé 545" d="M162.12,124.75s1.7,40.49,16.32,51.44h49.14s9.69-4.75,9.69-14-4.65-19.43-29.92-30.58S162.12,124.75,162.12,124.75Z" style="fill:#e7345a"/><path id="Tracé_546" data-name="Tracé 546" d="M207.35,131.57a89.63,89.63,0,0,0-25.74-7.1c5.23,1.33,14.24,3.35,20.29,6.37,25.27,12.64,30.51,21.92,30.51,32.46,0,9.36-4.85,11.35-7.67,12.89h2.84s9.69-4.75,9.69-14.05S232.62,142.72,207.35,131.57Z" style="fill:#fff"/><rect id="Rectangle_50" data-name="Rectangle 50" x="225.66" y="177.23" width="1.75" height="51.74" style="fill:#222750"/><rect id="Rectangle_51" data-name="Rectangle 51" x="178.45" y="176.19" width="48.97" height="4.75" style="fill:#222750"/><rect id="Rectangle_52" data-name="Rectangle 52" x="283.45" y="174.79" width="1.76" height="54.18" style="fill:#222750"/><rect id="Rectangle_53" data-name="Rectangle 53" x="325.89" y="175.15" width="1.75" height="53.82" style="fill:#222750"/><rect id="Rectangle_54" data-name="Rectangle 54" x="283.45" y="173.51" width="44.19" height="3.73" style="fill:#222750"/><path id="Tracé_547" data-name="Tracé 547" d="M207.3,49.28s-3.72-2.89-11.57,0-6.61,9.78-5.92,14.18c.72,4.64-6.33,6.23-8.85,8.86-8.79,9.22-12.21,23.71-10,36.07a15.19,15.19,0,0,0,16.6,12.26c9.76-.91,16.56-10.38,17-19.7.69-14-4.27-23-.14-30s2.75-10.75,4.13-12.12a2.61,2.61,0,0,1,3-.48S222.11,48,207.3,49.28Z" style="fill:#233862"/><path id="Tracé_548" data-name="Tracé 548" d="M284,87.26s-2.17,9.95-1.35,17.25c.65,5.71,13.89,26.16,19.64,34.81a12.7,12.7,0,0,0,7.09,5.19l19.27,5.55,3.58,2.51a91.65,91.65,0,0,0-1-17.9c-1.51-11.29-26.3-52.6-31.94-52.6S284,87.26,284,87.26Z" style="fill:#ff7768"/><path id="Tracé_549" data-name="Tracé 549" d="M286.22,92.48h.16c9.24-.78,12.49-9.24,12.63-9.6l.21-.57-.14-.24c-5.67.13-15.11,5.2-15.11,5.2s-.09.4-.22,1.09C284,90.37,284.41,92.48,286.22,92.48Z" style="fill:#fff8f3"/><path id="Tracé_550" data-name="Tracé 550" d="M304.69,86.81l-6-1S291,105.32,287.25,115.1c1.22,2.23,2.61,4.61,4.06,7a11.71,11.71,0,0,1,2.12-3.81c2-2,4.33-.91,5.22-1.83s8.7-12.82,8.7-20.2S304.69,86.81,304.69,86.81Z" style="fill:#ff5b51;isolation:isolate;opacity:0.699999988079071"/><path id="Tracé_551" data-name="Tracé 551" d="M297.09,105.78s-9.84,21.79-13.64,22.47c-4.17.75-25.72,0-25.72,0h-6a4.06,4.06,0,0,1-4.15-3.74c-.05-.87.19-1.57,1-1.57,2.42,0,7.94.47,9.31.47s14.8-1.31,16.32-2.83,13.39-24.28,13.39-24.28Z" style="fill:#eda785"/><path id="Tracé_552" data-name="Tracé 552" d="M292.4,115.41c2.62-5,4.69-9.62,4.69-9.62l-9.4-9.5s-3.17,6.08-6.45,12.16C284.1,110.89,288.55,114.31,292.4,115.41Z" style="fill:#db8f72"/><path id="Tracé_553" data-name="Tracé 553" d="M283.45,171.85s4.82-10.19,17.5-20.66,41.59-21.76,41.59-21.76,1.24,39-14.73,44.07H283.45Z" style="fill:#e7345a"/><path id="Tracé_554" data-name="Tracé 554" d="M326.23,168.55H285.34a36,36,0,0,0-1.89,3.3v1.65h44.34c12.52-4,14.47-28.77,14.73-39.32C340.12,149.64,335.41,164.77,326.23,168.55Z" style="fill:#c42751"/><path id="Tracé_555" data-name="Tracé 555" d="M286.75,66.48,297.8,82.41s-3,8-11.53,8.77c-1.3.11-1.23-4.07-1.53-5.34l-2.51-10.68Z" style="fill:#eda785"/><path id="Tracé_556" data-name="Tracé 556" d="M288.32,68.37l-5.41,9.7,1.16,5a39.73,39.73,0,0,0,4.81-13.51Z" style="fill:#db8f72"/><path id="Tracé_557" data-name="Tracé 557" d="M284.14,57.4s4.18,7.36,4.18,11-2.09,10.12-9.48,10.92c-4.62.5-6.94-13.6-6.21-19.4S281.31,53.45,284.14,57.4Z" style="fill:#eda785"/><path id="Tracé_558" data-name="Tracé 558" d="M275.5,72.56s-.09,1,2.05,1.41c0,0,1.88.14,2-.8A18.89,18.89,0,0,1,275.5,72.56Z" style="fill:#fff"/><path id="Tracé_559" data-name="Tracé 559" d="M283,60.63,285,58s1.7-1.42,2.46.31,1.37,4.94.82,5.69a9.56,9.56,0,0,1-2.05,1.7L283,61Z" style="fill:#eda785"/><path id="Tracé_560" data-name="Tracé 560" d="M290.58,86.67c-3.08,4.56-7.27,16.56-7.95,17.84-1.74,3.24,10.09,8.5,12.3,7.95s8.64-14,10-19c1-3.59.12-8.57-3.3-10.67C297.7,80.4,293.09,82.94,290.58,86.67Z" style="fill:#ff7768"/><path id="Tracé_561" data-name="Tracé 561" d="M283.45,171.85c3.4-9.69,12.24-19.29,20.67-25.36,9.11-6.63,27.16-14.3,38.41-17.06-25.76,14.38-38,18.15-53.3,35.19A76,76,0,0,0,283.45,171.85Z" style="fill:#fff"/><path id="Tracé_562" data-name="Tracé 562" d="M288.88,69.55s-2.35-4-1.55-6c.69-1.63,1.55-5.62-.74-4.93-1.44.42-1.41,2.3-2,1.63s-1.19-2.93-5.46-3.13-6,1.29-8,.41-2.09-3.87-2.09-3.87a3.39,3.39,0,0,0,1.42,1.41s-3.46-4.58.87-7c4.1-2.25,7.46-.55,9.66-.41,4.89.3,6.88,3,8.47,6.22S290.79,65,288.88,69.55Z" style="fill:#282c3a"/><path id="Tracé_563" data-name="Tracé 563" d="M257.15,85.19l-5.1-.81a.46.46,0,0,0-.42.13h0L251,85l1.9,12.74,4.9.79.35-.07.75-.58h0a.42.42,0,0,0,.15-.38L257.8,85.87A.8.8,0,0,0,257.15,85.19Z" style="fill:#050505"/><path id="Tracé_564" data-name="Tracé 564" d="M257.78,98.53l-5.1-.81a.8.8,0,0,1-.65-.66L250.8,85.42a.44.44,0,0,1,.35-.49.37.37,0,0,1,.18,0l5.1.8a.81.81,0,0,1,.64.67l1.23,11.64a.42.42,0,0,1-.37.48.43.43,0,0,1-.16,0Z" style="fill:#33302f"/><path id="Tracé_565" data-name="Tracé 565" d="M252.78,86.32l-1.19-.23a.46.46,0,0,1-.35-.38h0a.22.22,0,0,1,.2-.26.33.33,0,0,1,.1,0l1.19.23a.43.43,0,0,1,.35.37h0a.25.25,0,0,1-.2.28Z" style="fill:#fff"/><path id="Tracé_566" data-name="Tracé 566" d="M248.75,93.49s7-1.15,8.18,0-5.62,2.09-5.62,2.09Z" style="fill:#db8f72"/><path id="Tracé_567" data-name="Tracé 567" d="M250.1,97.38s5.67-.46,5.8-1.65-5.23-.44-5.23-.44Z" style="fill:#db8f72"/><path id="Tracé_568" data-name="Tracé 568" d="M251.32,93.25s3.5.44,4.58-.83c.7-.82-4.72-.15-4.72-.15Z" style="fill:#db8f72"/><path id="Tracé_569" data-name="Tracé 569" d="M302.34,209.81s6.84,3.62,6.84,5.06-9.28,13.54-10.58,14c-.52.21-10.12.05-10.47-.31-1-1,3.41-2.33,5-3.9s2.84-3.93,2.84-5.43-2.93-5.56,0-5.56S302.34,209.81,302.34,209.81Z" style="fill:#282828"/><path id="Tracé_570" data-name="Tracé 570" d="M250.76,223.68s11.54,1.66,13,.18,8.59,2.62,8.59,3.5S253.6,229,250.5,228C249.45,227.67,250.76,224.21,250.76,223.68Z" style="fill:#282828"/></g></g><path d="M107.14,45.58s.15-6.41.57-7.41a6.07,6.07,0,0,1,2.43-2.85A31.09,31.09,0,0,0,114,33.9a45.25,45.25,0,0,0,3.57-3.28s2.28-.57,2.42.14-3.28,3.85-3.28,3.85l1.43.57,7.55.14,4.42-4.42s1.57-1,1.42,0-4.41,6.56-4.84,6.56S113.84,42,113.84,42l-1.42,5.56Z" style="fill:#eda785"/><path d="M120.68,39.17s3-.86,3.42-1.57,3.57-7,3.85-7.41-1.57-.14-2.28,0S123,36.46,123,36.46l-3.13,1Z" style="fill:#eda785"/><path d="M121.76,38.08s3.11-.19,3.68-.79,5-6.05,5.36-6.41-1.5-.47-2.23-.49-4,5.54-4,5.54l-3.28.3Z" style="fill:#eda785"/><path d="M109.71,41.73s-.14-2.85,1.71-4.27,7.69-1.57,7.69-1.57,2.86-5.56,3.57-5.56,2.42-.71,2.28,0a53.1,53.1,0,0,1-2.57,5c-.71,1.43-1,3.28-1.71,3.85s-4.84,1.57-4.84,1.57" style="fill:#eda785"/><polygon points="104.86 50.28 106.43 45.01 113.56 46.15 111.85 52.71 104.86 50.28" style="fill:#fff"/><path d="M76.22,44.58s6.27,1.72,7.41,3.85S94.32,66,94.89,67s1,1.85,1,1.85,7-17,7.26-18,2.71-1.29,3.42-1.29,7.27.43,7.56,2.14-8.27,34.2-9.12,34.92a6.11,6.11,0,0,1-4.56.57c-1.43-.43-20.1-9.84-20.1-9.84Z" style="fill:#fff"/><path d="M41.39,100.36,36.3,160.1,33.16,212s-1.76,2.15-1.56,3.13,1.17,3.72,1.17,3.72-2.94,8.42-2.15,9A19.62,19.62,0,0,0,33,229.24h8s1.56-1.56,1.37-2.74S41,218.27,41,218.27a36.7,36.7,0,0,0,2-3.91c.19-.79-1-4.9-1-4.9l18.8-72.08s8,45.05,10,55.43S76.56,229,76.56,229h4.11l.59-1.76s.19-.39,2.15.78a6.45,6.45,0,0,0,3.72,1H97.32s.78-1,.19-1.17-8.61-5.62-10-6.8a36.88,36.88,0,0,1-3.73-4.31,33.25,33.25,0,0,0,1.37-4.11,25.29,25.29,0,0,0-1.76-3.92l-1.28-52.47.59-54.46Z" style="fill:#222a42"/><path d="M48,42.4,35.58,48.34l6,38.51L41,102.13s10.27,5.63,21.89,5.26a56.85,56.85,0,0,0,20.41-4.53l.62-33.37s-1.23-16.26-2.69-18.95S79,46.62,76.91,45s-8.44-3.43-8.44-3.43-11.49-1-11.86-1S48,42.4,48,42.4Z" style="fill:#2e3552"/><polygon points="61.45 56.46 68.72 69.61 70.43 54.08 65.29 46.62 61.5 55.18 61.45 56.46" style="fill:#fff"/><polygon points="65.81 49.24 70.19 55.13 71.33 42.4 68.67 39.17 65.81 49.24" style="fill:#fff"/><polygon points="49.85 29.29 50.8 39.74 65.81 49.24 72.28 31.57 49.85 29.29" style="fill:#eda785"/><path d="M50.42,35.49a16.23,16.23,0,0,0,7,1.31c5.23-.22,11.27-2.55,14.33-3.88l.5-1.35L49.85,29.29Z" style="fill:#db8f72"/><polygon points="65.81 49.24 61.45 56.46 47.95 42.4 50.04 38.98 65.81 49.24" style="fill:#fff"/><path d="M69.48,74.36a1.22,1.22,0,0,1-.85,1.09.62.62,0,0,1-.85-.61,1.22,1.22,0,0,1,.85-1.09A.62.62,0,0,1,69.48,74.36Zm-.85,8.46a1.22,1.22,0,0,0-.85,1.09.61.61,0,0,0,.85.6,1.19,1.19,0,0,0,.85-1.08A.62.62,0,0,0,68.63,82.82Zm0,9.07A1.22,1.22,0,0,0,67.78,93a.61.61,0,0,0,.85.6,1.19,1.19,0,0,0,.85-1.08A.62.62,0,0,0,68.63,91.89Zm0,9.07a1.21,1.21,0,0,0-.85,1.09.62.62,0,0,0,.85.6,1.21,1.21,0,0,0,.85-1.08A.62.62,0,0,0,68.63,101Z" style="fill:#fff"/><path d="M82.92,91.19s5.55-4.71,6.27-4.71,4.27,2.71,4.27,2.71,3.57-.43,3.71.43a12.65,12.65,0,0,1-.57,3.28l-.86.85S93.32,97.46,93.32,98s-3.13.42-4.56.71S83.34,98,83.34,98Z" style="fill:#eda785"/><polygon points="77.5 90.76 84.06 90.9 84.2 97.74 78.78 97.88 77.5 90.76" style="fill:#fff"/><path d="M47.29,61.81A11.15,11.15,0,0,0,43,53a49.61,49.61,0,0,0-6.09-4.32c-1.71-.71-2.57-.43-5,1.28s-3.28,5.27-3.14,11.12S33,97.74,33.47,99s1.71,1.57,2.85,1.71,40.42-1.2,41.18-1.28c2.71-.28,3.15-4,3-5.7-.28-3.13-3-4.13-7.12-4.56S49,86.34,48.29,86.2a8.8,8.8,0,0,1-1.43-.43s.43-16.67.43-21.23C47.29,63.52,47.3,62.62,47.29,61.81Z" style="fill:#fff"/><polygon points="148.04 30.33 94.03 30.33 91.18 28.05 151.47 28.05 148.04 30.33" style="fill:#8c8c8c"/><polygon points="54.9 86.65 55.1 120.54 83.5 120.54 84.06 90.9 54.9 86.65" style="fill:#f2f2f2"/><path d="M63.48,6.49a7.28,7.28,0,0,1,4.57,3.85c1.71,3.28,6.42,17,6.56,18.83S72.76,31.6,70.47,33s-9.7,2.57-13.83,1.14-5-3.71-5-3.71-1.57,1.86-4.56-.14-3.57-4.71-2.43-5.7,3-.15,3-.15-3.14-7.7-2.86-10.41.43-5.42,5-7.28S63.48,6.49,63.48,6.49Z" style="fill:#eda785"/><path d="M69.55,24.08s.47,2.12-3.77,3.43c0,0-3.78.81-4.37-1.06A38.13,38.13,0,0,0,69.55,24.08Z" style="fill:#fff"/><path d="M46.51,22.18s.85,3,1.42,3.14,3,.57,2.86-.86-2.39-4.34-2.11-6.05,2.69-3.07,2.61-4.93c0-1.23-1.86-1.8-1.44-2.51s6.31-4.79,9.78-4.34c2.55.33,5.69,2,6.38.77.52-1-.72-4.84-4.6-6.73C55.59-2.17,47.27,4.68,44.8,9s-.69,6.57-.43,8.31A18.58,18.58,0,0,0,46.51,22.18Z" style="fill:#232428"/><polygon points="65.81 49.24 64.43 51.52 66.32 51.83 67.36 51.32 65.81 49.24" style="fill:#c1c0bf"/><path d="M65.87,51.83l-4.67-1a1.13,1.13,0,0,0-1.35,1.32l.72,3.65a1.13,1.13,0,0,0,1.79.68L66,53.69a1.13,1.13,0,0,1,1.15-.13l3.75,1.7a1.13,1.13,0,0,0,1.58-1.2l-.57-3.58a1.13,1.13,0,0,0-1.67-.8l-3.59,2A1.14,1.14,0,0,1,65.87,51.83Z" style="fill:#111110"/><path d="M32.77,218.86l8.23-.59,1.54,9.23L41,229.24H33l-2.35-1.37S29.9,226.33,32.77,218.86Z" style="fill:#1c1a17"/><path d="M97.51,227.8l-2-1.19h.09l-8-5.61s-5.67-2.82-9.25-1.49a25.58,25.58,0,0,0-2.94,1.41l.86,5.69.36,2.36h4.11s2-1.37,2.74-1A23.11,23.11,0,0,0,86,229H97.32l.59,0A.92.92,0,0,0,97.51,227.8Z" style="fill:#1c1a17"/></g></g></g></svg>