<svg xmlns="http://www.w3.org/2000/svg" xmlns:xlink="http://www.w3.org/1999/xlink" width="365.65" height="470.48" viewBox="0 0 365.65 470.48"><defs><linearGradient id="_ÂÁ_Ï_ÌÌ_È_ËÂÌÚ_17" x1="-7959.78" y1="1848.23" x2="-7900.28" y2="1848.23" gradientTransform="matrix(0.78, 0.45, -0.2, 1.04, 6893.38, 1698.64)" gradientUnits="userSpaceOnUse"><stop offset="0" stop-color="#7bdaff"/><stop offset="1" stop-color="#59bdef"/></linearGradient><linearGradient id="_ÂÁ_Ï_ÌÌ_È_ËÂÌÚ_17-2" x1="-2928.04" y1="-318.43" x2="-2777.73" y2="-318.43" gradientTransform="matrix(-0.78, 0.45, 0.2, 1.04, -1922.3, 1698.64)" xlink:href="#_ÂÁ_Ï_ÌÌ_È_ËÂÌÚ_17"/></defs><g id="Calque_2" data-name="Calque 2"><g id="Calque_5" data-name="Calque 5"><path d="M206.25,462.48c0,4.42-46.17,8-103.13,8S0,466.9,0,462.48s46.17-8,103.12-8S206.25,458.07,206.25,462.48Z" style="fill:#323b6b;opacity:0.2"/><polygon points="99.56 181.49 126.34 211.83 115.17 231.09 101.96 207.81 99.56 181.49" style="fill:#bf3734"/><path d="M126.27,432.13c-1,1.05,6.85,20.48,6.85,20.48l-10.94,3.12-5.45-22.8Z" style="fill:#eda785"/><path d="M100.36,262.88l6.24,9.62S115,351.11,117,360s13.12,83.56,13.12,83.56l-11.5,4.26S96.76,385.9,97.86,377.7s-25-84.5-25-84.5l26.05-30.47Z" style="fill:#222750"/><path d="M95.49,267.61s-14.77,88-15.91,107.64,9.56,74.19,9.56,74.19l-18.93.71s-16.36-55.43-12.57-71.46-1.74-86.22-1.74-86.22l6.53-26.4Z" style="fill:#323b6b"/><path d="M73.54,447.86s.38,7.06.64,11.86-1.92,8.72,4.79,9.42,13.68-1.29,14.2-4.43-6.42-10.2-6.58-13.31-2.14-4.29-3.19-3.26S73.54,447.86,73.54,447.86Z" style="fill:#2e3030"/><path d="M74.57,467.12c1.2,1.1,2.86,1.2,4.67,1.2,3.86,0,12.29-.51,13.93-3.61a3,3,0,0,1-1,2.38C87.67,471.72,75.36,471,74.57,467.12Z" style="fill:#ff5b51"/><path d="M85.68,455.39c.13,3-4.45,5.68-6.13,3,0,0-2.35-6.59-2.56-8.59-.13-1.21-1-3.25,2-3.84s5.3.46,5.36,1.53A41,41,0,0,1,85.68,455.39Z" style="fill:#bcbcbc"/><path d="M78.78,457.24s-.2-8.74-1.62-9a24.74,24.74,0,0,0-3.62-.35s1.18,8.78,2.92,10.19S78.78,457.24,78.78,457.24Z" style="fill:#2e3030"/><path d="M86.39,450.58a.35.35,0,0,1-.15.29c-3.84,2.8-9.47.4-9.71.29a.34.34,0,0,1-.19-.47.44.44,0,0,1,.54-.17c.05,0,5.41,2.31,8.86-.2a.43.43,0,0,1,.56.05A.4.4,0,0,1,86.39,450.58Z" style="fill:#ff5b51"/><path d="M86.81,454.07a.31.31,0,0,1-.14.28c-2.37,1.84-9.1.27-9.39.2a.36.36,0,0,1-.28-.44.41.41,0,0,1,.49-.25c1.83.43,7,1.27,8.66-.05a.44.44,0,0,1,.56,0A.32.32,0,0,1,86.81,454.07Z" style="fill:#ff5b51"/><path d="M87.21,456.58a.31.31,0,0,1-.1.25c-1.87,1.84-9,.66-9.85.52a.36.36,0,0,1-.32-.42.4.4,0,0,1,.47-.28c2.08.36,7.78,1,9.11-.3a.44.44,0,0,1,.56,0A.34.34,0,0,1,87.21,456.58Z" style="fill:#ff5b51"/><path d="M134.24,454.23c2.74,1.67,5-1,5-1-2.71-4.1-4.22-7.8-4.86-8.69s-1.72-2.32-4.21-1-4.6,4.24-3.63,4.85A69.36,69.36,0,0,0,134.24,454.23Z" style="fill:#bcbcbc"/><path d="M117.05,462.24l11.18.13c4.6.05,11.93.63,14.23.66s10.7-4.72,10.17-6.3-8.08-1.28-12-3.11-9.07-7.21-10.84-7.11c-1.47.08-9,1.56-10.39,2.73S115.92,461.19,117.05,462.24Z" style="fill:#2e3030"/><path d="M150.67,455.73h0c-1.77.43-4.83,3.59-9.41,4.65-3.57.82-18.11-.86-24.41-1.65-.19,1.76-.17,3.16.2,3.51l11.18.13c4.6.05,11.93.63,14.23.66s10.7-4.72,10.17-6.3C152.48,456.27,151.74,456,150.67,455.73Z" style="fill:#ff5b51"/><path d="M136.21,455.9a.24.24,0,0,1-.06-.21c.5-2.66,4.17-2.76,4.33-2.76a.32.32,0,0,1,.3.23.18.18,0,0,1-.17.24s-3.53.09-4,2.48c0,.12-.15.17-.28.12A.28.28,0,0,1,136.21,455.9Z" style="fill:#ff5b51"/><path d="M134.44,454a.28.28,0,0,1-.07-.21c.26-1.7,4.07-2.58,4.23-2.62a.34.34,0,0,1,.33.18.19.19,0,0,1-.11.28c-1,.24-3.78,1.11-4,2.34a.2.2,0,0,1-.28.13A.36.36,0,0,1,134.44,454Z" style="fill:#ff5b51"/><path d="M133.12,452.61a.27.27,0,0,1-.07-.18c0-1.58,3.86-2.8,4.29-2.94a.33.33,0,0,1,.34.16c.06.13,0,.26-.09.29-1.12.35-4,1.49-4.05,2.61a.18.18,0,0,1-.25.16A.27.27,0,0,1,133.12,452.61Z" style="fill:#ff5b51"/><path d="M77.34,460.77s-1.46,4.6-.44,5.43,13.7.13,13.6-1.83-3.18-5.69-4.32-5.94S77.34,460.77,77.34,460.77Z" style="fill:#888d8e"/><path d="M89,177A26.14,26.14,0,0,1,108,192.3a14.15,14.15,0,0,1,1.22,5.16c0,6.37-3.12,28.92-3.12,40.31s3.74,52.37,3.74,52.37a126.56,126.56,0,0,1-37.25-2.26c-11.23-2.3-17.4,2.74-17.4,2.74s5.55-49.84,8.93-72-.8-37.19,2-40.51C68.17,175.79,78.74,174.86,89,177Z" style="fill:#ff5b51"/><path d="M60.21,248.16c.62-5,1.24-9.9,1.85-14.53h2s13.63,10.28,19.56,10.28c4.17,0,15.76-4.48,22.54-5.6,0,2.49.2,6.18.46,10.45-6.28,3.05-20.34,9.18-30.9,8.58C69.88,257,64.51,252.89,60.21,248.16Z" style="fill:#bf3734;opacity:0.38"/><path d="M94.72,128.28s8,7.59,10.07,13.19c2.11,5.75,5.09,15,5.09,15l-2.62.34s-1.19,5.51-.53,9-5.28,2-8.48,2.45-10.84-1.39-15.5-11S69.64,130.4,94.72,128.28Z" style="fill:#eda785"/><path d="M81.11,177.94c1.44,5.85,14.38,10.45,15.62,7.38,2.14-5.25.76-10,.46-13.94-.09-1-.16-2-.23-3a.38.38,0,0,0,0-.1c-.07-1-.13-2-.19-2.65v0c-.87-1.39-6.68-10.77-7.86-12.67l-.12-.19a0,0,0,0,1,0,0,.33.33,0,0,1-.06-.08h0l0,0-1.18-1.89-.35-.56-.19.88-.08.37-.39,1.79-.68,3.09-.92,4.25-.05.25Z" style="fill:#eda785"/><path d="M102.29,121c.39.46,7.38,10-.59,15.1s-11.2-.29-12.86,3.5,3.74,8.86,2.45,12.3l-2.79.93s-.92-1.63-2.08-1.48.17,9-1.7,9.23-6.92-6.76-9.32-10-8.26-14.53-2.15-18.46,9.46-2,8.91-4.89,2.93-.24,2.93-.24a5.09,5.09,0,0,0-.29-4.72c-1.49-2.33,6.49-4.27,9.31.41S98.08,116.09,102.29,121Z" style="fill:#282c3a"/><path d="M88.31,147.88s1.22,5.71-.16,5.89-5-2.66-5.16-6.18S86.93,144,88.31,147.88Z" style="fill:#eda785"/><path d="M87.23,147.39s1.12,2.18.28,3.36S84.2,149.7,85,147.69,86.76,146.1,87.23,147.39Z" style="fill:#db8f72"/><path d="M90.54,168.05a56.66,56.66,0,0,0,6.62,3.33c-.25-3.17-.4-5.74-.4-5.74s-1.35,1.6-8.05-13.07v.09h0C88.74,154,89.05,167,90.54,168.05Z" style="fill:#db8f72"/><path d="M106.53,163.41a24.11,24.11,0,0,1,1.13,3.47c.24,1.29-2.71,3.14-5.77,2.7s-7.46-1.83-8.64-2.69-4.49-14.1-4.49-14.1l2.53-.85s2.95,8.53,4.23,9.47S106.53,163.41,106.53,163.41Z" style="fill:#282c3a"/><polygon points="121.63 246.86 87.82 242.02 166.71 243.84 170.36 248.86 121.63 246.86" style="fill:#374a4f"/><path d="M62.81,183.86S24.67,232.67,26,242s13.23,6.61,17.56,2.28,22.57-37.85,22.57-37.85Z" style="fill:#db8f72"/><polygon points="166.71 243.84 87.82 242.02 87.82 246.58 111.31 248.86 170.36 248.86 166.71 243.84" style="fill:#070707"/><polygon points="111.31 248.86 117.69 200.18 177.37 201.21 171.22 249.6 111.31 248.86" style="fill:#5e5c5e"/><path d="M117.69,200.18l-6.38,48.68,59.91.74.51-4c-6.28.54-34.69,2.42-37.24-7.31-2.22-8.47,9-28.8,14.16-37.53Z" style="fill:#3f3f3f"/><polygon points="117.69 200.18 111.31 248.86 171.22 249.6 113.97 245.77 117.69 200.18" style="fill:#070707"/><path d="M139.33,249.21a22.14,22.14,0,0,1-11.45,4.7c-6.58.51-11.37-2.23-13.25-2.23s-7.61-.34-10.52.52-12.91-4.81-12.91-4.81-4.39-6-3.16-6.34,7,7,8.46,7-5.47-6.42-4-7.06,5,6.64,8.64,7.06,5.43-.3,4-1.71-5.3-3.16-3.94-3.67S138.34,248.22,139.33,249.21Z" style="fill:#eda785"/><path d="M95.35,228.34s-4.33-2.05-7.53-2.05-8.2,2.05-17.32,2.05-40.46.37-42.26,5.31-5.8,11.39,2.38,14.21,48.08-11.77,52.19-12.68c0,0,2.51,3.65,5,3.65s4.56-.12,4.56-.12,4.39.63,5.13-.11,3.2-.68,3.2-.68,5,5.12,7,5.12-2.79-7.8-4.45-9.46S95.35,228.34,95.35,228.34Z" style="fill:#eda785"/><path d="M75.53,192.45c-2.38,5.6-17.14,32.06-17.26,32L36.33,213.38c3.81-9.06,9.63-16.86,16.08-24.59,3.69-4.42,8.5-10.58,15-11.14C76.3,176.87,78.49,185.46,75.53,192.45Z" style="fill:#ff5b51"/><path d="M73.06,178.78c3.75,2.59,3.9,7.93,2.59,11.86-.87,2.57-.54,1.43-17.38,33.81,3.9-5.71,9.59-15.82,12.87-21.91,3.63-6.92,7-12.14,5.75-18.17A8.13,8.13,0,0,0,73.06,178.78Z" style="fill:#bf3734"/><path d="M365.32,41.43h0l0-.08,0-.06a.14.14,0,0,0,0-.07,3.58,3.58,0,0,0-1.41-1.72l-.17-.1h0l-20.77-12-20.77-12h0l-.17-.1a1.72,1.72,0,0,0-1.72-.08l0,0,0,0-2.74,1.58,1.58.67L313.5,46.61a4.08,4.08,0,0,0,.3,2.32.14.14,0,0,1,0,.06l0,.06a3.51,3.51,0,0,0,1.41,1.73l41.42,23.93-.38,1.82,2.6-1.5,0,0a2.11,2.11,0,0,0,1-1.55l5.62-29.78A4.15,4.15,0,0,0,365.32,41.43Z" style="fill:#fff"/><path d="M354.45,76.53,312.56,52.34A4.4,4.4,0,0,1,310.85,48l5.53-29.35c.32-1.69,1.61-2.47,2.87-1.73l41.89,24.19a4.38,4.38,0,0,1,1.71,4.38l-5.53,29.35C357,76.48,355.71,77.26,354.45,76.53Z" style="fill:url(#_ÂÁ_Ï_ÌÌ_È_ËÂÌÚ_17)"/><path d="M361,41,340.2,29l-6.51,34.51,20.59,13a1.91,1.91,0,0,0,3-1.42l5.61-29.78A4.31,4.31,0,0,0,361,41Z" style="fill:#bf3734"/><path d="M319.42,17l20.77,12-6.46,34.29-21-10.81a4.33,4.33,0,0,1-1.92-4.27l5.61-29.78A1.91,1.91,0,0,1,319.42,17Z" style="fill:#bf3734"/><path d="M311.07,50.41a4.14,4.14,0,0,0,1.66,2l41.55,24a2,2,0,0,0,2,.1L337.69,42.24Z" style="fill:#b76565"/><path d="M362.63,43A4.1,4.1,0,0,0,361,41L319.42,17a2,2,0,0,0-2-.1L336,51.15Z" style="fill:#ff5b51"/><path d="M171.3,66.68h0l.09-.21.06-.15a1.11,1.11,0,0,1,.07-.16,9,9,0,0,1,3.55-4.36l.43-.25h0L228,31.25,280.44.94h0l.44-.25a4.32,4.32,0,0,1,4.34-.2l.1.06a.33.33,0,0,1,.1.06l6.93,4-4,1.69,13.85,73.47a10.34,10.34,0,0,1-.75,5.87l-.06.16a1,1,0,0,0-.07.15,9,9,0,0,1-3.55,4.36L193.13,150.74l1,4.61-6.56-3.8-.1-.06a5.39,5.39,0,0,1-2.61-3.93L170.63,72.34A10.39,10.39,0,0,1,171.3,66.68Z" style="fill:#fff"/><path d="M198.78,155.35l105.8-61.11c3.2-1.85,5.14-6.81,4.34-11.08L294.93,9c-.8-4.27-4.05-6.23-7.25-4.38L181.88,65.74c-3.2,1.85-5.14,6.8-4.34,11.07l14,74.15C192.33,155.23,195.58,157.19,198.78,155.35Z" style="fill:url(#_ÂÁ_Ï_ÌÌ_È_ËÂÌÚ_17-2)"/><path d="M182.31,65.49l52.47-30.31,16.44,87.17-52,32.75c-3.44,2-6.83.37-7.58-3.6L177.44,76.27A10.93,10.93,0,0,1,182.31,65.49Z" style="fill:#bf3734"/><path d="M287.25,4.88l-52.47,30.3,16.34,86.63,53-27.32A11,11,0,0,0,309,83.7L294.83,8.47C294.08,4.5,290.69,2.89,287.25,4.88Z" style="fill:#bf3734"/><path d="M308.35,89.36a10.31,10.31,0,0,1-4.2,5.13L199.21,155.1a5,5,0,0,1-5.12.25l47-86.62Z" style="fill:#b76565"/><path d="M178.11,70.62a10.32,10.32,0,0,1,4.2-5.13L287.25,4.88a5,5,0,0,1,5.12-.26l-47,86.63Z" style="fill:#ff5b51"/><path d="M104.83,159.45s-.7,1.46-3.79.28c0,0-2.59-1.28-2.07-2.64C99,157.09,98.49,158.46,104.83,159.45Z" style="fill:#fff"/></g></g></svg>