<svg xmlns="http://www.w3.org/2000/svg" width="180.44" height="182.02" viewBox="0 0 180.44 182.02"><g id="Calque_2" data-name="Calque 2"><g id="Calque_177" data-name="Calque 177"><g id="illu-home-2"><g id="Calque_2-2" data-name="Calque 2"><g id="Calque_137" data-name="Calque 137"><rect id="Rectangle_45" data-name="Rectangle 45" x="45.65" y="84.05" width="2.89" height="97.72" style="fill:#222750"/><path id="Tracé_520" data-name="Tracé 520" d="M132.5,144.89s7.25,5.89,8.39,7S132.5,162,132.5,162s1-9.14,0-10.12-6.49-1.65-6.49-1.65Z" style="fill:#eda785"/><path id="Tracé_521" data-name="Tracé 521" d="M136.54,146.82s7.8,4.13,7.8,5.77-10.66,15.25-12.07,16c-2,1.1-8.92,1.67-10.06.52s2-3.56,3.8-5.34,3.25-4.49,3.25-6.2-3.34-6.34,0-6.34S136.54,146.82,136.54,146.82Z" style="fill:#282828"/><path id="Tracé_522" data-name="Tracé 522" d="M138.16,158.89l2.26,4.47a10.33,10.33,0,0,0,4.83,4.7h0L140,176.59s-7.4,4.91-10.2,3.77,6-5.3,6-5.3l-3.71-12.17Z" style="fill:#eda785"/><path id="Tracé_523" data-name="Tracé 523" d="M86.62,46.49s-1.4,4.49,0,5.88,3.72,2.83,3.72,4.47-1,22.72,3.79,23.76,22.1-16.71,22.1-16.71l-7-8.57S98.12,68.54,98.12,67.16s-4.47-12-4.47-12l2.2-4.41s1.37-5.22-1.24-6.33S86.62,46.49,86.62,46.49Z" style="fill:#db8f72"/><path id="Tracé_524" data-name="Tracé 524" d="M94.1,76.31c-3.39-1.89-3.44-15.6-3.76-19.42,0,2-1,22.68,3.79,23.7s22.1-16.71,22.1-16.71l-3.24-4C108.57,65.21,97.31,78.09,94.1,76.31Z" style="fill:#db8f72"/><path id="Tracé_525" data-name="Tracé 525" d="M90.11,55.93a2.31,2.31,0,0,1,.19.52C90.25,56,90.19,55.85,90.11,55.93Z" style="fill:#ff5921"/><path id="Tracé_526" data-name="Tracé 526" d="M126.94,39.66s-1.57-.92-5.09.6-15.39,16-15.39,16l10.24,8.82a122,122,0,0,0,9.45-12.71C130.83,45.11,126.94,39.66,126.94,39.66Z" style="fill:#ff5b51"/><path id="Tracé_527" data-name="Tracé 527" d="M145.31,93.86l-2.87,1.73s-53.67,9.84-55.81,18.52,41.83,37.8,41.83,37.8l8.3-6.61S108.82,126,112,122.88s40.29-10.22,40.29-10.22Z" style="fill:#222750"/><path id="Tracé_528" data-name="Tracé 528" d="M74.77,163.47s1.72,14.41,2.67,14.41H96.92s-10.55-4.28-12.51-6.25-4-8.7-4-8.7Z" style="fill:#eda785"/><path id="Tracé_529" data-name="Tracé 529" d="M76,174.2s11.54,1.65,13,.17,8.57,2.63,8.57,3.5-18.76,1.67-21.86.66C74.73,178.2,76,174.74,76,174.2Z" style="fill:#282828"/><path id="Tracé_530" data-name="Tracé 530" d="M42.45,28.85S42.32,37.09,44,41.38s-11.49,3.94-11.49,3.94l1.62-25.13Z" style="fill:#eda785"/><path id="Tracé_531" data-name="Tracé 531" d="M42.46,28.85l-4-4.22a16.35,16.35,0,0,0,.28,5.8,8.57,8.57,0,0,0,4,4.06C42.41,31.45,42.46,28.85,42.46,28.85Z" style="fill:#db8f72"/><path id="Tracé_532" data-name="Tracé 532" d="M54.46,30.34l9.37,10.31,4.25-3.88-5.82-12Z" style="fill:#fff"/><path id="Tracé_533" data-name="Tracé 533" d="M55.1,30.38c-.2,0-.36,0-.4-.06-.2-.28.69-1.73,3.12-3.53a10.4,10.4,0,0,1,3.88-2c.2,0,.35,0,.4.07.2.28-.69,1.73-3.11,3.52A10.3,10.3,0,0,1,55.1,30.38Z" style="fill:#d3d3d3"/><path id="Tracé_534" data-name="Tracé 534" d="M52.92,44.08s11.62,13,12.78,12.35-2-15.89-1.72-16.9-4.94-2.07-4.68-3,1.19.35,3.46-.93.48-7.24,1.17-7a10.38,10.38,0,0,1,4.44,2.87c1.95,2,1.14,31.15-2.39,33.15S47.46,48.86,47.46,48.86Z" style="fill:#eda785"/><path id="Tracé_535" data-name="Tracé 535" d="M64.2,41.86s.77,18.23,1.39,23.5,9.5,8.06,9.5,8.06V61.85c0-7.13-5.68-21.59-5.68-21.59Z" style="fill:#eda785"/><path id="Tracé_536" data-name="Tracé 536" d="M127.67,85.4h-114a4.18,4.18,0,0,1,4.18-4.18H123.5a4.18,4.18,0,0,1,4.17,4.18Z" style="fill:#ef8978"/><path id="Tracé_537" data-name="Tracé 537" d="M164.29,84.72s12.43-3.5,16.13-2.29L175.52,97l-14.76-2.52Z" style="fill:#c42751"/><path id="Tracé_538" data-name="Tracé 538" d="M45.31,7.24s3.37,2.14,4.13,4.06-.07,16.05-2.06,18.8-7.17.22-8.69-2.82S40.35,4.28,45.31,7.24Z" style="fill:#eda785"/><path id="Tracé_539" data-name="Tracé 539" d="M65.9,53.89a75.37,75.37,0,0,0-10-12,16.62,16.62,0,0,0-15.2-4.26c-1.29.29-2.67.58-4.08.87A16.67,16.67,0,0,0,23.24,54.43l-1,38.35a16.58,16.58,0,0,0,16.06,17.08,17,17,0,0,0,2.47-.1A7.71,7.71,0,0,0,45.19,108c4.54-4.55,2.61-33.08,4.53-38.45,1.24-3.47,1.9-3.44,2.09-8,0,0,16.25,17.68,19.55,17.68,3.72,0,3.72-3.61,3.72-8S74,66,65.9,53.89Z" style="fill:#9eb5fe"/><path id="Tracé_540" data-name="Tracé 540" d="M40.73,37.63c-1.29.29-2.67.58-4.08.87A16.68,16.68,0,0,0,23.24,54.43l-.56,22.14a11.48,11.48,0,0,0,4,.35c9.76-.9,19.59-9.84,20.06-19.17.36-7.39-2-14.43-3.79-20.46A16.52,16.52,0,0,0,40.73,37.63Z" style="fill:#7c8cb5"/><rect id="Rectangle_46" data-name="Rectangle 46" x="42.45" y="129.19" width="1.75" height="52.78" style="fill:#222750"/><rect id="Rectangle_47" data-name="Rectangle 47" x="16.32" y="129.19" width="1.75" height="52.78" style="fill:#222750"/><rect id="Rectangle_48" data-name="Rectangle 48" x="49.32" y="129.19" width="1.75" height="52.78" style="fill:#222750"/><rect id="Rectangle_49" data-name="Rectangle 49" x="110.23" y="85.4" width="2.89" height="96.62" style="fill:#222750"/><path id="Tracé_541" data-name="Tracé 541" d="M152.25,95.5s-25.44,7.16-44.63,14.39,24,55,24,55l9.09-4.13s-20.8-36.44-17.6-39.64,34.73-11.39,34.73-11.39Z" style="fill:#323b6b"/><path id="Tracé_542" data-name="Tracé 542" d="M87.37,165.94s1.72,14.41,2.67,14.41h19.49S99,176.07,97,174.1s-4-8.7-4-8.7Z" style="fill:#eda785"/><path id="Tracé_543" data-name="Tracé 543" d="M74.24,119.92c-3.72-3.72-31.79-18.62-31.79-18.62L21.9,107.5s.93,8,4.54,11.57,39,10.12,39,10.12l6.13,38.89c1.83-.14,9.44-1.7,11.26-1.74C82.56,164.44,78,123.64,74.24,119.92Z" style="fill:#222750"/><path id="Tracé_544" data-name="Tracé 544" d="M50.2,98.21S78,100.59,84.9,118.08c2.09,5.3,11.68,50.54,11.68,50.54L87,169.86s-13.44-33.65-14.36-39.64-26.34-8.91-31.51-10S26.7,107,26.7,107Z" style="fill:#323b6b"/><path id="Tracé_545" data-name="Tracé 545" d="M0,77.75s1.7,40.49,16.32,51.44H65.46s9.69-4.75,9.69-14S70.5,95.72,45.22,84.57,0,77.75,0,77.75Z" style="fill:#e7345a"/><path id="Tracé_546" data-name="Tracé 546" d="M45.22,84.57a89.57,89.57,0,0,0-25.73-7.1c5.22,1.33,14.24,3.34,20.28,6.37,25.28,12.64,30.52,21.92,30.52,32.46,0,9.36-4.85,11.35-7.67,12.89h2.84s9.69-4.76,9.69-14S70.5,95.72,45.22,84.57Z" style="fill:#fff"/><rect id="Rectangle_50" data-name="Rectangle 50" x="63.53" y="130.23" width="1.75" height="51.74" style="fill:#222750"/><rect id="Rectangle_51" data-name="Rectangle 51" x="16.32" y="129.19" width="48.97" height="4.75" style="fill:#222750"/><rect id="Rectangle_52" data-name="Rectangle 52" x="121.33" y="127.79" width="1.76" height="54.18" style="fill:#222750"/><rect id="Rectangle_53" data-name="Rectangle 53" x="163.76" y="128.14" width="1.75" height="53.82" style="fill:#222750"/><rect id="Rectangle_54" data-name="Rectangle 54" x="121.33" y="126.5" width="44.19" height="3.73" style="fill:#222750"/><path id="Tracé_547" data-name="Tracé 547" d="M45.17,2.28s-3.72-2.89-11.57,0S27,12.06,27.68,16.46c.73,4.64-6.33,6.23-8.84,8.85C10,34.54,6.63,49,8.79,61.39a15.21,15.21,0,0,0,16.6,12.26c9.77-.91,16.57-10.38,17-19.7.69-14.05-4.27-23-.14-30S45,13.17,46.41,11.8a2.63,2.63,0,0,1,3-.49S60,1,45.17,2.28Z" style="fill:#233862"/><path id="Tracé_548" data-name="Tracé 548" d="M121.84,40.26s-2.17,10-1.34,17.25c.64,5.71,13.89,26.16,19.64,34.81a12.67,12.67,0,0,0,7.09,5.19l19.26,5.55,3.58,2.51a91.65,91.65,0,0,0-1-17.9c-1.51-11.29-26.3-52.61-32-52.61S121.84,40.26,121.84,40.26Z" style="fill:#ff7768"/><path id="Tracé_549" data-name="Tracé 549" d="M124.1,45.48h.16c9.24-.79,12.49-9.24,12.62-9.6l.21-.57-.13-.24c-5.68.13-15.11,5.2-15.11,5.2s-.09.4-.22,1.09C121.85,43.37,122.29,45.48,124.1,45.48Z" style="fill:#fff8f3"/><path id="Tracé_550" data-name="Tracé 550" d="M142.57,39.81l-6-1s-7.65,19.49-11.41,29.27c1.22,2.23,2.61,4.61,4.06,7a11.43,11.43,0,0,1,2.12-3.81c2-2,4.32-.91,5.22-1.83s8.7-12.82,8.7-20.2S142.57,39.81,142.57,39.81Z" style="fill:#ff5b51;isolation:isolate;opacity:0.699999988079071"/><path id="Tracé_551" data-name="Tracé 551" d="M135,58.78s-9.84,21.78-13.63,22.47c-4.18.75-25.73,0-25.73,0H89.65a4.06,4.06,0,0,1-4.15-3.74c0-.87.19-1.57,1-1.57,2.41,0,7.93.47,9.31.47s14.8-1.31,16.31-2.83,13.39-24.28,13.39-24.28Z" style="fill:#eda785"/><path id="Tracé_552" data-name="Tracé 552" d="M130.28,68.41c2.61-5,4.68-9.62,4.68-9.62l-9.4-9.5s-3.17,6.08-6.44,12.16C122,63.89,126.43,67.31,130.28,68.41Z" style="fill:#db8f72"/><path id="Tracé_553" data-name="Tracé 553" d="M121.33,124.85s4.82-10.19,17.5-20.66,41.59-21.76,41.59-21.76,1.24,39-14.74,44.07H121.33Z" style="fill:#e7345a"/><path id="Tracé_554" data-name="Tracé 554" d="M164.11,121.55H123.22a34.73,34.73,0,0,0-1.89,3.3v1.65h44.34c12.51-4,14.46-28.77,14.72-39.32C178,102.63,173.28,117.77,164.11,121.55Z" style="fill:#c42751"/><path id="Tracé_555" data-name="Tracé 555" d="M124.63,19.48l11.05,15.93s-3,8-11.53,8.77c-1.31.11-1.23-4.07-1.53-5.35L120.1,28.16Z" style="fill:#eda785"/><path id="Tracé_556" data-name="Tracé 556" d="M126.2,21.37l-5.41,9.7,1.16,5a40.24,40.24,0,0,0,4.81-13.51Z" style="fill:#db8f72"/><path id="Tracé_557" data-name="Tracé 557" d="M122,10.4s4.18,7.35,4.18,11-2.09,10.12-9.47,10.92c-4.63.5-6.94-13.6-6.21-19.4S119.18,6.45,122,10.4Z" style="fill:#eda785"/><path id="Tracé_558" data-name="Tracé 558" d="M113.38,25.56s-.09,1,2,1.41c0,0,1.89.14,2-.8A18.8,18.8,0,0,1,113.38,25.56Z" style="fill:#fff"/><path id="Tracé_559" data-name="Tracé 559" d="M120.89,13.63l2-2.66s1.7-1.42,2.45.31,1.38,4.94.83,5.69a10.19,10.19,0,0,1-2.06,1.7L120.89,14Z" style="fill:#eda785"/><path id="Tracé_560" data-name="Tracé 560" d="M128.46,39.66c-3.09,4.57-7.28,16.57-8,17.85-1.74,3.24,10.1,8.5,12.3,7.95s8.65-14,10-19c1-3.59.13-8.57-3.3-10.67C135.57,33.4,131,35.94,128.46,39.66Z" style="fill:#ff7768"/><path id="Tracé_561" data-name="Tracé 561" d="M121.33,124.85c3.39-9.69,12.24-19.29,20.67-25.36,9.11-6.63,27.15-14.3,38.41-17.06-25.77,14.38-38,18.15-53.3,35.19A76,76,0,0,0,121.33,124.85Z" style="fill:#fff"/><path id="Tracé_562" data-name="Tracé 562" d="M126.76,22.55s-2.35-4.05-1.55-6c.68-1.63,1.55-5.62-.75-4.94-1.43.43-1.4,2.31-2,1.64s-1.18-2.93-5.45-3.13-6,1.29-8,.41-2.09-3.87-2.09-3.87a3.45,3.45,0,0,0,1.42,1.41s-3.45-4.58.88-7c4.1-2.24,7.45-.54,9.66-.41,4.89.3,6.87,3,8.47,6.23S128.66,18,126.76,22.55Z" style="fill:#282c3a"/><path id="Tracé_563" data-name="Tracé 563" d="M95,38.19l-5.1-.81a.44.44,0,0,0-.41.13h0l-.65.49,1.9,12.75,4.9.79.35-.07.75-.58h0a.42.42,0,0,0,.14-.38L95.68,38.87A.81.81,0,0,0,95,38.19Z" style="fill:#050505"/><path id="Tracé_564" data-name="Tracé 564" d="M95.65,51.53l-5.1-.81a.82.82,0,0,1-.65-.66L88.68,38.41a.42.42,0,0,1,.35-.48.33.33,0,0,1,.17,0l5.1.8a.81.81,0,0,1,.65.67l1.22,11.64a.42.42,0,0,1-.36.48Z" style="fill:#33302f"/><path id="Tracé_565" data-name="Tracé 565" d="M90.66,39.32l-1.19-.23a.43.43,0,0,1-.35-.38h0a.22.22,0,0,1,.2-.26.17.17,0,0,1,.1,0l1.19.23a.46.46,0,0,1,.35.37h0a.24.24,0,0,1-.2.27Z" style="fill:#fff"/><path id="Tracé_566" data-name="Tracé 566" d="M86.62,46.49s7-1.15,8.19,0-5.63,2.09-5.63,2.09Z" style="fill:#db8f72"/><path id="Tracé_567" data-name="Tracé 567" d="M88,50.38s5.68-.46,5.8-1.65-5.22-.44-5.22-.44Z" style="fill:#db8f72"/><path id="Tracé_568" data-name="Tracé 568" d="M89.2,46.25s3.49.44,4.58-.83c.7-.82-4.72-.15-4.72-.15Z" style="fill:#db8f72"/><path id="Tracé_569" data-name="Tracé 569" d="M140.22,162.81s6.84,3.62,6.84,5.06-9.28,13.54-10.59,14c-.52.21-10.11.05-10.46-.31-1-1,3.4-2.33,5-3.9s2.85-3.93,2.85-5.43-2.93-5.56,0-5.56S140.22,162.81,140.22,162.81Z" style="fill:#282828"/><path id="Tracé_570" data-name="Tracé 570" d="M88.64,176.68s11.54,1.65,13,.17,8.58,2.63,8.58,3.5S91.47,182,88.38,181C87.32,180.67,88.64,177.21,88.64,176.68Z" style="fill:#282828"/></g></g></g></g></g></svg>