<svg id="logo-dark" xmlns="http://www.w3.org/2000/svg" width="66.504" height="33.473" viewBox="0 0 66.504 33.473">
  <path id="Tracé_458" data-name="Tracé 458" d="M29.367,170.012c.721,0,.721-1.442,0-1.442H.541c-.721,0-.721,1.442,0,1.442H7.524c-.24,0,0,.481.721.961l3.6,1.443c-.721-.481-2.4-2.164-3.365-2.4h2.165c-.24.481.481.481,1.442,2.643,1.683.481,3.845,1.683,5.287,1.923-.721-1.2-1.682-3.6-2.163-4.566h5.768A3.382,3.382,0,0,0,19.54,172.9c0,1.923-1.2,2.643-4.566,1.2-2.643-1.2-5.288-2.163-7.931-3.124-.961-.24-1.442,0-1.682.722,5.047,2.163,11.776,5.527,15.381,11.295h4.52c-1.2-1.682-2.838-3.6-2.357-6.248.481-1.2-1.682-3.6-1.442-4.567a11.248,11.248,0,0,1,1.442-2.163Zm-14.874,3.124c.481.24.721.481.721.24a9.467,9.467,0,0,1-1.2-3.364H11.85C12.811,170.493,13.773,172.174,14.493,173.136Z" transform="translate(0 -149.584)" fill="#222750" fill-rule="evenodd"/>
  <path id="Tracé_459" data-name="Tracé 459" d="M201.67,7.681A7.667,7.667,0,1,1,217,7.969H203.106A6.216,6.216,0,0,0,215.239,9.62h1.544A7.681,7.681,0,0,1,201.67,7.681Zm13.8-1.036a6.2,6.2,0,0,0-12.258,0Z" transform="translate(-178.956)" fill="#222750"/>
  <path id="Tracé_460" data-name="Tracé 460" d="M358.547,12.744l2.729,4.594h-1.723l-2.334-4.15a9.362,9.362,0,0,1-1.814.185h-1.542v3.983H352.41V2.55h2.871c4.451,0,6.066,2.6,6.066,5.42A5,5,0,0,1,358.547,12.744Zm-3.1-.788c2.928,0,4.486-1.561,4.486-3.985,0-2.531-1.615-4-4.486-4h-1.577v7.986Z" transform="translate(-312.718 -2.263)" fill="#222750"/>
  <path id="Tracé_461" data-name="Tracé 461" d="M434.31,2.71h1.561l4.972,12.815L445.617,2.71h1.543l-5.51,14.77h-1.631Z" transform="translate(-385.393 -2.405)" fill="#222750"/>
  <path id="Tracé_462" data-name="Tracé 462" d="M551.459,2.71h1.669L549.88,9.693h-1.49Z" transform="translate(-486.624 -2.405)" fill="#222750"/>
  <path id="Tracé_463" data-name="Tracé 463" d="M110.23,12.286a3.379,3.379,0,0,0,3.516,2.961c2.2,0,3.087-1.163,3.087-2.756,0-1.622-.6-2.417-3.369-3.186-3.237-.9-4.033-2.027-4.033-3.925,0-1.986,1.3-3.829,4.138-3.829a4.2,4.2,0,0,1,4.385,4.03h-1.293A3.039,3.039,0,0,0,113.518,2.9c-2.148,0-2.766,1.222-2.766,2.365,0,1.309.594,1.962,3.055,2.649,3.532.98,4.4,2.309,4.4,4.464A4.1,4.1,0,0,1,116.241,16a4.714,4.714,0,0,1-2.523.616A4.536,4.536,0,0,1,108.91,12.3Z" transform="translate(-96.643 -1.375)" fill="#222750"/>
  <path id="Tracé_464" data-name="Tracé 464" d="M279.62,172.875a7.406,7.406,0,1,1,14.783.625h-12.44a4.988,4.988,0,0,0,5.068,4.529,4.857,4.857,0,0,0,4.511-2.985h2.591a7.416,7.416,0,0,1-14.506-2.169Zm12.267-1.457a5.022,5.022,0,0,0-9.716,0Z" transform="translate(-248.126 -146.815)" fill="#ef8978"/>
  <path id="Tracé_465" data-name="Tracé 465" d="M417.035,180.25h-6.9l-.788,2.1H406.85l5.519-14.279h2.495l5.379,14.279H417.8Zm-.746-2.027-2.673-7.345-2.725,7.339Z" transform="translate(-361.026 -149.14)" fill="#ef8978"/>
  <path id="Tracé_466" data-name="Tracé 466" d="M516.723,170.033H513.6V167.76h8.623v2.273H519.1v12.041h-2.376Z" transform="translate(-455.753 -148.865)" fill="#ef8978"/>
  <path id="Tracé_467" data-name="Tracé 467" d="M10.508,10.277V8.86a.981.981,0,0,0-.979-.98H3.889a.982.982,0,0,0-.979.98V20.825a.982.982,0,0,0,.979.98H9.529a.981.981,0,0,0,.979-.98V17.811H9.995V19.64H3.425V9.568h6.57v.708Zm-3.8,9.71a.684.684,0,1,1-.683.684A.684.684,0,0,1,6.709,19.987ZM5.234,9.082a.19.19,0,1,1,.135-.055A.19.19,0,0,1,5.234,9.082Zm2.755-.074H5.86a.116.116,0,1,1,0-.232H7.989a.116.116,0,0,1,0,.232Z" transform="translate(-2.582 -6.992)" fill="#222750" fill-rule="evenodd"/>
  <path id="Tracé_468" data-name="Tracé 468" d="M43.779,34.209v5.173a.688.688,0,0,1-.688.688H39.149l-.716.857a.091.091,0,0,1-.161-.06v-.8h-.354a.687.687,0,0,1-.688-.688V34.209a.688.688,0,0,1,.688-.689h5.173a.689.689,0,0,1,.688.689Z" transform="translate(-33.037 -29.745)" fill="#ef8978"/>
  <path id="Tracé_469" data-name="Tracé 469" d="M58.641,39.68H58.37v.271h.543V39.68Z" transform="translate(-51.796 -35.211)" fill="#fff"/>
  <rect id="Rectangle_28" data-name="Rectangle 28" width="0.271" height="0.271" transform="translate(8.204 4.469)" fill="#fff"/>
  <path id="Tracé_470" data-name="Tracé 470" d="M61.866,39.951h-.271V39.68h-.271v.271h-.271v.543H60.78v.273h.271v.271h.543v-.271h-.271v-.544h.815v-.271Z" transform="translate(-53.934 -35.211)" fill="#fff"/>
  <path id="Tracé_471" data-name="Tracé 471" d="M73.111,44.771V44.5H72.84v.544h.271Z" transform="translate(-64.636 -39.488)" fill="#fff"/>
  <path id="Tracé_472" data-name="Tracé 472" d="M58.37,49.6v.271h.271V49.33H58.37Z" transform="translate(-51.796 -43.774)" fill="#fff"/>
  <rect id="Rectangle_29" data-name="Rectangle 29" width="0.271" height="0.271" transform="translate(7.933 5.555)" fill="#fff"/>
  <rect id="Rectangle_30" data-name="Rectangle 30" width="0.271" height="0.271" transform="translate(6.846 7.457)" fill="#fff"/>
  <rect id="Rectangle_31" data-name="Rectangle 31" width="0.271" height="0.271" transform="translate(4.943 6.099)" fill="#fff"/>
  <path id="Tracé_473" data-name="Tracé 473" d="M64,52.283h.273v.271h.271v-.271h.271v-.271h-.271V51.74h-.271v.271H63.19v.271h.543v.271H64Z" transform="translate(-56.073 -45.912)" fill="#fff"/>
  <path id="Tracé_474" data-name="Tracé 474" d="M85.171,54.421V54.15H84.9v.543h.271Z" transform="translate(-75.338 -48.051)" fill="#fff"/>
  <rect id="Rectangle_32" data-name="Rectangle 32" width="0.271" height="0.271" transform="translate(4.943 6.642)" fill="#fff"/>
  <path id="Tracé_475" data-name="Tracé 475" d="M53.811,54.964h.273v-.271h.271v-.271h-.544V54.15H53.54v.543h.271Z" transform="translate(-47.51 -48.051)" fill="#fff"/>
  <rect id="Rectangle_33" data-name="Rectangle 33" width="0.271" height="0.271" transform="translate(7.389 6.642)" fill="#fff"/>
  <path id="Tracé_476" data-name="Tracé 476" d="M76.064,54.693V54.15h-.271v.543H75.25v.271h.543v.273h.271v-.273h.273v-.271Z" transform="translate(-66.774 -48.051)" fill="#fff"/>
  <path id="Tracé_477" data-name="Tracé 477" d="M47.4,54.964h-.271v-.271h-.271V54.15h-.271v.271H46.31v.271h.271v.271h.271v.273h.271v.271H47.4v-.544Z" transform="translate(-41.094 -48.051)" fill="#fff"/>
  <path id="Tracé_478" data-name="Tracé 478" d="M60.78,59.514h.271v.271h.271v-.544h-.271V58.97H60.78v.544Z" transform="translate(-53.934 -52.328)" fill="#fff"/>
  <path id="Tracé_479" data-name="Tracé 479" d="M83.024,61.38h-.271v.544H82.48V62.2h.273v.271h.271v.544H83.3V62.2h-.271v-.271H83.3v-.271h-.271Z" transform="translate(-73.19 -54.467)" fill="#fff"/>
  <path id="Tracé_480" data-name="Tracé 480" d="M44.171,63.8H43.9v.543h.271v.271h.271v-.543h-.271Z" transform="translate(-38.955 -56.614)" fill="#fff"/>
  <rect id="Rectangle_34" data-name="Rectangle 34" width="0.271" height="0.271" transform="translate(5.487 7.186)" fill="#fff"/>
  <path id="Tracé_481" data-name="Tracé 481" d="M68.825,61.653V61.38H68.01v.544h.271v-.271h.273v.271h.271V62.2H69.1v-.271h.271v-.271h-.543Z" transform="translate(-60.35 -54.467)" fill="#fff"/>
  <rect id="Rectangle_35" data-name="Rectangle 35" width="0.271" height="0.271" transform="translate(5.759 7.457)" fill="#fff"/>
  <path id="Tracé_482" data-name="Tracé 482" d="M56.223,66.21H55.95v.543h.273V67.3h.271v-.815h-.271Z" transform="translate(-49.648 -58.753)" fill="#fff"/>
  <rect id="Rectangle_36" data-name="Rectangle 36" width="0.271" height="0.271" transform="translate(7.389 7.457)" fill="#fff"/>
  <rect id="Rectangle_37" data-name="Rectangle 37" width="0.271" height="0.271" transform="translate(7.117 7.729)" fill="#fff"/>
  <path id="Tracé_483" data-name="Tracé 483" d="M68.554,69.163V68.62h-.273v.271H68.01v.271h.544Z" transform="translate(-60.35 -60.891)" fill="#fff"/>
  <rect id="Rectangle_38" data-name="Rectangle 38" width="0.271" height="0.271" transform="translate(7.117 8.272)" fill="#fff"/>
  <rect id="Rectangle_39" data-name="Rectangle 39" width="0.271" height="0.271" transform="translate(7.66 8.544)" fill="#fff"/>
  <path id="Tracé_484" data-name="Tracé 484" d="M73.923,69.435V68.62H72.83v1.091H73.1v.267h.271v-.267h.271v.267h.271v-.267h.273v.271h.543v-.276h-.271v-.271Zm-.883-.607h.676V69.5h-.676Z" transform="translate(-64.627 -60.891)" fill="#fff"/>
  <path id="Tracé_485" data-name="Tracé 485" d="M60.78,76.4v.271h.271V75.86H60.78V76.4Z" transform="translate(-53.934 -67.316)" fill="#fff"/>
  <path id="Tracé_486" data-name="Tracé 486" d="M70.42,80.68v.271h.544V80.68H70.42Z" transform="translate(-62.489 -71.593)" fill="#fff"/>
  <rect id="Rectangle_40" data-name="Rectangle 40" width="0.271" height="0.271" transform="translate(6.574 9.359)" fill="#fff"/>
  <path id="Tracé_487" data-name="Tracé 487" d="M63.461,83.361h.271V83.09H63.19v.271Z" transform="translate(-56.073 -73.731)" fill="#fff"/>
  <path id="Tracé_488" data-name="Tracé 488" d="M84.9,83.09v.271h.543V83.09H84.9Z" transform="translate(-75.338 -73.731)" fill="#fff"/>
  <rect id="Rectangle_41" data-name="Rectangle 41" width="0.271" height="0.271" transform="translate(8.616 8.141)" fill="#fff"/>
  <path id="Tracé_489" data-name="Tracé 489" d="M45.254,39.68H43.89v1.358h1.364Zm-.2,1.154h-.957v-.951h.952Z" transform="translate(-38.947 -35.211)" fill="#fff"/>
  <rect id="Rectangle_42" data-name="Rectangle 42" width="0.543" height="0.543" transform="translate(5.351 4.877)" fill="#fff"/>
  <path id="Tracé_490" data-name="Tracé 490" d="M77.66,39.68v1.358h1.358V39.68Zm1.154,1.154h-.951v-.951h.951Z" transform="translate(-68.913 -35.211)" fill="#fff"/>
  <rect id="Rectangle_43" data-name="Rectangle 43" width="0.543" height="0.543" transform="translate(9.155 4.877)" fill="#fff"/>
  <path id="Tracé_491" data-name="Tracé 491" d="M43.89,74.828h1.364V73.47H43.89Zm.2-1.154h.952v.951h-.952Z" transform="translate(-38.947 -65.195)" fill="#fff"/>
  <rect id="Rectangle_44" data-name="Rectangle 44" width="0.543" height="0.543" transform="translate(5.351 8.683)" fill="#fff"/>
</svg>
