<svg xmlns="http://www.w3.org/2000/svg" width="177.9" height="30" viewBox="0 0 177.9 30"><g id="Calque_2" data-name="Calque 2"><g id="logo-inline"><path d="M107.32 15.05a14.94 14.94 0 1 1 29.83 1.26h-25.1a10.07 10.07 0 0 0 10.22 9.14 9.81 9.81 0 0 0 9.11-6h5.21a15 15 0 0 1-29.27-4.38Zm24.76-2.94a10.14 10.14 0 0 0-19.61 0ZM156.79 25.24h-13.93l-1.58 4.24h-5L147.37.66h5l10.86 28.82h-4.94Zm-1.5-4.1-5.4-14.81-5.49 14.81ZM166.8 5.18h-6.3V.59h17.4v4.59h-6.3v24.3h-4.8Z" fill="#ef8878"/><path d="M20.43 15a15 15 0 1 1 30 .56h-27.2A12.15 12.15 0 0 0 47 18.81h3A15 15 0 0 1 20.43 15Zm27-2a12.13 12.13 0 0 0-24 0ZM65.62 20.49l5.33 9h-3.37L63 21.37a18.46 18.46 0 0 1-3.54.35h-3v7.79h-2.84V.56h5.61c8.7 0 11.86 5.09 11.86 10.6 0 3.84-1.61 7.51-5.47 9.33ZM59.55 19c5.72 0 8.77-3 8.77-7.79 0-4.95-3.16-7.83-8.77-7.83h-3.09V19ZM71.65.6h3l9.72 25 9.39-25h3L86 29.47h-3.19ZM102.77.6H106l-6.32 13.65h-2.91ZM2.58 21.33c.82 3.67 3.05 5.79 6.88 5.79 4.29 0 6-2.28 6-5.39S14.32 17 8.91 15.5C2.58 13.75 1 11.54 1 7.83 1 4 3.56.33 9.11.33s8.19 3.9 8.57 7.88h-2.53A5.93 5.93 0 0 0 9 3C4.81 3 3.6 5.37 3.6 7.59c0 2.56 1.16 3.84 6 5.18 6.91 1.92 8.6 4.52 8.6 8.73 0 5.1-3.59 8.27-8.77 8.27-5.6 0-8.72-3.39-9.4-8.44Z" fill="#ffffff"/></g></g></svg>