<svg xmlns="http://www.w3.org/2000/svg" viewBox="0 0 300 300"><defs><style>.cls-1{fill:#ef8978;}</style></defs><g id="Calque_2" data-name="Calque 2"><g id="Calque_153" data-name="Calque 153"><path class="cls-1" d="M198.19,8.13c1.32-2.5,0-3.13-1.38-3.33A21.47,21.47,0,0,1,197.63,9,7,7,0,0,0,198.19,8.13Z"/><path class="cls-1" d="M115.4,105.37c5.14,1.58,10.75.65,16,1.68,2.61.51,9.49,5.14,6.13,8.26-3.91,3.63-7.7-4.14-8.22-6.59-.36-1.74-2.95-1.59-3,0-7.6,9.81-3.77,20.56,7.93,24.35,11.55,3.74,23.29-1.86,29.13-12.14s7-23.92-.18-33.9a19.55,19.55,0,0,0-16-8.13c-6.51.08-10.44,5.62-12.09,11.26a1.23,1.23,0,0,0-.21.92,1.27,1.27,0,0,0,1.28,1.21,1.49,1.49,0,0,0,1.42-.45c4.31-4.56,14.52,3.24,4.87,5.58C136.63,98.79,132,90.77,129,87c-5.27-6.42-13.71-8.91-19.49-1.56C104.05,92.39,107.08,102.81,115.4,105.37Zm-2-19.78c11.8-10.61,19,22.62,33.35,13.29,7.54-4.9-.77-12.53-7.56-11.15,5.38-10.44,19.29-4.78,23.88,5,3.85,8.22,2.1,18.28-2,26-4.59,8.72-13.32,13.46-23.09,12.07a17.38,17.38,0,0,1-11.22-6.12c-3.08-3.91-1.85-8.55.54-12.34,1.61,3.84,4.62,6.89,9.31,6.44,4.51-.43,5.53-5.61,3.4-8.92-4.11-6.42-11-6.32-18-6.62-4.92-.21-9.75-1-11.77-6.12C108.78,93.19,110.38,88.34,113.44,85.59Z"/><path class="cls-1" d="M129.07,241.57a19.55,19.55,0,0,0-14.64,10.3c-3,5.8.09,11.86,4.3,16a1.21,1.21,0,0,0,.72.61,1.25,1.25,0,0,0,1.66-.56,1.5,1.5,0,0,0,.27-1.48c-2-5.93,9.65-11.31,7.21-1.69-1.48,5.85-10.73,6.17-15.46,7.13-8.14,1.65-14.29,8-10.48,16.5,3.57,8,14.21,10.23,20.35,4.07,3.8-3.81,5.6-9.2,9-13.37,1.67-2.07,9-6,10.16-1.56,1.39,5.15-7.25,4.87-9.67,4.18-1.7-.48-2.77,1.87-1.44,2.65,5.12,11.3,16.41,12.93,25.23,4.36s9.24-21.46,2.88-31.42S141.24,239.9,129.07,241.57Zm27,42.72a17.39,17.39,0,0,1-10.65,7c-4.9.9-8.42-2.36-10.66-6.24,4.16.37,8.25-.86,10.05-5.22,1.72-4.19-2.38-7.51-6.3-7.18-7.6.64-10.75,6.81-14.24,12.78-2.49,4.26-5.48,8.14-10.92,7.55-4.24-.46-7.78-4.14-8.78-8.13-3.87-15.39,28.87-6.23,27.33-23.28-.81-9-11.44-5.16-13.39,1.48-6.71-9.63,4.79-19.29,15.59-18.77,9.06.44,17.14,6.68,22.09,13.9C161.78,266.36,161.89,276.3,156.1,284.29Z"/><path class="cls-1" d="M88.94,154.33c.06-.18.1-.35.15-.52,5.74,1.25,11.51,2.28,17.34,3a1.51,1.51,0,0,0,1.25-2.47c-1.47-1.39-2.89-2.81-4.4-4.14,2.28-.59,4.57-1.14,6.83-1.8,1.3-.39,1.77-2.45.2-2.89-3-.85-5.9-1.94-8.82-3a73.81,73.81,0,0,1,12.11-6.18c1.35-.53,1-2.91-.55-2.84-5.21.23-10.42.18-15.62.49,2.13-3.14,5-5.77,7.1-8.93.68-1-.19-2.74-1.52-2.33-4.13,1.27-7.69,3.76-11.67,5.32a19.61,19.61,0,0,1,1.07-5.53,1.5,1.5,0,0,0-1.3-2,1.44,1.44,0,0,0-2,.39c-2.82,3.91-6.53,7.69-8,12.39-7.82-5.22-17.49-.44-24.33,4.5-5.47,3.95-10,9.45-14.62,14.29-5.18,5.41-10.23,11-15,16.72-1,1.15.37,2.4,1.52,2.33,15.07-1,30.48,1.77,45.06-3.35C80.15,165.56,86.65,160.89,88.94,154.33Zm-.48-27.63a18.1,18.1,0,0,0,0,3.68,1.49,1.49,0,0,0,1.76,1.19,56.25,56.25,0,0,0,8.43-3.85,39.18,39.18,0,0,0-5.37,7.43c-.57,1.13.73,2.06,1.71,2,3.56-.32,7.13-.4,10.7-.47a78.47,78.47,0,0,0-8.48,5.07,1.51,1.51,0,0,0,.47,2.56c2.29.83,4.57,1.7,6.86,2.51-1.59.41-3.17.81-4.74,1.27a1.52,1.52,0,0,0-.57,2.71,32.52,32.52,0,0,1,2.92,2.44c-4.24-.64-8.45-1.44-12.64-2.36,0-5.43-3.69-11.11-5.75-15.79C84.56,132,86.45,129.27,88.46,126.7ZM31.75,168.05c7.15-8.41,14.88-16.29,22.6-24.17,6-6.12,17.76-13.83,25.9-7.52a1.34,1.34,0,0,0,.94.31c2.5,5.54,6.68,11.64,4.53,17.79-2.52,7.2-12.29,10.76-19,12.24C55.3,169.23,43.4,167.73,31.75,168.05Z"/><path class="cls-1" d="M72.28,140.07a1.5,1.5,0,0,0-3,.57c1.16,5.93,4,11.24,6,16.9.64,1.82,3.34.5,2.7-1.3C76.12,150.82,73.38,145.74,72.28,140.07Z"/><path class="cls-1" d="M64.61,147.3c-.08-1.91-3.07-2.13-3-.2.18,4.43,2.44,8.2,3.88,12.3.63,1.82,3.33.5,2.7-1.3C67,154.56,64.77,151.12,64.61,147.3Z"/><path class="cls-1" d="M55.76,152c-.42-1.88-3.36-1.32-2.94.57.72,3.23,1.32,6.55,2.94,9.48.93,1.68,3.64.39,2.7-1.31C57,158,56.43,154.94,55.76,152Z"/><path class="cls-1" d="M47.13,158.47a1.53,1.53,0,0,0-1.76-1.19A1.51,1.51,0,0,0,44.18,159a22.35,22.35,0,0,0,1.34,4,1.5,1.5,0,0,0,2.7-1.31A18.32,18.32,0,0,1,47.13,158.47Z"/><path class="cls-1" d="M120.74,228.38c-1-8.8-9.54-11.89-13.54-18.89-1.93-3.4-2.21-6.88-5.35-9.48s-6.54-3.61-9.31-6.52c-7.29-7.65-15.41-19.66-26.52-12.38a1.53,1.53,0,0,0-1.76.84c-4,8.32,0,14.49,5,21.27,2.76,3.76,4.77,8.91,8.38,12,4,3.4,8.83,5.61,12.37,9.53,2.23,2.46,3.38,5.53,6.52,7a125.54,125.54,0,0,0,11.79,4.81C114.07,238.69,121.5,235.44,120.74,228.38Zm-23.63.32c-2.87-1.67-4.51-5.73-6.92-8A51,51,0,0,0,83,215.59c-4.09-2.69-6.14-6.18-8.67-10.24-4.27-6.85-10.94-12.53-7.89-20.87l.13-.08c9.93-7.77,17.52,4.35,23.65,11,3.45,3.74,9.55,5.28,12,9.64,1.5,2.71,2.11,5.66,3.9,8.26,2,3,5.34,5.19,7.81,7.72a12,12,0,0,1,3.86,8.46c-.09,7-8.3,4.49-12,2.85C102.87,231.08,99.79,230.26,97.11,228.7Z"/><path class="cls-1" d="M78.38,198.25c-1.42.91-1.7-.46-2.1-1.69a24.53,24.53,0,0,0-1.39-4.3c-.93-1.68-3.68-.48-2.74,1.21,1.06,1.91,1.06,4.24,2.17,6.15,1.41,2.43,3.78,2.35,6,.95C81.9,199.53,80,197.21,78.38,198.25Z"/><path class="cls-1" d="M88.54,207.24a3,3,0,0,1-3.14,0,1.5,1.5,0,0,0-1.94.86,1.54,1.54,0,0,0,.85,1.94,5.94,5.94,0,0,0,6.13-.47,1.5,1.5,0,0,0,.21-2.11A1.53,1.53,0,0,0,88.54,207.24Z"/><path class="cls-1" d="M98.26,207.71c-1.55-1.16-3.31,1.27-1.76,2.43,1.71,1.28.66,3.5-.56,4.76s.55,3.72,1.9,2.33C100.43,214.55,101.7,210.29,98.26,207.71Z"/><path class="cls-1" d="M102.86,224.4c-1.93-.14-2.27,2.84-.34,3A3.52,3.52,0,0,1,105,229c1.2,1.51,3.53-.39,2.32-1.9A6.44,6.44,0,0,0,102.86,224.4Z"/><path class="cls-1" d="M9.6,150a1.54,1.54,0,0,0,2.2-.9c.24-.63.52-1.23.81-1.82,2.28.92,5.1,2.63,7.59,2s4.39-4.46,5.75-6.44l1,.49a1.53,1.53,0,0,0,2.06-.54,36.26,36.26,0,0,0,4.81-14l.56.07a1.48,1.48,0,0,0,1.44-1.1c1.37-5.81,1-14.56-3-19.6.32-.16.64-.33,1-.51a1.48,1.48,0,0,0,.69-1.69,17.3,17.3,0,0,0-9-9.3,18,18,0,0,0,5.32-4.24,1.53,1.53,0,0,0-.3-2.36A28.84,28.84,0,0,0,0,90.26v4.33l.12-.19c4.72,1.57,9,4.84,9.19,10.22a4.93,4.93,0,0,1-.41,2.14A1.35,1.35,0,0,0,8.19,108c-1.49,2-4.22,3.44-6.48,4.46C1.15,111.35.55,110.18,0,109v6.5a1.64,1.64,0,0,0,1.78.19A26.75,26.75,0,0,0,8.08,112c-.5,6.47-2.65,12.82-7.84,17L0,128.68v3.83a1.3,1.3,0,0,0,.78-.19c.34-.23.65-.49,1-.73A36.33,36.33,0,0,1,0,137.92v6.93c.12-.21.25-.42.36-.63A46.63,46.63,0,0,0,9.6,150Zm9.74-3.57c-1.55.2-3.72-1-5.36-1.78a24.25,24.25,0,0,0,1.61-3.56c.77.38,1.55.74,2.37,1.06a1.49,1.49,0,0,0,1.84-1c.09-.4.18-.8.28-1.2l3.18,1.59C22.46,142.75,20.73,146.23,19.34,146.42Zm-8.92-28.51-.24,0a38.25,38.25,0,0,0,1-9.57,8.2,8.2,0,0,0,.4-.78,18,18,0,0,0,9,2.81,1.47,1.47,0,0,0,.15.43,22.2,22.2,0,0,1,2.79,9.6C19.1,119.89,14.79,118.81,10.42,117.91ZM27.07,140l-6.3-3.15a57.38,57.38,0,0,0,1.62-9.65c2.83.3,5.64.79,8.46,1.19A31.23,31.23,0,0,1,27.07,140Zm6.09-14.32c-3.6-.41-7.15-1.09-10.75-1.48,0-.33,0-.66,0-1,.88.12,1.76.22,2.65.29a1.51,1.51,0,0,0,1.5-1.5,23.82,23.82,0,0,0-2.66-11.67,25.8,25.8,0,0,0,6-1C33.52,113.06,34.05,120.52,33.16,125.72Zm-2.1-20c-5.34,2.42-13.71,2.48-18.28-1a1.36,1.36,0,0,0-.47-.23,9.19,9.19,0,0,0-.82-4.63,35,35,0,0,0,9.31-1.33A13.22,13.22,0,0,1,31.06,105.68ZM2.63,92.16a26,26,0,0,1,24.64-.47,18.53,18.53,0,0,1-7,3.88l-.19.06A33,33,0,0,1,9.69,96.86H9.48A20,20,0,0,0,2.63,92.16Zm6.72,28.56.27.09c3.25.66,6.47,1.41,9.72,2,.69,5.41-.79,10.58-2,15.81a29.68,29.68,0,0,1-12-10.53A24.64,24.64,0,0,0,9.35,120.72ZM4.66,132.17a32.93,32.93,0,0,0,8.26,7.42v0c-.69,2.5-2.15,4.69-3.28,7a43.19,43.19,0,0,1-7.89-5.16A39.6,39.6,0,0,0,4.66,132.17Z"/><path class="cls-1" d="M40.54,85.16c.7,10.92,7.4,27.13,19.23,29.72h.07a1.26,1.26,0,0,0,1.42.17C72.92,109.92,81,100.1,83,87.64c15.7,6.71,7.31-28.07,6.51-34.56A1.51,1.51,0,0,0,87.14,52c-3.49,2.74-6.31,6.15-9.61,9.08A27,27,0,0,0,66,50.2c2.12-7.33,7.17-13.39,8.63-21a1.52,1.52,0,0,0-1.23-1.73c-10.29-2.64-23.57-.74-32.46,5.16a1.49,1.49,0,0,0-.52,1.75c2.93,6.49,7.74,11.71,11.54,17.66-5.07,3.05-8,8.05-9.72,13.68-3.17-.07-6.49-2.07-8.88-3.93a1.52,1.52,0,0,0-2.43.91c-.86,6.45,4,11.61,9.55,14.1A72.1,72.1,0,0,0,40.54,85.16Zm20.09,26.89a1.91,1.91,0,0,0-.36-.13c-7.84-1.72-13-10.91-15.33-19.24l.28-.09c10.23-4.59,24-7.47,32.84,1.26l.21.17A33.87,33.87,0,0,1,60.63,112.05ZM79.31,90.93c-9.63-8.72-24.18-6.05-35.09-1.18-.25-1.18-.43-2.31-.55-3.38a1.5,1.5,0,0,0,1.06-.79c2-3.84,5.35-5.67,9.09-2.64A1.51,1.51,0,0,0,56.24,82c1-4.91,6.76-3.94,8.92-.55a1.5,1.5,0,0,0,2.37.06c3.57-4.17,10.76-.2,12.31,4.1a1.37,1.37,0,0,0,.38.58A30.53,30.53,0,0,1,79.31,90.93Zm7.61-34.8c.79,4.94,2,9.83,2.5,14.82.52,4.84,1.83,17.28-6.06,13.55A41.54,41.54,0,0,0,79,63.78C81.78,61.36,84.21,58.6,86.92,56.13Zm-32.58-2a1.63,1.63,0,0,0,.42-2.56,1.43,1.43,0,0,0-.23-1c-3.46-5.49-7.89-10.32-10.78-16.14,7.76-4.65,18.73-6.13,27.59-4.32-1.82,7.17-6.65,13.12-8.52,20.3a1.23,1.23,0,0,0,.44,1.37,1.32,1.32,0,0,0,.82.87,19.83,19.83,0,0,1,5.16,3.16,15.13,15.13,0,0,0-7.11,2.84c-3.54-3.3-7.56-3.42-11.59-1.82A15.33,15.33,0,0,1,54.34,54.12Zm-7.51,7.82a1.4,1.4,0,0,0,.93-.26c4.31-2.89,9-4.78,13-.2a1.53,1.53,0,0,0,2.1.33c2.61-2,5.17-3.4,8.57-3.08a1.5,1.5,0,0,0,.68-.08,32.72,32.72,0,0,1,5.13,8.56C73.79,66,70.12,67,67,69.16c-3.57-3.54-9.15-3.87-11.86.11-3.09-2.79-7.14-1.93-10.81.1A30.45,30.45,0,0,1,46.83,61.94ZM43.66,73.28l.25-.15c3.25-2.26,7.55-4.52,10.31-.26.78,1.21,2.37.51,2.69-.63,1.39-4.91,6.55-2.93,8.62-.19a1.51,1.51,0,0,0,2.1.32c2.82-2.19,6.64-4.06,10.07-1.6a1.45,1.45,0,0,0,.92.29,41.83,41.83,0,0,1,1.74,9.85c-3.55-3.8-9.69-5.59-13.82-2.51C62.89,74.53,56.41,74.78,54,79.48c-4-2.17-8-.76-10.67,2.75A56.73,56.73,0,0,1,43.66,73.28ZM34,65.9a17.94,17.94,0,0,0,7.5,2.8,47.12,47.12,0,0,0-.77,4.9C37.58,72,34.7,69.29,34,65.9Z"/><path class="cls-1" d="M57.8,48.23c-1.43-4.19-2.84-8.39-4-12.67-.5-1.86-3.29-.76-2.8,1.09,1.14,4.28,2.55,8.47,4,12.66C55.63,51.14,58.42,50.05,57.8,48.23Z"/><path class="cls-1" d="M62,43.16c0-3.12,0-6.23.33-9.35.17-1.91-2.78-2.42-3-.49-.3,3.38-.36,6.76-.35,10.15C59,45.41,62,45.08,62,43.16Z"/><path class="cls-1" d="M67.79,93.55a1.39,1.39,0,0,0-1.37.1,1.15,1.15,0,0,0-.73-.1c-2.13.49-3.89,1.74-3.94,4.09a5.21,5.21,0,0,0,2.45,4.26,4,4,0,0,0,5.32-.64A4.8,4.8,0,0,0,67.79,93.55Zm-.65,5.87c-.3.25,0,.08-.37.22h-.29a1.24,1.24,0,0,1-.71-.31,2.12,2.12,0,0,1-.8-.91c.15.25-.12-.28-.15-.38l0-.17a1.53,1.53,0,0,1,0-.3l0-.21,0-.13.13-.19,0,0a1.85,1.85,0,0,1,.37-.25s.48-.19.65-.23a2.09,2.09,0,0,0,.6-.24,2,2,0,0,1,1.25,1.46A2.19,2.19,0,0,1,67.14,99.42Z"/><path class="cls-1" d="M259.8,275.43c-19.22-1.46-35.94-8.49-51.94-18.95-4.11-2.69-8.15-5.46-11.11-9.43-1.9-2.54-3.75-5.65-6.71-7.09a9.21,9.21,0,0,0-9.27.47c.57-7.54-3.27-14.67-5.58-21.65-.6-1.84-3.3-.52-2.7,1.29,2,6,5.23,12.1,5.34,18.51-4.18-7.6-10.33-13.9-14.92-21.29-1-1.63-3.73-.35-2.71,1.29,4.16,6.69,9.62,12.52,13.71,19.21a53.89,53.89,0,0,0-4.49-3.16,65.1,65.1,0,0,1-15-13.21,1.5,1.5,0,0,0-2.28,1.94,58.79,58.79,0,0,0,11.44,11.12c3.14,2.15,7.52,4.11,10.14,7.19-5.48-2-11.3-3.33-15.83-7.08-1.49-1.24-3.16,1.26-1.68,2.48,5.55,4.61,12.85,5.51,19.24,8.47v.07c0,15.7,16.41,24.76,29.14,29.84A79.76,79.76,0,0,0,229,281c10.38.69,20.79-1.28,31-2.6C261.71,278.18,261.47,275.56,259.8,275.43Zm-27.61,2.68a73.42,73.42,0,0,1-23.41-4.3c-12.06-4.13-30.12-12.78-30.33-27.68a1.54,1.54,0,0,0,.76-.5c3.18-3.71,7.38-5.19,11.39-1.54,2.62,2.38,4.26,5.75,6.69,8.32,5.06,5.34,12.87,9.29,19.18,12.94a99.11,99.11,0,0,0,31.72,11.59A124,124,0,0,1,232.19,278.11Z"/><path class="cls-1" d="M100.83,6.75c-2.88.33-5.35,1.88-4.66,5.44a8.65,8.65,0,0,0,3.48,5c2.29,1.79,5.85,2.3,7.79,4.46a2.32,2.32,0,0,0,.3.26c.19,3,2.15,6.19,4.69,8.72-3.86.82-7.69.78-11.75-1.84a1.21,1.21,0,0,0-1.75.36,1.57,1.57,0,0,0-1.32,1c-4.37-1.36-8-6.68-13-5-3.83,1.31-4,4.74-2.45,7.6-2.52,1.26-3.29,4-1.21,6.84a8,8,0,0,0,4.92,3C88.94,43.3,92,41.43,95,41a1.53,1.53,0,0,0,1.6,1.54c7.26.2,13.15,6.2,18.75,11.23a1.27,1.27,0,0,0,.11.95c2.91,5.86,6.79,10.29,13.25,12.06,8.26,2.27,18.53-.53,26.73-1.83,13.93-2.22,36.39-7.66,31.79-26.43C183.54,23.38,170.75,9.26,155,6.71a35.75,35.75,0,0,0-33.76,13.64,1.37,1.37,0,0,0-1.35-.2c-1.9.64-4.74-3.68-5.69-4.9a1.83,1.83,0,0,0-.93-.62C112.79,10,112.83,3,108.58.77A6.9,6.9,0,0,0,106.07,0h-.95C102.16.31,100.45,3.43,100.83,6.75ZM95.54,38c-3.31.14-7.08,2.71-10.26,1.4-2.21-.91-4-3.85-.59-4.25a1.52,1.52,0,0,0,.86-2.64c-1.34-1.39-2.45-4,.32-4.5,1.82-.34,3.61.87,5,1.86a20,20,0,0,0,5.87,3.22C96.29,34.7,95.88,36.33,95.54,38ZM145.81,9.69a1.77,1.77,0,0,0,.05.32c1,4.08,1.53,8.38.61,12.52-.42,1.9,2.53,2.47,2.94.58,1-4.53.4-9.19-.63-13.66a39.16,39.16,0,0,1,4.33,0,26.62,26.62,0,0,1,5.44,1v.18a28.83,28.83,0,0,1-1,12.72c-.57,1.85,2.38,2.4,2.95.57a30.74,30.74,0,0,0,1.17-12.36,33.9,33.9,0,0,1,9.83,6.5c-.65,3-1.17,6.54-3.64,8.62-1.47,1.24.22,3.72,1.7,2.47,2.66-2.23,3.68-5.34,4.44-8.56a49.47,49.47,0,0,1,9.4,15.46c2.6,6.87,1.65,13.69-4.48,18.2-6.55,4.81-15.91,6.4-23.7,7.72-6.82,1.16-13.92,2.37-20.85,2.47a16,16,0,0,1-13-5.9c7.09,4.37,14.28,3.54,20.34-2.67,7.29-7.47,5.18-20.59-2.81-26.46-4.34-3.19-10.31-3.23-15.33-2.05-1.25.29-2.47.65-3.68,1A32.44,32.44,0,0,1,145.81,9.69Zm-17.32,20c8-.68,13.73,5.17,14.62,12.69.74,6.24-2.67,11.72-7.85,14.88-7.52,4.58-15.52-3.4-20.77-8-4.76-4.14-9.85-8.63-16.23-9.54a77.84,77.84,0,0,1,1.92-7.8C109.8,37.47,118.35,30.56,128.49,29.69ZM112.62,18.05c1.7,2.19,4,4.94,6.7,5.12a34.08,34.08,0,0,0-2.95,6,1.4,1.4,0,0,0-.1.44l-.39.12C112.38,26.79,107.94,21.27,112.62,18.05ZM106.18,3c2,.27,2.5,2.4,2.88,4,.73,3,.91,6,1.41,9a7.36,7.36,0,0,0-2.11,2.57,37.11,37.11,0,0,0-4.71-2.49c-2.78-1.38-7.75-6.92-1.23-6.42a1.52,1.52,0,0,0,1.7-2C103.43,5.82,103.2,2.59,106.18,3Z"/><path class="cls-1" d="M30.73,255.22c11.7,8.73,25.69,18,40.43,20.1C81,276.75,88,271.64,89.56,261.9c1.81-11-4.42-19.34-13.23-23.47C76,225.83,65.85,219.7,54.41,217c-4.91-10.82-12.91-19.9-23.47-23.42a1.36,1.36,0,0,0,.28-1.11C29.31,179.55,11.56,175.31,0,180.1v3.09a20.74,20.74,0,0,1,6-1.68c8.1-1.15,20.79,1.8,22.27,11.32a31.85,31.85,0,0,0-11.31-.53,1.5,1.5,0,0,0,.41,3c10.12-1.3,18.48,2.5,24.87,8.91-5.75-1.9-12.62-2.08-17.75.32-1.75.82-.22,3.4,1.52,2.59,5.76-2.7,14.54-1.23,19.82,2a1.4,1.4,0,0,0,.75.22,50.52,50.52,0,0,1,4.18,7,81.74,81.74,0,0,0-16.26-1.05c-1.94.07-1.5,3,.41,3,9.32-.31,23.77.88,32.06,7.39-6.14-.67-12.2-.55-17.81,2.58a1.5,1.5,0,0,0,1.51,2.59c5.87-3.28,12.43-2.78,18.85-1.85a1.48,1.48,0,0,0,.7-.05,15.49,15.49,0,0,1,3.13,8.36,31.6,31.6,0,0,0-14.69-1.39,1.5,1.5,0,0,0,.42,3c13.35-1.94,28.71,5.88,27.75,20.84-.46,7.06-4,12.42-11.31,12.92s-14.8-3-21.12-6.12a142.13,142.13,0,0,1-21.15-13.1c-10.94-8-19.47-17.66-27.35-28.67A98.56,98.56,0,0,1,0,215.36v6.07c1.48,2.23,2.92,4.26,4.17,6C11.8,238.09,20.23,247.39,30.73,255.22Z"/><path class="cls-1" d="M191.56,3.19a4.55,4.55,0,0,0,1.88,1.07,18.49,18.49,0,0,1,1.35,6.84,1.72,1.72,0,0,0,.09.52,7.81,7.81,0,0,0-1.66,9.43,6.84,6.84,0,0,0,2.72,2.59,1.71,1.71,0,0,0,1.63,1.1c1.54,9.52,1.86,19.26,4.93,28.46a1.18,1.18,0,0,0,.89.86A8.76,8.76,0,0,0,206,58.3c2.5,2.21,5.72,2,8.22-.11a1.35,1.35,0,0,0,.48-1.44c13.63-2.92,26.72-6.93,37-16.92,3.23-3.14,5.29-7.7,3.85-12.19-1.33-4.17-3-7.83-7.45-7.47a1.73,1.73,0,0,0-.7-.33,1.52,1.52,0,0,0-.48-.58C238.83,13.45,231.51,6.67,224.12,0h-4.28l.2.18a1.51,1.51,0,0,0-1,.28,7.5,7.5,0,0,1-9.12-.18c-.12-.09-.22-.19-.33-.28h-3.77a9.56,9.56,0,0,0,1.67,2.11A10.47,10.47,0,0,0,221,2.76a1.24,1.24,0,0,0,.56-1.25c7.68,7,15.2,14.11,23.61,20.16-8.57,12.22-19.46,23.1-35,24.76-1.89-5.09-1.66-11-3.29-16.21,5.6-1.25,3.56-7.57.63-10.59a8.1,8.1,0,0,0-6.26-2.8c-2.07.12-3.47,1.66-4.37,3.43-2.28-2.21-1.29-5.15,1.55-7.87s5.16-7.6.77-10a6.19,6.19,0,0,0-2.27-.58,10.69,10.69,0,0,1-1.89-.6l-.14-.06A23.12,23.12,0,0,1,192.46,0H188.7A14.2,14.2,0,0,0,191.56,3.19Zm56.12,20.07c6.3-1.13,5.4,9.76,3.5,12.62-2.74,4.11-8,7.22-12.14,9.65-7.64,4.53-16.33,6.47-24.92,8.28a14.34,14.34,0,0,0-2.06-4.6C227.68,47,238.93,35.78,247.68,23.26ZM209.16,50.35a11.63,11.63,0,0,1,2.35,5.47,1.43,1.43,0,0,0,.19.49c-2.92,1.72-5.8-1.51-5.57-4.68C206.26,49.82,207.89,48.94,209.16,50.35ZM207,46.62a5.2,5.2,0,0,0-2.82,2c-1.89-7.28-2.32-14.89-3.39-22.33a6.66,6.66,0,0,1,2,2.05C206,33.62,205.22,40.63,207,46.62Zm-5.53-26.81c1.21-.21,2.63.77,3.49,1.59a8.22,8.22,0,0,1,2.4,3.8c.29,1.21,0,1.86-1.27,2.12a1.52,1.52,0,0,0-.41.14A14.57,14.57,0,0,0,204.17,25a12.91,12.91,0,0,0-4.81-3.19A3.07,3.07,0,0,1,201.51,19.81Z"/><path class="cls-1" d="M226.74,31.19c5.41-.41,7.55-6.69,6.63-11.23a1.24,1.24,0,0,0-.21-.91c-2.37-3.74-6.33-6.46-10.88-4.93a8.44,8.44,0,0,0-5.81,8.65C216.79,27.64,222.13,31.53,226.74,31.19ZM223.16,17c2.92-1.17,5.71.94,7.23,3.27l0,.19c.68,3.3-.43,7.17-4.17,7.8-3.26.55-6.84-3.28-6.83-6.4A5.52,5.52,0,0,1,223.16,17Z"/><path class="cls-1" d="M21.66,49c4.46-6.29,5.44-13.77,7.82-20.92a15.56,15.56,0,0,1,1-2.42,1.16,1.16,0,0,0,.89-1.37l0-.14c3.2-5,8.41-7.79,12.31-12.35a1.59,1.59,0,0,0,1.51-2.27c-.3-.61-.6-1.22-.89-1.83a1.51,1.51,0,0,0,.85-.12C51.32,4.93,63.08,10,67.46,3a4.9,4.9,0,0,0,.88-3h-3a2,2,0,0,1,0,.69c-.47,2.68-5.53,3-7.43,3.09C52.68,4,48.61,2.85,43.63,5a1.78,1.78,0,0,0-.43.28A32.3,32.3,0,0,1,42,1.92,18.83,18.83,0,0,0,45.52,0H33.13a20.49,20.49,0,0,1-9.7,0H13.67C21.31,2.61,31.76,5.8,38.6.53a36,36,0,0,0,3.19,8.86c-3.25,4.13-8,6.74-11.42,10.72-1.2-3.49-3.12-6.67-4.69-10.09-.8-1.76-3.39-.23-2.59,1.51,1.77,3.84,4.23,7.48,5.09,11.65-1.85,3.32-2.8,7.24-3.71,11C22.94,23,17.22,12.3,8.14,5.48,6.6,4.32,5.1,6.93,6.63,8.07c10.11,7.59,15.54,20.74,15.26,33.21a1.38,1.38,0,0,0,.25.87,30,30,0,0,1-6.73,9.92c2.5-10.64-1.92-22.49-8.23-31C6.05,19.48,3.44,21,4.59,22.53c6.59,9,11.6,22.26,6.5,33l-.08.22a38.61,38.61,0,0,1-9.44,4.83c3.22-4.85,2.19-11.91,1-17.18A64.61,64.61,0,0,0,0,34.74V45.15A25,25,0,0,1,.13,56.37c0,.15-.09.27-.13.42V64.2A39.05,39.05,0,0,0,21.66,49Z"/><path class="cls-1" d="M298.81,91.21a1.51,1.51,0,0,0-1.18-.3c-9,1.44-20.4,8.43-22.05,18a1.56,1.56,0,0,0,1,1.85,17.14,17.14,0,0,0,3.2.82c-.89,6.67-.62,12.93,2.24,19.15a1.52,1.52,0,0,0,2.36.31c.5-.48,1-1,1.54-1.44,1.86,6.62,6.64,11.15,11.34,16.1a1.5,1.5,0,0,0,2.35-.3l.35-.6v-6.93a34.85,34.85,0,0,1-1.95,4.28c-4.23-4.4-8.31-8.6-9.58-14.91v0a63.53,63.53,0,0,0,4.59-4.83,32.45,32.45,0,0,0,5.91,9.65,1.48,1.48,0,0,0,1,.42v-3.83a33,33,0,0,1-4.84-9,23.41,23.41,0,0,0,3.39-6.89c.39.8.79,1.58,1.18,2.32a1.16,1.16,0,0,0,.27.34V109c-1.65-3.65-3-7.77-2-11.29.66-1,1.32-2.09,2-3.08V90.26c-.24.16-.49.3-.73.47A1.61,1.61,0,0,0,298.81,91.21Zm-20,17.12c2.1-7.12,10.25-12.24,17.39-14a10.9,10.9,0,0,0-1,2.37C291.28,103.23,287.23,110.47,278.81,108.33Zm17.25,1c-.66,7.44-7.2,13.19-12.55,18.11-1.86-5.07-1.51-10.32-1.51-15.71v0c6-.44,9.36-4.49,12.52-9.21a29.12,29.12,0,0,0,1.87,5.91A1.46,1.46,0,0,0,296.06,109.36Z"/><path class="cls-1" d="M292.87,185.32c-7.93,10.32.06,25.48,7.13,36.11v-6.07c-6.36-11.48-11.57-26.75,0-32.17V180.1A17,17,0,0,0,292.87,185.32Z"/><path class="cls-1" d="M262.93,32.59c2.82,12.27,9.62,27.92,22.35,32.64a15,15,0,0,0,9.89.06A47.69,47.69,0,0,0,300,64.2V56.79a8.46,8.46,0,0,1-5.91,5.66q-1.35.21-2.7.33a1.51,1.51,0,0,0-.66.2,14.21,14.21,0,0,1-4.65-.64c-11.42-3.65-17.32-19.21-20-29.58-2.38-9.13-4.8-25.83,5.07-31.68,6.58,5.18,12.75,10.05,17.31,17.19a94.74,94.74,0,0,1,9.06,18.54,60.72,60.72,0,0,1,2.5,8.34V34.74a104,104,0,0,0-7.07-14.83c-4.7-8.3-11.06-14.08-18.37-19.91h-7.05C258.83,7.38,260.67,22.81,262.93,32.59Z"/><path class="cls-1" d="M276.39,24.78a1.21,1.21,0,0,0-.72.61c-.12.11-.23.21-.34.33a1.41,1.41,0,0,0-.31,1.52c-1,4.2.5,9.17,2.26,12.85,2,4.16,6.49,6.79,9.91,2.44C291.74,36.73,283.46,19.65,276.39,24.78Zm8.44,15.94c-3.91,5-7.89-9.58-6.75-13.4C282.07,24.89,287.48,37.34,284.83,40.72Z"/><path class="cls-1" d="M194.85,278.58c-3.89,2.41-7.68.72-9.31,5.85-1.07,3.37,2.72,3.83,4.92,4.6,1.15.41,4.43,2.83,2.24,3.55-1.71.55-2.36,1.62-2.95,3.23-.37,1-1.75,2-1.45,3.21a4.2,4.2,0,0,0,.4,1h3.76c-.77-.43-1.3-.82-1.16-1,.44-.71.87-1.35,1.25-2.09.9-1.74,2.58-1.77,3.94-2.87,3.8-3.05-2.24-6.33-4.23-7.38a12.17,12.17,0,0,0-3-1.05c-2.34-.54,1.55-2.67,2.67-2.93a36.2,36.2,0,0,0,3.58-.94c1-.35,5.17,3.1,6.08,3.7,2,1.29,3.86,2.66,5.73,4.07l-.07.06c-2.72,3.13-3.33,7.14-1.4,10.47h3.77c-2.84-2.41-2.21-6.08,0-8.7,3.51,2.77,6.88,5.71,10.21,8.7h4.28c-8.69-7.83-17.49-15.52-27.77-21.29A1.47,1.47,0,0,0,194.85,278.58Z"/><path class="cls-1" d="M270.33,298.22l-.07.07a1.43,1.43,0,0,0-.63.19,15.88,15.88,0,0,0-2.12,1.52h7.05l-.79-.63c7.74-5.37,17.17-5.29,26.23-3.37v-3.14C289.74,290.84,278.78,291.49,270.33,298.22Z"/><path class="cls-1" d="M61.78,294.66c1.25-4.1,2.61-7.88,1.55-12.28a1.5,1.5,0,0,0-1.84-1.05c-9.06,2.79-11.68,13.88-20.14,17.63l0-.08a1.17,1.17,0,0,0-1.06-1.08,1.47,1.47,0,0,0-2.44-.58,10.76,10.76,0,0,1-4.7,2.78H45.52a29.89,29.89,0,0,0,6.06-5.75c2.72-3.26,5.22-7.44,9.12-9.38.29,3.64-1.26,7-2.26,10.51a1.5,1.5,0,0,0,1.05,1.84c1.47.26,5.4.76,5.81,2.78h3C68.13,297.22,64.78,295.47,61.78,294.66Z"/><path class="cls-1" d="M0,292.86V296a103.84,103.84,0,0,1,12.32,3.54l1.35.46h9.75c-7-1.4-14.53-4.94-19.67-6.29C2.52,293.39,1.26,293.11,0,292.86Z"/><path class="cls-1" d="M240.33,192.55c-18.75,1.28-20.2,30.41-3.5,37,11,4.36,22.66-2.1,25.49-13.36C265.45,203.8,253.11,189.5,240.33,192.55Zm18.53,24.9c-3,9.5-14.73,13.16-23,8.27-11.27-6.66-10.1-26.76,2.47-29.82a1.26,1.26,0,0,0,1.07,0,11.27,11.27,0,0,1,1.48-.42c.36,0,.74,0,1.12,0a1.36,1.36,0,0,0,.81-.22c5.68-.27,11.46,3.44,14.62,8.06C260.26,207.47,260.3,212.83,258.86,217.45Z"/><path class="cls-1" d="M242.4,217.55c-6.29-1.23-5.21-10.34-1.84-14,1.31-1.42-.81-3.54-2.12-2.12-4.82,5.22-5.52,17.3,3.16,19C243.49,220.82,244.3,217.93,242.4,217.55Z"/><path class="cls-1" d="M245.44,173.29c-3.79-.19-7.58-.18-11.37-.23a1.45,1.45,0,0,0-.57-.06l-.39,0L231,173a1.35,1.35,0,0,0-1.08.43,52.66,52.66,0,0,0-27.57,12.75c-7,6.28-14.15,17-9.87,26.63,2.09,4.72,5.57,8.46,9.19,12.06,5.18,5.16,7.13,10.59,10.07,17.11,1.85,4.1,4.51,9,9,10.67,5.25,2,10.29.25,15.29-1.71,3.35-1.31,6.41-2.48,10.08-2.57,3.19-.08,6.42.72,9.61,1A17.08,17.08,0,0,0,269,244.5c7.1-6.68,10.7-18.82,11.86-28.12,1.41-11.3-1.21-24.12-8.41-33.11C266.06,175.34,254.92,173.77,245.44,173.29Zm27.32,59.87c-2,4.31-4.45,8.54-8.43,11.27-5.31,3.65-12.37,1.21-18.24.94-11.11-.53-21.46,12.13-29.85-1.1-2.53-4-3.74-8.79-5.77-13-2.25-4.73-6.29-7.95-9.8-11.69s-6.36-8-6.5-13.24c-.16-6,4.4-11.74,8.17-15.89,7.79-8.57,19.34-13.28,30.71-14.36,8.4.16,16.86-.13,25.06,2,11.3,2.91,16.73,12.41,19.11,23.19C279.63,212.19,277.35,223.13,272.76,233.16Z"/><path class="cls-1" d="M162.11,151.37a1.51,1.51,0,0,0-1.47-1.54,28.26,28.26,0,0,0-8.86,1.87,25.06,25.06,0,0,0-1.55-8.45,1.51,1.51,0,0,0-2.59-.09,73,73,0,0,0-3.26,7.75c-2.32-2.35-4.38-4.61-8.09-4.61a1.52,1.52,0,0,0-1.5,1.84,27.8,27.8,0,0,0,3.28,8.91C125.81,150.33,109.25,157,107,172c-2.63,17.35,12,30.88,26.9,36.52,16,6,38,.55,44.46-16.55,3.11-8.21.2-18-5.18-24.47-4.47-5.41-10.9-7.14-17.58-7.55C159,158,162,155.79,162.11,151.37Zm-18.25,3.21a1.52,1.52,0,0,0,2.53-.58c.74-1.85,1.41-3.73,2.15-5.57.22,1.77.24,3.57.41,5.36a1.53,1.53,0,0,0,2.21,1.36,27.17,27.17,0,0,1,7.63-2.17c-1.28,3.57-6.15,5-9.27,6.85-2,0-3.93.15-5.82.24a3.31,3.31,0,0,0-.18-.29,28.08,28.08,0,0,1-5.29-10.1C140.52,150.59,142,152.92,143.86,154.58Zm26.19,13.94c6,5.56,7.71,14.95,5.42,22.53-4.74,15.74-26.16,19.21-39.59,14.94-12.34-3.91-24.79-14.4-26.2-27.92-.77-7.35,2.34-14.75,8.79-18.49,6.82-4,16-2.66,21.7,2.59a1.36,1.36,0,0,0,.32.23,1.24,1.24,0,0,0,1.28.76c2.51-.11,5.09-.28,7.67-.36a1.2,1.2,0,0,0,.93,0C157.49,162.64,164.56,163.41,170.05,168.52Z"/><path class="cls-1" d="M125.78,163c-8.58,6.79-10.9,19.53-3,27.72,1.35,1.39,3.55-.65,2.2-2-6.88-7.09-4.51-17.7,2.79-23.48C129.34,164,127.28,161.8,125.78,163Z"/><path class="cls-1" d="M185.7,134.88a44,44,0,0,1-.07-22.47c1.76-6.4,5.82-14.86,11.44-17.64,6.1-3,13.91,4.15,17.65,7.6l.2.18c1.49,1.36,3.52,3.22,4.07,5.82a11.46,11.46,0,0,1-.87,6.11c-.22.66-.43,1.29-.59,1.9a12.31,12.31,0,0,0,7.94,14.29c.35.11.71.21,1.07.3A7.47,7.47,0,0,1,233,136.9l.26.71c.33.86.72,1.72,1.14,2.62,1.07,2.29,2.17,4.67,2.15,7.38,0,3.16-1.67,6.4-4.63,9.13a23.32,23.32,0,0,1-15.75,5.9,25.49,25.49,0,0,1-3.59-.25,29.92,29.92,0,0,1-17.62-9.73A41.62,41.62,0,0,1,185.7,134.88Zm28.93-19.25c.18-.72.42-1.42.65-2.11a13.43,13.43,0,0,0,.84-3.39,20.73,20.73,0,0,0-4.76,11.65c-.25,4.8,1.85,9.52,5.34,12a10.58,10.58,0,0,0,11,.73,13.38,13.38,0,0,0-2-.65c-.39-.11-.79-.21-1.18-.33A15.42,15.42,0,0,1,214.63,115.63Zm-1.94-11c-2.16-2-6.39-5.87-10.19-7.12a36.48,36.48,0,0,0-7.71,19.81,56.74,56.74,0,0,0,2.69,21.82c1.13,3.66,2.86,8.25,6.2,11.28,3,2.73,7.52,4.28,12.67,4.36,4.79.09,9.58-1,14.23-2.09a1.44,1.44,0,0,1,.92.08,8.75,8.75,0,0,0,2-5.14c0-2-.9-4-1.87-6.09-.42-.91-.86-1.85-1.23-2.82-.09-.25-.18-.5-.28-.76s-.27-.74-.41-1.09a12.63,12.63,0,0,1-6.81,1.93,13.7,13.7,0,0,1-7.94-2.51,16.86,16.86,0,0,1-6.6-14.62A24.25,24.25,0,0,1,214.78,107a1.43,1.43,0,0,1,.2-.14,19.68,19.68,0,0,0-2.08-2.14Zm-24.08,29.56a38.61,38.61,0,0,0,8.52,16.5A27,27,0,0,0,213,159.42a21.2,21.2,0,0,0,14.42-3,51.13,51.13,0,0,1-10.58,1.31h-.5c-5.87-.09-11.07-1.91-14.64-5.14-3.88-3.51-5.8-8.59-7-12.61a59.77,59.77,0,0,1-2.81-23,40.4,40.4,0,0,1,7-19.7c-.14.06-.3.09-.44.16-4.43,2.19-8.15,9.49-9.88,15.75A41,41,0,0,0,188.61,134.14Z"/><path class="cls-1" d="M224.42,105.41a7.53,7.53,0,0,1-.68-2.58,8.27,8.27,0,0,1,2.88-6.68,9.76,9.76,0,0,1-1.55-2.35,7.65,7.65,0,0,1-.68-2.58,8.35,8.35,0,0,1,3.26-7,11.06,11.06,0,0,1,2.06-1.3A7.89,7.89,0,0,1,231,71.27a12.91,12.91,0,0,1,11.51-2.17A8.66,8.66,0,0,1,245,70.42a37.4,37.4,0,0,0-.81-3.76l-.27-1.11c-.76-3.17-1.37-7.23.68-10.56a6.36,6.36,0,0,1,3.1-2.7,4.67,4.67,0,0,1,4.53.59c1.73,1.36,1.93,3.6,1.92,5.41a63.87,63.87,0,0,1-1.81,14.57,13.93,13.93,0,0,1,1.7-.52c4.75-1.06,10.5.44,11.9,6.26A9.61,9.61,0,0,1,263.76,87a8.46,8.46,0,0,1,1.75,3.49,9.68,9.68,0,0,1-2.61,8.83,8.26,8.26,0,0,1,1.45,3.11,9.87,9.87,0,0,1-5.26,10.78h0a10.61,10.61,0,0,1-2.59.84,11,11,0,0,1-4.49-.15,9.6,9.6,0,0,1-7,5.32,11.28,11.28,0,0,1-9.27-2.57,9.64,9.64,0,0,1-2.5-3.3,7.94,7.94,0,0,1-.61-2,11.32,11.32,0,0,1-5.7-2.61A9.64,9.64,0,0,1,224.42,105.41Zm25.18,6c.05-.14.07-.29.11-.43s.07-.25.09-.37v0a5.73,5.73,0,0,0,.07-1.54,4.69,4.69,0,0,0-.12-.75,6.49,6.49,0,0,0-.33-1c0-.1-.1-.19-.14-.28a5.3,5.3,0,0,0-.33-.57l-.21-.28a5.92,5.92,0,0,0-.41-.45,3.07,3.07,0,0,0-.26-.25l-.18-.12-.09,0-.37.1c-.22,0-.44.11-.66.15l-.11,0c-.26,0-.53.08-.8.11a11.25,11.25,0,0,1-1.16,0l-.36,0q-.41,0-.81-.06l-.22,0c-.05.12-.12.23-.18.35l-.14.28c-.13.22-.27.44-.41.66l-.09.14q-.27.39-.57.75c0,.06-.11.12-.16.19s-.31.34-.47.5l-.24.23-.47.41-.26.21-.52.37-.24.16a9.21,9.21,0,0,1-.81.45,8.42,8.42,0,0,1-1.32.52,4.94,4.94,0,0,1-.52.13c-.25.07-.49.14-.75.19l-.19,0-.11,0a5.78,5.78,0,0,0,.25.65,6.73,6.73,0,0,0,1.69,2.23,7.88,7.88,0,0,0,8.38,1.28A6.89,6.89,0,0,0,249.6,111.44Zm-10.09-10.71a8.37,8.37,0,0,0,3.2,1.68,8.07,8.07,0,0,0,2.84.24,7.26,7.26,0,0,0,2-.48l.11,0,.23-.11a6.73,6.73,0,0,0,2.91-2.83c.07-.14.13-.25.18-.37l.06-.12.09-.2.06-.16a.78.78,0,0,1,.05-.14c.05-.13.09-.26.13-.39a4.2,4.2,0,0,0,.11-.45h0a.08.08,0,0,1,0,0c0-.11,0-.23.05-.35a1.6,1.6,0,0,0,0-.32,3.73,3.73,0,0,0,0-.42,5.13,5.13,0,0,0-.15-1.38,6.24,6.24,0,0,0-.32-1l-.15-.28a5.3,5.3,0,0,0-.33-.57l-.22-.29c-.13-.15-.25-.3-.39-.44l-.29-.25a2.48,2.48,0,0,0-.26-.19c-.15,0-.31,0-.46,0l-.4,0c-.42,0-.84,0-1.27,0s-.8-.1-1.2-.17l-.39-.1c-.27-.06-.54-.12-.8-.2l-.16,0s0,.06,0,.09,0,.18-.05.27c-.05.26-.1.52-.17.78,0,.11-.07.23-.1.35s-.16.48-.26.72l-.11.3c-.14.32-.3.64-.47,1,0,0-.07.1-.1.16-.16.26-.32.51-.5.76-.06.09-.14.18-.21.27a7.49,7.49,0,0,1-.51.61,2.62,2.62,0,0,1-.22.25,9.22,9.22,0,0,1-.79.74l0,0h0a8.49,8.49,0,0,1-.9.68,10.59,10.59,0,0,1-1,.55,9.92,9.92,0,0,1-1.13.46l.09.13a5.72,5.72,0,0,0,.37.49c.05.07.11.13.16.19C239.09,100.33,239.29,100.53,239.51,100.73Zm3.47-22A5.25,5.25,0,0,0,240.9,83a4.71,4.71,0,0,0,.08.5,3.77,3.77,0,0,0,.32,1,6.6,6.6,0,0,0,1.7,2.24,8,8,0,0,0,1,.76c.17.1.32.19.47.26a8.29,8.29,0,0,0,3.12.92,8.47,8.47,0,0,0,2-.09,6.45,6.45,0,0,0,.84-.21l.08,0a6.28,6.28,0,0,0,.85-.34,5.57,5.57,0,0,0,1.25-.81,6.89,6.89,0,0,0,1.86-2.42h0a6,6,0,0,0,.46-4,5.18,5.18,0,0,0-4.33-4,9.09,9.09,0,0,0-3.33,0,3.73,3.73,0,0,0-.46.09h0a10.25,10.25,0,0,0-3,1.2A7.59,7.59,0,0,0,243,78.72Zm18.3,24.4a5.06,5.06,0,0,0-1.64-2.77h0a4.29,4.29,0,0,0-.55-.4l-.18-.1a4,4,0,0,0-.46-.24l-.19-.08-.53-.2-.16,0a6,6,0,0,0-.64-.15l-.1,0c-.25,0-.51-.08-.77-.1h0a8.37,8.37,0,0,0-1.73,0l-.12.34a.17.17,0,0,0,0,0c0,.13-.1.26-.16.39s-.11.25-.17.37a4.44,4.44,0,0,1-.27.53,8.72,8.72,0,0,1-.48.79l-.16.23-.42.55c-.06.07-.11.14-.17.2-.2.23-.41.46-.63.67l-.1.09c-.19.18-.39.35-.59.51a.39.39,0,0,1-.1.08l.06.07a8.38,8.38,0,0,1,.52.66l.18.27c.11.18.23.36.33.55l.16.31c.1.2.19.41.27.62l.12.29a9.72,9.72,0,0,1,.29,1,9.6,9.6,0,0,1,.18,1c0,.09,0,.18,0,.28a7.8,7.8,0,0,1,0,1V110c0,.28,0,.57-.08.85a7.35,7.35,0,0,0,4.74-.51h0A6.7,6.7,0,0,0,261.28,103.12Zm1.16-11.94a5.08,5.08,0,0,0-1.86-3l0,0a4.75,4.75,0,0,0-.85-.5,3.27,3.27,0,0,0-.33-.14,6.8,6.8,0,0,0-.68-.24l-.41-.1q-.34-.08-.72-.12l-.44,0h-.26l0,0a1.08,1.08,0,0,1-.11.18c-.15.23-.3.46-.46.68l-.2.25c-.15.19-.31.38-.48.56l-.2.22c-.24.24-.48.47-.74.69s-.57.44-.87.64l-.29.17a5.48,5.48,0,0,1-.52.31,1,1,0,0,0,.08.11l.27.4.2.31c.09.15.17.31.25.46l.16.31a5.48,5.48,0,0,1,.23.56,2.18,2.18,0,0,1,.11.27c.1.28.18.57.26.87s.13.64.17,1c0,.1,0,.21,0,.31s0,.3,0,.45h.16a11,11,0,0,1,1.29,0h.18a10.33,10.33,0,0,1,1.39.22l.33.08c.33.09.65.19,1,.3l.41.17c.29.12.57.26.85.41l.24.12A6.56,6.56,0,0,0,262.44,91.18ZM255,75.38c.09.06.15.14.24.21s.43.37.63.57l.33.36c.18.21.35.44.51.67s.19.26.28.4.29.53.42.81l.19.39a9.26,9.26,0,0,1,.43,1.32,6.19,6.19,0,0,1,.15.86,2.6,2.6,0,0,1,0,.26c0,.21,0,.42,0,.63a2.81,2.81,0,0,1,0,.29c0,.23,0,.45,0,.68,0,.07,0,.14,0,.21,0,.3-.07.6-.13.9v0l.26,0,.44.08.43.1.42.11.42.13.39.14.4.17.36.17.14.06a6.55,6.55,0,0,0,1.56-5.63C262,75.67,258.32,74.73,255,75.38Zm-8-10.57.27,1.09a22.52,22.52,0,0,1,1,7.67l.65,0A60.66,60.66,0,0,0,251,58.26c0-1.08-.07-2.38-.71-2.89a1.55,1.55,0,0,0-1.45-.12,3.28,3.28,0,0,0-1.54,1.4C245.86,59,246.39,62.24,247,64.81Zm-14,17a6.25,6.25,0,0,0,.5.4,8.42,8.42,0,0,0,.9.56l.2.11a9.28,9.28,0,0,0,.86.37l.11,0c.33.11.66.2,1,.28l.23,0a7.53,7.53,0,0,0,.83.11l.15,0c0-.15,0-.3-.05-.45a8.33,8.33,0,0,1,3.26-7,9,9,0,0,1,1-.71l.28-.17q.47-.27,1-.51l.16-.08c.32-.15.64-.28,1-.41a5,5,0,0,0-2.86-2.27,8.71,8.71,0,0,0-4.24-.23A9.74,9.74,0,0,0,233,73.75,5.2,5.2,0,0,0,230.92,78,5.75,5.75,0,0,0,233,81.79ZM228,92.48a6.45,6.45,0,0,0,1.7,2.23A3.89,3.89,0,0,0,230,95l.16.11c.15.11.31.23.47.33a8.35,8.35,0,0,0,2.68,1l.38.07a8.75,8.75,0,0,0,1.35.09,6.61,6.61,0,0,0,.76,0A6.93,6.93,0,0,0,237,96.4,6.46,6.46,0,0,0,238,96a5.77,5.77,0,0,0,1.23-.8,6.63,6.63,0,0,0,.61-.57s0,0,0,0c.17-.19.33-.38.48-.58l.11-.16c.11-.16.23-.33.33-.51l.12-.23c.08-.15.17-.31.24-.47s.07-.19.11-.28.11-.3.16-.45.06-.22.08-.32a3.48,3.48,0,0,0,.1-.44c0-.11,0-.22.05-.33s0-.28,0-.42,0-.24,0-.36,0-.17,0-.26l0,0c-.26-.19-.52-.39-.77-.6a12.28,12.28,0,0,1-.95-1l-.23-.28a8.83,8.83,0,0,1-.64-.87l-.11-.15c-.32,0-.65,0-1,0h-.29l-.74-.07-.33,0c-.25,0-.49-.08-.74-.14a2.61,2.61,0,0,1-.27-.06c-.33-.08-.66-.17-1-.28l-.15,0-.8-.32-.29-.14c-.22-.1-.44-.21-.65-.33l-.27-.16-.16-.09a9.14,9.14,0,0,0-2.73,1.46,5.25,5.25,0,0,0-2.08,4.3A4.36,4.36,0,0,0,228,92.48Zm-.65,11.62a6.6,6.6,0,0,0,1.69,2.23,8.19,8.19,0,0,0,5.16,2,7,7,0,0,0,3.21-.68,5.84,5.84,0,0,0,.76-.45l.19-.14a5.58,5.58,0,0,0,.6-.49l.09-.08a6,6,0,0,0,.58-.65l.15-.2a6.65,6.65,0,0,0,.41-.62l.07-.11c-.24-.1-.47-.22-.7-.34a10.62,10.62,0,0,1-2.08-1.42,8.85,8.85,0,0,1-.76-.74c-.17-.18-.32-.37-.48-.56s-.14-.15-.2-.24-.24-.35-.36-.53-.15-.21-.21-.32-.16-.3-.24-.44-.16-.29-.23-.44h-.18a11.11,11.11,0,0,1-1.16-.08l-.34,0a12.26,12.26,0,0,1-1.34-.28l-.11,0a10.68,10.68,0,0,1-1.2-.42l-.33-.15a9.69,9.69,0,0,1-1.11-.57l-.1,0-.11.08a5.29,5.29,0,0,0-2.08,4.31A4.48,4.48,0,0,0,227.3,104.1Z"/></g></g></svg>